SplineFontDB: 3.0
FontName: kaganga_21
FullName: kaganga_21
FamilyName: kaganga_21
Weight: Book
Copyright: Beni Anton (c) (elSalikuriy). 2016. All Rights Reserved
Version: 1.00 October 6, 2016, initial release
ItalicAngle: 0
UnderlinePosition: -292
UnderlineWidth: 150
Ascent: 1638
Descent: 410
InvalidEm: 0
sfntRevision: 0x00010000
LayerCount: 2
Layer: 0 1 "Back" 1
Layer: 1 1 "Fore" 0
XUID: [1021 341 221541093 585110]
StyleMap: 0x0040
FSType: 0
OS2Version: 3
OS2_WeightWidthSlopeOnly: 0
OS2_UseTypoMetrics: 0
CreationTime: 1475582471
ModificationTime: 1475760274
PfmFamily: 17
TTFWeight: 400
TTFWidth: 5
LineGap: 222
VLineGap: 0
Panose: 2 0 5 0 0 0 0 0 0 0
OS2TypoAscent: 1434
OS2TypoAOffset: 0
OS2TypoDescent: -410
OS2TypoDOffset: 0
OS2TypoLinegap: 205
OS2WinAscent: 1716
OS2WinAOffset: 0
OS2WinDescent: 418
OS2WinDOffset: 0
HheadAscent: 1716
HheadAOffset: 0
HheadDescent: -418
HheadDOffset: 0
OS2SubXSize: 1434
OS2SubYSize: 1331
OS2SubXOff: 0
OS2SubYOff: 283
OS2SupXSize: 1434
OS2SupYSize: 1331
OS2SupXOff: 0
OS2SupYOff: 977
OS2StrikeYSize: 102
OS2StrikeYPos: 530
OS2CapHeight: 1434
OS2XHeight: 1024
OS2Vendor: 'HL  '
OS2CodePages: 20000001.00000000
OS2UnicodeRanges: 00000003.00000000.00000000.00000000
DEI: 91125
ShortTable: maxp 16
  1
  0
  236
  754
  33
  0
  0
  1
  0
  0
  0
  0
  0
  0
  0
  0
EndShort
LangName: 1033 "Beni Anton +AKkA (elSalikuriy). 2016. All Rights Reserved" "" "Regular" "kaganga_21:Version 1.00" "" "Version 1.00 October 6, 2016, initial release" "" "" "" "" "This font was created using FontCreator 10.0 from High-Logic.com" "www.suara21.com" "www.suara21.com" "" "www.suara21.com"
GaspTable: 1 65535 2 0
Encoding: Custom
Compacted: 1
UnicodeInterp: none
NameList: AGL For New Fonts
DisplaySize: -72
AntiAlias: 1
FitToEm: 0
WinInfo: 24 8 6
BeginChars: 65539 236

StartChar: .notdef
Encoding: 65536 -1 0
Width: 1024
Flags: W
LayerCount: 2
Fore
SplineSet
100 0 m 1,0,-1
 100 1434 l 1,1,-1
 924 1434 l 1,2,-1
 924 0 l 1,3,-1
 100 0 l 1,0,-1
150 50 m 1,4,-1
 874 50 l 1,5,-1
 874 1384 l 1,6,-1
 150 1384 l 1,7,-1
 150 50 l 1,4,-1
325 1148 m 1,8,9
 356 1176 356 1176 383 1191 c 0,10,11
 436 1221 436 1221 495 1221 c 0,12,13
 587 1221 587 1221 643 1173.5 c 128,-1,14
 699 1126 699 1126 699 1046 c 0,15,16
 699 997 699 997 676 947.5 c 128,-1,17
 653 898 653 898 589 818 c 0,18,19
 526 738 526 738 490 686 c 128,-1,20
 454 634 454 634 454 587 c 0,21,22
 454 549 454 549 478 454 c 1,23,-1
 446 454 l 1,24,25
 411 551 411 551 411 602 c 0,26,27
 411 678 411 678 492.5 820 c 128,-1,28
 574 962 574 962 574 1037 c 0,29,30
 574 1094 574 1094 541 1127 c 128,-1,31
 508 1160 508 1160 450 1160 c 0,32,33
 412 1160 412 1160 381 1143 c 0,34,35
 355 1128 355 1128 325 1103 c 1,36,-1
 325 1148 l 1,8,9
389 334 m 2,37,-1
 446 392 l 2,38,39
 457 402 457 402 466 402 c 0,40,41
 476 402 476 402 488 391 c 2,42,-1
 544 331 l 2,43,44
 553 320 553 320 553 311 c 0,45,46
 553 300 553 300 543 289 c 2,47,-1
 487 227 l 2,48,49
 473 213 473 213 466 213 c 0,50,51
 455 213 455 213 446 223 c 2,52,-1
 385 294 l 2,53,54
 378 303 378 303 378 312 c 0,55,56
 378 322 378 322 389 334 c 2,37,-1
EndSplineSet
EndChar

StartChar: exclam
Encoding: 33 33 4
Width: 751
Flags: W
LayerCount: 2
Fore
SplineSet
566 1372 m 2,0,-1
 587 1372 l 1,1,2
 639 1349 639 1349 639 1280 c 2,3,-1
 639 1224 l 1,4,5
 630 1130 630 1130 613 1064 c 1,6,7
 601 971 601 971 575 860 c 1,8,9
 564 849 564 849 546 740 c 1,10,11
 527 717 527 717 505 616 c 0,12,13
 498 593 498 593 476 568 c 1,14,15
 456 480 456 480 447 480 c 1,16,17
 406 348 406 348 392 348 c 1,18,19
 373 299 373 299 354 272 c 1,20,21
 354 246 354 246 325 212 c 1,22,23
 325 193 325 193 270 120 c 1,24,25
 270 90 270 90 238 60 c 1,26,27
 209 0 209 0 191 0 c 2,28,-1
 180 0 l 1,29,30
 110 21 110 21 110 72 c 1,31,-1
 107 96 l 1,32,33
 107 136 107 136 151 188 c 1,34,35
 174 253 174 253 191 260 c 1,36,37
 200 287 200 287 220 308 c 1,38,39
 258 387 258 387 258 404 c 1,40,41
 271 415 271 415 293 464 c 1,42,43
 305 464 305 464 322 548 c 1,44,45
 334 548 334 548 348 620 c 1,46,47
 362 633 362 633 380 704 c 1,48,49
 387 704 387 704 412 792 c 1,50,51
 423 792 423 792 430 844 c 1,52,53
 438 848 438 848 438 868 c 2,54,-1
 438 896 l 1,55,56
 467 965 467 965 467 1028 c 1,57,58
 497 1132 497 1132 497 1196 c 1,59,60
 499 1196 499 1196 505 1216 c 1,61,-1
 505 1228 l 2,62,63
 505 1333 505 1333 549 1364 c 0,64,65
 558 1372 558 1372 566 1372 c 2,0,-1
333 1072 m 1,66,67
 384 1006 384 1006 384 984 c 2,68,-1
 384 968 l 1,69,70
 368 887 368 887 368 880 c 1,71,72
 356 870 356 870 339 804 c 1,73,-1
 342 796 l 1,74,75
 323 715 323 715 291 664 c 1,76,77
 291 642 291 642 262 604 c 0,78,79
 231 560 231 560 218 508 c 1,80,81
 213 508 213 508 186 476 c 1,82,-1
 170 472 l 1,83,-1
 138 472 l 1,84,85
 77 494 77 494 77 548 c 2,86,-1
 77 572 l 2,87,88
 77 591 77 591 115 648 c 1,89,90
 115 677 115 677 144 704 c 0,91,92
 144 709 144 709 179 772 c 1,93,94
 179 791 179 791 199 828 c 1,95,96
 215 934 215 934 237 968 c 1,97,98
 247 1056 247 1056 272 1056 c 1,99,100
 294 1072 294 1072 333 1072 c 1,66,67
EndSplineSet
EndChar

StartChar: quotedbl
Encoding: 34 34 5
Width: 672
Flags: W
LayerCount: 2
Fore
SplineSet
197 1108 m 1,0,-1
 167 1108 l 1,1,-1
 105 1467 l 2,2,3
 101 1490 101 1490 101 1500 c 0,4,5
 101 1537 101 1537 121.5 1557 c 128,-1,6
 142 1577 142 1577 181 1577 c 256,7,8
 220 1577 220 1577 241.5 1557.5 c 128,-1,9
 263 1538 263 1538 263 1501 c 0,10,11
 263 1493 263 1493 259 1467 c 2,12,-1
 197 1108 l 1,0,-1
509 1108 m 1,13,-1
 479 1108 l 1,14,-1
 417 1467 l 2,15,16
 413 1490 413 1490 413 1500 c 0,17,18
 413 1537 413 1537 433.5 1557 c 128,-1,19
 454 1577 454 1577 493 1577 c 256,20,21
 532 1577 532 1577 553.5 1557.5 c 128,-1,22
 575 1538 575 1538 575 1501 c 0,23,24
 575 1493 575 1493 571 1467 c 2,25,-1
 509 1108 l 1,13,-1
EndSplineSet
EndChar

StartChar: numbersign
Encoding: 35 35 6
Width: 1336
Flags: W
LayerCount: 2
Fore
SplineSet
596 859 m 1,0,-1
 511 569 l 1,1,-1
 753 569 l 1,2,-1
 839 859 l 1,3,-1
 596 859 l 1,0,-1
673 1434 m 1,4,-1
 766 1434 l 1,5,-1
 625 957 l 1,6,-1
 867 957 l 1,7,-1
 1009 1434 l 1,8,-1
 1101 1434 l 1,9,-1
 960 957 l 1,10,-1
 1219 957 l 1,11,-1
 1190 860 l 1,12,-1
 931 860 l 1,13,-1
 848 570 l 1,14,-1
 1127 570 l 1,15,-1
 1097 472 l 1,16,-1
 817 472 l 1,17,-1
 677 0 l 1,18,-1
 585 0 l 1,19,-1
 724 472 l 1,20,-1
 484 472 l 1,21,-1
 342 0 l 1,22,-1
 250 0 l 1,23,-1
 390 472 l 1,24,-1
 117 472 l 1,25,-1
 147 570 l 1,26,-1
 418 570 l 1,27,-1
 504 860 l 1,28,-1
 209 860 l 1,29,-1
 238 957 l 1,30,-1
 533 957 l 1,31,-1
 673 1434 l 1,4,-1
EndSplineSet
EndChar

StartChar: dollar
Encoding: 36 36 7
Width: 1014
Flags: W
LayerCount: 2
Fore
SplineSet
577 1552 m 1,0,-1
 577 1450 l 1,1,2
 645 1442 645 1442 718 1415 c 0,3,4
 728 1409 728 1409 737 1409 c 0,5,6
 762 1409 762 1409 778 1454 c 1,7,-1
 828 1454 l 1,8,-1
 931 1172 l 1,9,-1
 882 1172 l 1,10,11
 822 1306 822 1306 714 1351 c 0,12,13
 640 1381 640 1381 577 1390 c 1,14,-1
 577 850 l 1,15,16
 818 757 818 757 899.5 667 c 128,-1,17
 981 577 981 577 981 403 c 0,18,19
 981 206 981 206 861.5 103 c 128,-1,20
 742 0 742 0 577 -17 c 1,21,-1
 577 -256 l 1,22,-1
 504 -256 l 1,23,-1
 504 -19 l 1,24,25
 316 -16 316 -16 238 19 c 0,26,27
 228 25 228 25 219 25 c 0,28,29
 194 25 194 25 178 -20 c 1,30,-1
 128 -20 l 1,31,-1
 128 311 l 1,32,-1
 177 311 l 1,33,34
 227 128 227 128 329.5 85 c 128,-1,35
 432 42 432 42 504 42 c 1,36,-1
 504 677 l 1,37,38
 290 744 290 744 205 830 c 0,39,40
 113 921 113 921 113 1079 c 0,41,42
 113 1245 113 1245 238 1350 c 0,43,44
 343 1438 343 1438 504 1452 c 1,45,-1
 504 1552 l 1,46,-1
 577 1552 l 1,0,-1
577 655 m 1,47,-1
 577 45 l 1,48,49
 702 62 702 62 788.5 141 c 128,-1,50
 875 220 875 220 875 360 c 0,51,52
 875 476 875 476 806 543 c 0,53,54
 744 602 744 602 577 655 c 1,47,-1
504 873 m 1,55,-1
 504 1393 l 1,56,57
 385 1388 385 1388 305 1321 c 0,58,59
 219 1248 219 1248 219 1139 c 0,60,61
 219 1041 219 1041 274 986 c 0,62,63
 326 932 326 932 504 873 c 1,55,-1
EndSplineSet
EndChar

StartChar: percent
Encoding: 37 37 8
Width: 1610
Flags: W
LayerCount: 2
Fore
SplineSet
449 1459 m 256,0,1
 547 1459 547 1459 639.5 1410 c 128,-1,2
 732 1361 732 1361 784 1270.5 c 128,-1,3
 836 1180 836 1180 836 1080 c 0,4,5
 836 981 836 981 785.5 891.5 c 128,-1,6
 735 802 735 802 642.5 751.5 c 128,-1,7
 550 701 550 701 449 701 c 0,8,9
 349 701 349 701 256.5 751.5 c 128,-1,10
 164 802 164 802 113 891.5 c 128,-1,11
 62 981 62 981 62 1080 c 0,12,13
 62 1180 62 1180 114 1270.5 c 128,-1,14
 166 1361 166 1361 258.5 1410 c 128,-1,15
 351 1459 351 1459 449 1459 c 256,0,1
206 1066 m 0,16,17
 219 974 219 974 261.5 892.5 c 128,-1,18
 304 811 304 811 368 768 c 0,19,20
 425 728 425 728 482 728 c 0,21,22
 489 728 489 728 495 729 c 0,23,24
 558 732 558 732 610 782 c 128,-1,25
 662 832 662 832 683 918 c 0,26,27
 696 972 696 972 696 1029 c 0,28,29
 696 1061 696 1061 692 1094 c 0,30,31
 680 1187 680 1187 636 1269.5 c 128,-1,32
 592 1352 592 1352 529 1394 c 0,33,34
 471 1432 471 1432 414 1432 c 2,35,-1
 403 1432 l 2,36,37
 342 1429 342 1429 290 1380 c 128,-1,38
 238 1331 238 1331 217 1245 c 0,39,40
 202 1187 202 1187 202 1128 c 0,41,42
 202 1097 202 1097 206 1066 c 0,16,17
297 -29 m 1,43,-1
 1237 1432 l 1,44,-1
 1321 1432 l 1,45,-1
 383 -29 l 1,46,-1
 297 -29 l 1,43,-1
1161 738 m 0,47,48
 1258 738 1258 738 1351 688.5 c 128,-1,49
 1444 639 1444 639 1496 548.5 c 128,-1,50
 1548 458 1548 458 1548 359 c 0,51,52
 1548 259 1548 259 1497.5 169.5 c 128,-1,53
 1447 80 1447 80 1354.5 30 c 128,-1,54
 1262 -20 1262 -20 1161 -20 c 256,55,56
 1060 -20 1060 -20 968 30 c 128,-1,57
 876 80 876 80 825 169.5 c 128,-1,58
 774 259 774 259 774 359 c 0,59,60
 774 458 774 458 826 548.5 c 128,-1,61
 878 639 878 639 970.5 688.5 c 128,-1,62
 1063 738 1063 738 1161 738 c 0,47,48
918 344 m 0,63,64
 931 252 931 252 973.5 170.5 c 128,-1,65
 1016 89 1016 89 1080 46 c 0,66,67
 1139 7 1139 7 1196 7 c 2,68,-1
 1207 7 l 2,69,70
 1270 10 1270 10 1322 60 c 128,-1,71
 1374 110 1374 110 1395 196 c 0,72,73
 1408 250 1408 250 1408 307 c 0,74,75
 1408 339 1408 339 1404 372 c 0,76,77
 1392 465 1392 465 1348 547.5 c 128,-1,78
 1304 630 1304 630 1241 672 c 0,79,80
 1183 710 1183 710 1126 710 c 2,81,-1
 1115 710 l 2,82,83
 1054 707 1054 707 1002 658 c 128,-1,84
 950 609 950 609 929 523 c 0,85,86
 914 465 914 465 914 406 c 0,87,88
 914 375 914 375 918 344 c 0,63,64
EndSplineSet
EndChar

StartChar: ampersand
Encoding: 38 38 9
Width: 1769
Flags: W
LayerCount: 2
Fore
SplineSet
345 1160 m 1,0,-1
 358 1160 l 2,1,2
 378 1160 378 1160 395 1137 c 1,3,-1
 423 1149 l 1,4,5
 432 1145 432 1145 432 1126 c 2,6,-1
 432 1034 l 2,7,8
 432 1011 432 1011 423 1011 c 2,9,-1
 409 1011 l 1,10,11
 386 1103 386 1103 363 1103 c 0,12,13
 338 1103 338 1103 331 1057 c 1,14,15
 331 978 331 978 390 942 c 1,16,17
 441 889 441 889 441 781 c 1,18,19
 427 643 427 643 377 643 c 2,20,-1
 368 643 l 2,21,22
 345 643 345 643 322 678 c 1,23,24
 322 655 322 655 312 655 c 2,25,-1
 294 655 l 2,26,27
 285 655 285 655 285 678 c 2,28,-1
 285 781 l 2,29,30
 286 804 286 804 294 804 c 2,31,-1
 308 804 l 1,32,33
 331 712 331 712 354 712 c 2,34,-1
 372 712 l 2,35,36
 379 712 379 712 390 758 c 1,37,-1
 390 792 l 1,38,39
 386 822 386 822 294 930 c 1,40,-1
 285 1011 l 1,41,-1
 285 1034 l 2,42,43
 285 1140 285 1140 345 1160 c 1,0,-1
767 1160 m 1,44,-1
 790 1160 l 2,45,46
 797 1160 797 1160 804 1126 c 1,47,-1
 804 1103 l 2,48,49
 804 1086 804 1086 790 1068 c 1,50,-1
 767 1068 l 2,51,52
 760 1068 760 1068 749 1114 c 1,53,54
 749 1132 749 1132 767 1160 c 1,44,-1
1397 1160 m 1,55,-1
 1420 1160 l 2,56,57
 1426 1160 1426 1160 1433 1126 c 1,58,-1
 1433 1103 l 2,59,60
 1433 1086 1433 1086 1420 1068 c 1,61,-1
 1397 1068 l 2,62,63
 1389 1068 1389 1068 1378 1114 c 1,64,65
 1378 1132 1378 1132 1397 1160 c 1,55,-1
188 1149 m 2,66,-1
 239 1149 l 1,67,68
 248 1145 248 1145 248 1126 c 2,69,-1
 248 724 l 1,70,71
 266 718 266 718 266 689 c 2,72,-1
 266 678 l 2,73,74
 266 655 266 655 257 655 c 2,75,-1
 188 655 l 2,76,77
 179 655 179 655 179 678 c 2,78,-1
 179 689 l 1,79,-1
 198 735 l 1,80,-1
 198 1080 l 1,81,82
 179 1080 179 1080 179 1103 c 2,83,-1
 179 1126 l 2,84,85
 181 1149 181 1149 188 1149 c 2,66,-1
643 1149 m 2,86,-1
 694 1149 l 1,87,88
 703 1145 703 1145 703 1126 c 2,89,-1
 703 735 l 1,90,-1
 721 689 l 1,91,-1
 721 678 l 2,92,93
 721 655 721 655 712 655 c 2,94,-1
 643 655 l 2,95,96
 634 655 634 655 634 678 c 2,97,-1
 634 689 l 1,98,-1
 652 735 l 1,99,-1
 652 1080 l 1,100,101
 634 1080 634 1080 634 1103 c 2,102,-1
 634 1126 l 2,103,104
 635 1149 635 1149 643 1149 c 2,86,-1
841 1149 m 2,105,-1
 891 1149 l 1,106,107
 900 1145 900 1145 900 1126 c 2,108,-1
 900 850 l 1,109,-1
 905 850 l 1,110,111
 946 925 946 925 946 942 c 1,112,113
 933 942 933 942 933 965 c 2,114,-1
 933 976 l 2,115,116
 934 999 934 999 942 999 c 2,117,-1
 1001 999 l 2,118,119
 1011 996 1011 996 1011 976 c 2,120,-1
 1011 965 l 1,121,122
 950 875 950 875 946 850 c 1,123,124
 970 772 970 772 1015 689 c 1,125,-1
 1015 678 l 2,126,127
 1015 655 1015 655 1006 655 c 2,128,-1
 937 655 l 2,129,130
 928 655 928 655 928 678 c 2,131,-1
 928 689 l 2,132,133
 928 712 928 712 942 712 c 1,134,135
 915 804 915 804 910 804 c 1,136,-1
 900 770 l 1,137,-1
 900 735 l 1,138,-1
 919 689 l 1,139,-1
 919 678 l 2,140,141
 919 655 919 655 910 655 c 2,142,-1
 841 655 l 2,143,144
 832 655 832 655 832 678 c 2,145,-1
 832 689 l 1,146,-1
 850 735 l 1,147,-1
 850 1080 l 1,148,149
 832 1080 832 1080 832 1103 c 2,150,-1
 832 1126 l 2,151,152
 833 1149 833 1149 841 1149 c 2,105,-1
78 1011 m 2,153,-1
 96 1011 l 2,154,155
 158 1011 158 1011 165 827 c 1,156,-1
 156 815 l 1,157,-1
 55 815 l 1,158,-1
 55 804 l 1,159,160
 62 701 62 701 92 701 c 0,161,162
 116 701 116 701 129 758 c 1,163,-1
 161 735 l 1,164,165
 146 643 146 643 101 643 c 2,166,-1
 78 643 l 1,167,168
 5 672 5 672 5 815 c 1,169,170
 13 1011 13 1011 78 1011 c 2,153,-1
515 1011 m 2,171,-1
 551 1011 l 2,172,173
 611 1011 611 1011 611 838 c 2,174,-1
 611 724 l 1,175,176
 629 724 629 724 629 701 c 2,177,-1
 629 678 l 2,178,179
 629 655 629 655 620 655 c 2,180,-1
 574 655 l 2,181,182
 565 655 565 655 565 689 c 1,183,184
 541 643 541 643 515 643 c 2,185,-1
 510 643 l 2,186,187
 459 643 459 643 459 747 c 2,188,-1
 459 758 l 2,189,190
 459 861 459 861 515 861 c 2,191,-1
 560 861 l 1,192,-1
 560 907 l 1,193,194
 553 953 553 953 528 953 c 0,195,196
 516 953 516 953 492 896 c 1,197,-1
 482 896 l 2,198,199
 473 896 473 896 473 919 c 2,200,-1
 473 965 l 1,201,202
 479 1011 479 1011 515 1011 c 2,171,-1
749 999 m 2,203,-1
 795 999 l 2,204,205
 804 996 804 996 804 976 c 2,206,-1
 804 735 l 1,207,-1
 822 689 l 1,208,-1
 822 678 l 2,209,210
 822 655 822 655 813 655 c 2,211,-1
 740 655 l 1,212,-1
 740 689 l 1,213,214
 758 729 758 729 758 770 c 2,215,-1
 758 907 l 1,216,-1
 740 953 l 1,217,-1
 740 976 l 2,218,219
 741 999 741 999 749 999 c 2,203,-1
1029 999 m 2,220,-1
 1080 999 l 2,221,222
 1089 996 1089 996 1089 976 c 2,223,-1
 1089 758 l 2,224,225
 1089 740 1089 740 1107 712 c 1,226,227
 1144 712 1144 712 1144 792 c 2,228,-1
 1144 919 l 1,229,-1
 1121 965 l 1,230,-1
 1121 976 l 2,231,232
 1122 999 1122 999 1130 999 c 2,233,-1
 1190 999 l 1,234,-1
 1190 770 l 2,235,236
 1190 724 1190 724 1213 689 c 1,237,238
 1208 667 1208 667 1208 655 c 1,239,-1
 1153 655 l 2,240,241
 1144 655 1144 655 1144 689 c 1,242,243
 1114 643 1114 643 1098 643 c 2,244,-1
 1080 643 l 2,245,246
 1038 643 1038 643 1038 850 c 2,247,-1
 1038 919 l 1,248,-1
 1020 965 l 1,249,-1
 1020 976 l 2,250,251
 1021 999 1021 999 1029 999 c 2,220,-1
1231 999 m 2,252,-1
 1282 999 l 2,253,254
 1291 999 1291 999 1291 953 c 1,255,256
 1310 999 1310 999 1328 999 c 2,257,-1
 1346 999 l 2,258,259
 1355 996 1355 996 1355 976 c 2,260,-1
 1355 896 l 2,261,262
 1355 873 1355 873 1346 873 c 2,263,-1
 1341 873 l 1,264,-1
 1318 907 l 1,265,266
 1294 907 1294 907 1291 792 c 2,267,-1
 1291 735 l 1,268,-1
 1314 689 l 1,269,-1
 1314 678 l 2,270,271
 1314 655 1314 655 1305 655 c 2,272,-1
 1231 655 l 2,273,274
 1222 655 1222 655 1222 678 c 2,275,-1
 1222 689 l 1,276,-1
 1245 747 l 1,277,-1
 1245 907 l 1,278,-1
 1222 953 l 1,279,-1
 1222 976 l 2,280,281
 1223 999 1223 999 1231 999 c 2,252,-1
1378 999 m 2,282,-1
 1424 999 l 2,283,284
 1433 996 1433 996 1433 976 c 2,285,-1
 1433 735 l 1,286,-1
 1452 689 l 1,287,-1
 1452 678 l 2,288,289
 1452 655 1452 655 1443 655 c 2,290,-1
 1378 655 l 2,291,292
 1369 655 1369 655 1369 678 c 2,293,-1
 1369 689 l 1,294,295
 1387 729 1387 729 1387 770 c 2,296,-1
 1387 930 l 1,297,298
 1369 930 1369 930 1369 953 c 2,299,-1
 1369 976 l 2,300,301
 1370 999 1370 999 1378 999 c 2,282,-1
1465 999 m 2,302,-1
 1534 999 l 2,303,304
 1544 996 1544 996 1544 976 c 2,305,-1
 1544 953 l 2,306,307
 1544 930 1544 930 1525 930 c 1,308,309
 1548 768 1548 768 1548 758 c 1,310,-1
 1557 758 l 1,311,312
 1580 917 1580 917 1580 930 c 1,313,314
 1562 930 1562 930 1562 953 c 2,315,-1
 1562 976 l 2,316,317
 1563 999 1563 999 1571 999 c 2,318,-1
 1626 999 l 2,319,320
 1635 996 1635 996 1635 976 c 2,321,-1
 1635 953 l 1,322,323
 1616 953 1616 953 1553 563 c 1,324,325
 1530 494 1530 494 1525 494 c 2,326,-1
 1498 494 l 2,327,328
 1488 494 1488 494 1488 517 c 2,329,-1
 1488 540 l 1,330,331
 1528 592 1528 592 1530 632 c 2,332,-1
 1530 643 l 1,333,334
 1481 942 1481 942 1456 942 c 1,335,-1
 1456 976 l 2,336,337
 1458 999 1458 999 1465 999 c 2,302,-1
55 861 m 1,338,-1
 119 861 l 1,339,340
 119 953 119 953 83 953 c 1,341,342
 55 930 55 930 55 861 c 1,338,-1
505 781 m 1,343,-1
 505 747 l 1,344,345
 513 701 513 701 537 701 c 1,346,347
 550 708 550 708 560 758 c 1,348,-1
 560 815 l 1,349,-1
 537 827 l 1,350,351
 513 827 513 827 505 781 c 1,343,-1
1240 517 m 1,352,-1
 1263 517 l 2,353,354
 1270 517 1270 517 1277 482 c 1,355,-1
 1277 459 l 2,356,357
 1277 443 1277 443 1263 425 c 1,358,-1
 1240 425 l 2,359,360
 1233 425 1233 425 1222 471 c 1,361,362
 1222 489 1222 489 1240 517 c 1,352,-1
9 505 m 2,363,-1
 119 505 l 2,364,365
 188 505 188 505 188 345 c 0,366,367
 188 239 188 239 124 218 c 1,368,-1
 74 218 l 1,369,-1
 74 103 l 1,370,-1
 96 57 l 1,371,-1
 96 34 l 2,372,373
 96 11 96 11 87 11 c 2,374,-1
 9 11 l 2,375,376
 0 11 0 11 0 34 c 2,377,-1
 0 57 l 1,378,-1
 23 103 l 1,379,-1
 23 413 l 1,380,-1
 0 459 l 1,381,-1
 0 482 l 2,382,383
 1 505 1 505 9 505 c 2,363,-1
629 505 m 2,384,-1
 680 505 l 2,385,386
 689 502 689 502 689 482 c 2,387,-1
 689 103 l 2,388,389
 689 96 689 96 712 46 c 1,390,-1
 712 34 l 2,391,392
 712 11 712 11 703 11 c 2,393,-1
 652 11 l 2,394,395
 643 11 643 11 643 46 c 1,396,397
 624 0 624 0 597 0 c 2,398,-1
 583 0 l 1,399,400
 528 27 528 27 528 138 c 2,401,-1
 528 218 l 2,402,403
 528 340 528 340 593 356 c 1,404,-1
 606 356 l 2,405,406
 620 356 620 356 643 322 c 1,407,-1
 643 425 l 1,408,-1
 620 471 l 1,409,-1
 620 482 l 2,410,411
 622 505 622 505 629 505 c 2,384,-1
1158 459 m 1,412,-1
 1162 436 l 1,413,-1
 1158 436 l 1,414,-1
 1162 413 l 1,415,-1
 1162 356 l 1,416,-1
 1190 356 l 1,417,418
 1199 352 1199 352 1199 333 c 2,419,-1
 1199 322 l 2,420,421
 1199 299 1199 299 1190 299 c 2,422,-1
 1162 299 l 1,423,424
 1162 253 1162 253 1158 253 c 2,425,-1
 1162 230 l 1,426,-1
 1162 92 l 2,427,428
 1164 69 1164 69 1171 69 c 1,429,-1
 1194 115 l 1,430,-1
 1199 92 l 1,431,432
 1199 0 1199 0 1162 0 c 2,433,-1
 1149 0 l 2,434,435
 1112 0 1112 0 1112 103 c 2,436,-1
 1112 299 l 1,437,438
 1089 299 1089 299 1089 322 c 2,439,-1
 1089 333 l 2,440,441
 1089 356 1089 356 1116 356 c 1,442,-1
 1116 413 l 1,443,444
 1123 459 1123 459 1158 459 c 1,412,-1
74 436 m 1,445,-1
 74 287 l 1,446,-1
 92 287 l 2,447,448
 127 287 127 287 133 333 c 1,449,-1
 133 390 l 1,450,451
 127 436 127 436 92 436 c 2,452,-1
 74 436 l 1,445,-1
409 368 m 2,453,-1
 441 368 l 2,454,455
 496 368 496 368 510 184 c 1,456,457
 497 0 497 0 441 0 c 2,458,-1
 409 0 l 2,459,460
 353 0 353 0 340 184 c 1,461,462
 355 368 355 368 409 368 c 2,453,-1
1383 368 m 2,463,-1
 1397 368 l 2,464,465
 1484 368 1484 368 1484 184 c 0,466,467
 1484 22 1484 22 1406 0 c 1,468,-1
 1383 0 l 2,469,470
 1327 0 1327 0 1314 184 c 1,471,472
 1329 368 1329 368 1383 368 c 2,463,-1
207 356 m 2,473,-1
 257 356 l 2,474,475
 266 356 266 356 266 310 c 1,476,477
 286 356 286 356 303 356 c 2,478,-1
 322 356 l 1,479,480
 331 352 331 352 331 333 c 2,481,-1
 331 253 l 2,482,483
 331 230 331 230 322 230 c 2,484,-1
 317 230 l 1,485,486
 302 264 302 264 294 264 c 0,487,488
 270 264 270 264 266 149 c 1,489,-1
 266 92 l 1,490,-1
 289 46 l 1,491,-1
 289 34 l 2,492,493
 289 11 289 11 280 11 c 2,494,-1
 207 11 l 2,495,496
 198 11 198 11 198 34 c 2,497,-1
 198 46 l 1,498,-1
 221 103 l 1,499,-1
 221 264 l 1,500,-1
 198 310 l 1,501,-1
 198 333 l 2,502,503
 199 356 199 356 207 356 c 2,473,-1
730 356 m 2,504,-1
 781 356 l 1,505,506
 790 352 790 352 790 333 c 2,507,-1
 790 138 l 2,508,509
 790 69 790 69 818 69 c 1,510,511
 839 103 839 103 845 103 c 1,512,-1
 845 276 l 1,513,-1
 822 322 l 1,514,515
 827 322 827 322 827 333 c 1,516,517
 822 333 822 333 822 345 c 1,518,-1
 832 356 l 1,519,-1
 882 356 l 1,520,521
 891 352 891 352 891 333 c 2,522,-1
 891 126 l 2,523,524
 891 81 891 81 914 46 c 1,525,-1
 914 34 l 2,526,527
 914 11 914 11 905 11 c 2,528,-1
 854 11 l 2,529,530
 845 11 845 11 845 46 c 1,531,532
 818 0 818 0 795 0 c 2,533,-1
 781 0 l 2,534,535
 740 0 740 0 740 207 c 2,536,-1
 740 276 l 1,537,-1
 721 322 l 1,538,-1
 721 333 l 2,539,540
 723 356 723 356 730 356 c 2,504,-1
992 356 m 2,541,-1
 1011 356 l 1,542,-1
 1043 333 l 1,543,544
 1044 356 1044 356 1052 356 c 2,545,-1
 1061 356 l 2,546,547
 1068 356 1068 356 1075 322 c 1,548,-1
 1075 241 l 2,549,550
 1075 218 1075 218 1066 218 c 2,551,-1
 1052 218 l 1,552,553
 1032 299 1032 299 1011 299 c 0,554,555
 983 299 983 299 979 161 c 0,556,557
 979 66 979 66 1020 57 c 0,558,559
 1026 57 1026 57 1052 126 c 1,560,-1
 1075 115 l 1,561,-1
 1075 80 l 1,562,563
 1053 0 1053 0 1024 0 c 2,564,-1
 1001 0 l 1,565,566
 928 29 928 29 928 172 c 1,567,568
 942 356 942 356 992 356 c 2,541,-1
1222 356 m 2,569,-1
 1268 356 l 1,570,571
 1277 352 1277 352 1277 333 c 2,572,-1
 1277 80 l 1,573,574
 1296 75 1296 75 1296 46 c 2,575,-1
 1296 34 l 2,576,577
 1296 11 1296 11 1286 11 c 2,578,-1
 1222 11 l 2,579,580
 1213 11 1213 11 1213 34 c 2,581,-1
 1213 46 l 1,582,583
 1231 86 1231 86 1231 126 c 2,584,-1
 1231 264 l 1,585,-1
 1213 310 l 1,586,-1
 1213 333 l 2,587,588
 1214 356 1214 356 1222 356 c 2,569,-1
1502 356 m 2,589,-1
 1553 356 l 2,590,591
 1562 356 1562 356 1562 322 c 1,592,-1
 1567 322 l 1,593,594
 1584 356 1584 356 1608 356 c 2,595,-1
 1617 356 l 2,596,597
 1668 356 1668 356 1668 218 c 2,598,-1
 1668 92 l 1,599,-1
 1686 46 l 1,600,-1
 1686 34 l 2,601,602
 1686 11 1686 11 1677 11 c 2,603,-1
 1608 11 l 2,604,605
 1599 11 1599 11 1599 34 c 2,606,-1
 1599 46 l 2,607,608
 1599 69 1599 69 1617 69 c 1,609,-1
 1617 218 l 2,610,611
 1617 287 1617 287 1590 287 c 1,612,613
 1562 269 1562 269 1562 207 c 2,614,-1
 1562 92 l 1,615,-1
 1585 46 l 1,616,-1
 1585 34 l 2,617,618
 1585 11 1585 11 1576 11 c 2,619,-1
 1502 11 l 2,620,621
 1493 11 1493 11 1493 34 c 2,622,-1
 1493 46 l 1,623,-1
 1516 103 l 1,624,-1
 1516 264 l 1,625,-1
 1493 310 l 1,626,-1
 1493 333 l 2,627,628
 1494 356 1494 356 1502 356 c 2,589,-1
390 207 m 2,629,-1
 390 184 l 2,630,631
 390 57 390 57 427 57 c 0,632,633
 453 57 453 57 459 184 c 1,634,-1
 459 207 l 2,635,636
 459 276 459 276 427 310 c 1,637,638
 390 295 390 295 390 207 c 2,629,-1
1364 207 m 2,639,-1
 1364 184 l 2,640,641
 1364 57 1364 57 1401 57 c 1,642,643
 1433 91 1433 91 1433 161 c 2,644,-1
 1433 207 l 2,645,646
 1433 270 1433 270 1406 310 c 1,647,648
 1364 295 1364 295 1364 207 c 2,639,-1
574 172 m 0,649,650
 574 69 574 69 611 69 c 0,651,652
 640 69 640 69 643 161 c 2,653,-1
 643 230 l 1,654,655
 627 299 627 299 611 299 c 0,656,657
 574 291 574 291 574 172 c 0,649,650
EndSplineSet
EndChar

StartChar: quotesingle
Encoding: 39 39 10
Width: 346
Flags: W
LayerCount: 2
Fore
SplineSet
197 1108 m 1,0,-1
 167 1108 l 1,1,-1
 105 1467 l 2,2,3
 101 1490 101 1490 101 1500 c 0,4,5
 101 1537 101 1537 121.5 1557 c 128,-1,6
 142 1577 142 1577 181 1577 c 256,7,8
 220 1577 220 1577 241.5 1557.5 c 128,-1,9
 263 1538 263 1538 263 1501 c 0,10,11
 263 1493 263 1493 259 1467 c 2,12,-1
 197 1108 l 1,0,-1
EndSplineSet
EndChar

StartChar: parenleft
Encoding: 40 40 11
Width: 758
Flags: W
LayerCount: 2
Fore
SplineSet
252 601 m 0,0,1
 254 878 254 878 351.5 1131 c 128,-1,2
 449 1384 449 1384 620 1573 c 1,3,-1
 700 1573 l 1,4,5
 528 1331 528 1331 470 1135 c 0,6,7
 413 942 413 942 413 612 c 2,8,-1
 413 590 l 2,9,10
 413 260 413 260 470 68 c 0,11,12
 528 -128 528 -128 700 -370 c 1,13,-1
 620 -370 l 1,14,15
 449 -181 449 -181 351.5 71.5 c 128,-1,16
 254 324 254 324 252 601 c 0,0,1
EndSplineSet
EndChar

StartChar: parenright
Encoding: 41 41 12
Width: 758
Flags: W
LayerCount: 2
Fore
SplineSet
138 -370 m 1,0,-1
 58 -370 l 1,1,2
 230 -128 230 -128 288 68 c 0,3,4
 345 260 345 260 345 590 c 2,5,-1
 345 612 l 2,6,7
 345 942 345 942 288 1135 c 0,8,9
 230 1331 230 1331 58 1573 c 1,10,-1
 138 1573 l 1,11,12
 309 1384 309 1384 406.5 1131 c 128,-1,13
 504 878 504 878 506 601 c 0,14,15
 504 324 504 324 406.5 71.5 c 128,-1,16
 309 -181 309 -181 138 -370 c 1,0,-1
EndSplineSet
EndChar

StartChar: asterisk
Encoding: 42 42 13
Width: 1497
Flags: W
LayerCount: 2
Fore
SplineSet
356 1248 m 2,0,1
 378 1248 378 1248 416 1236 c 1,2,-1
 444 1236 l 1,3,4
 464 1224 464 1224 464 1208 c 2,5,-1
 460 1184 l 1,6,7
 467 1184 467 1184 488 1120 c 1,8,9
 544 1063 544 1063 544 1048 c 2,10,-1
 544 1044 l 2,11,12
 544 1035 544 1035 540 1028 c 1,13,14
 556 1004 556 1004 556 960 c 2,15,-1
 556 920 l 2,16,17
 556 912 556 912 548 912 c 2,18,-1
 540 916 l 1,19,20
 504 906 504 906 504 896 c 1,21,-1
 536 896 l 1,22,23
 557 916 557 916 604 932 c 1,24,-1
 660 932 l 1,25,26
 678 920 678 920 688 920 c 1,27,28
 709 932 709 932 728 932 c 2,29,-1
 732 932 l 1,30,31
 783 908 783 908 820 908 c 1,32,33
 876 844 876 844 880 844 c 2,34,-1
 888 844 l 1,35,36
 892 874 892 874 896 884 c 1,37,-1
 892 892 l 1,38,39
 892 919 892 919 928 940 c 1,40,41
 953 1008 953 1008 984 1008 c 0,42,43
 1002 1008 1002 1008 1032 1048 c 1,44,45
 1041 1048 1041 1048 1072 1088 c 1,46,47
 1100 1088 1100 1088 1152 1148 c 1,48,49
 1158 1148 1158 1148 1168 1156 c 1,50,51
 1268 1136 1268 1136 1268 1088 c 2,52,-1
 1268 1032 l 2,53,54
 1268 1000 1268 1000 1224 976 c 1,55,56
 1224 960 1224 960 1160 928 c 1,57,58
 1043 792 1043 792 992 792 c 2,59,-1
 980 792 l 2,60,61
 954 792 954 792 932 808 c 1,62,-1
 916 808 l 1,63,-1
 912 788 l 1,64,65
 920 758 920 758 952 720 c 1,66,-1
 952 624 l 2,67,68
 952 615 952 615 956 608 c 1,69,70
 950 565 950 565 936 536 c 1,71,72
 936 486 936 486 880 448 c 0,73,74
 856 427 856 427 856 392 c 1,75,76
 882 376 882 376 908 372 c 1,77,78
 956 346 956 346 956 296 c 1,79,80
 979 276 979 276 1004 200 c 1,81,82
 1018 200 1018 200 1056 148 c 1,83,-1
 1056 144 l 2,84,85
 1056 135 1056 135 1052 128 c 1,86,87
 1068 94 1068 94 1068 84 c 2,88,-1
 1068 64 l 2,89,90
 1068 20 1068 20 1012 4 c 0,91,92
 997 0 997 0 976 0 c 2,93,-1
 948 0 l 2,94,95
 892 0 892 0 892 40 c 1,96,97
 861 78 861 78 840 140 c 1,98,99
 788 184 788 184 788 212 c 0,100,101
 788 236 788 236 752 264 c 1,102,103
 752 275 752 275 772 304 c 0,104,105
 776 311 776 311 776 324 c 2,106,-1
 776 332 l 1,107,-1
 772 372 l 1,108,109
 828 377 828 377 828 392 c 1,110,-1
 816 400 l 1,111,112
 796 400 796 400 748 364 c 1,113,114
 723 356 723 356 716 356 c 0,115,116
 645 360 645 360 596 360 c 0,117,118
 584 360 584 360 548 388 c 0,119,120
 535 396 535 396 524 396 c 2,121,-1
 512 396 l 1,122,123
 497 388 497 388 480 352 c 1,124,-1
 496 308 l 1,125,-1
 496 300 l 1,126,127
 442 241 442 241 404 236 c 1,128,129
 404 222 404 222 360 188 c 1,130,131
 360 177 360 177 288 136 c 1,132,133
 209 44 209 44 184 44 c 2,134,-1
 132 44 l 2,135,136
 92 44 92 44 44 104 c 1,137,138
 72 208 72 208 100 208 c 1,139,140
 148 223 148 223 148 248 c 1,141,142
 167 248 167 248 200 296 c 1,143,144
 229 296 229 296 328 404 c 0,145,146
 364 440 364 440 384 440 c 2,147,-1
 408 440 l 1,148,149
 439 420 439 420 452 420 c 2,150,-1
 456 420 l 2,151,152
 462 420 462 420 468 432 c 1,153,154
 396 491 396 491 396 516 c 2,155,-1
 396 544 l 1,156,157
 376 567 376 567 376 608 c 1,158,-1
 380 636 l 1,159,-1
 376 684 l 2,160,161
 376 720 376 720 396 744 c 1,162,-1
 396 784 l 1,163,164
 425 831 425 831 492 860 c 1,165,-1
 496 868 l 1,166,-1
 496 876 l 2,167,168
 496 887 496 887 440 892 c 1,169,170
 440 897 440 897 384 928 c 1,171,172
 343 1000 343 1000 332 1044 c 1,173,174
 320 1044 320 1044 284 1132 c 1,175,176
 276 1132 276 1132 276 1140 c 2,177,-1
 276 1168 l 1,178,179
 304 1248 304 1248 332 1248 c 2,180,-1
 356 1248 l 2,0,1
556 656 m 2,181,-1
 556 620 l 1,182,183
 621 536 621 536 652 536 c 2,184,-1
 688 536 l 1,185,186
 727 556 727 556 776 620 c 1,187,188
 752 670 752 670 752 680 c 0,189,190
 752 732 752 732 692 732 c 0,191,192
 688 732 688 732 680 728 c 1,193,-1
 656 732 l 1,194,-1
 628 732 l 1,195,196
 556 703 556 703 556 656 c 2,181,-1
80 688 m 2,197,-1
 232 688 l 1,198,-1
 244 680 l 1,199,-1
 288 680 l 2,200,201
 293 680 293 680 308 660 c 1,202,-1
 308 628 l 2,203,204
 308 624 308 624 304 624 c 2,205,-1
 308 616 l 1,206,-1
 308 612 l 2,207,208
 308 564 308 564 244 564 c 2,209,-1
 76 564 l 2,210,211
 67 564 67 564 60 560 c 1,212,213
 39 560 39 560 16 604 c 1,214,215
 0 611 0 611 0 632 c 1,216,217
 55 688 55 688 80 688 c 2,197,-1
1060 688 m 1,218,-1
 1232 688 l 2,219,220
 1302 688 1302 688 1332 616 c 1,221,222
 1317 613 1317 613 1288 564 c 1,223,224
 1280 564 1280 564 1280 560 c 2,225,-1
 1232 564 l 1,226,-1
 1068 564 l 2,227,228
 1059 564 1059 564 1052 560 c 1,229,230
 988 560 988 560 988 604 c 2,231,-1
 988 616 l 2,232,233
 988 637 988 637 1020 656 c 1,234,235
 1020 668 1020 668 1060 688 c 1,218,-1
EndSplineSet
EndChar

StartChar: plus
Encoding: 43 43 14
Width: 1014
Flags: W
LayerCount: 2
Fore
SplineSet
437 647 m 1,0,-1
 87 647 l 1,1,-1
 87 787 l 1,2,-1
 437 787 l 1,3,-1
 437 1156 l 1,4,-1
 438 1157 l 1,5,-1
 577 1157 l 1,6,-1
 577 787 l 1,7,-1
 926 787 l 1,8,-1
 927 786 l 1,9,-1
 927 647 l 1,10,-1
 577 647 l 1,11,-1
 577 277 l 1,12,-1
 437 277 l 1,13,-1
 437 647 l 1,0,-1
EndSplineSet
EndChar

StartChar: comma
Encoding: 44 44 15
Width: 515
Flags: W
LayerCount: 2
Fore
SplineSet
52 179 m 2,0,-1
 57 193 l 2,1,2
 69 226 69 226 118 221 c 1,3,-1
 257 171 l 2,4,5
 281 162 281 162 300 139 c 1,6,-1
 306 140 l 1,7,8
 361 98 361 98 361 86 c 1,9,10
 396 35 396 35 391 19 c 2,11,-1
 361 -61 l 1,12,13
 334 -88 334 -88 325 -115 c 1,14,15
 300 -115 300 -115 280 -136 c 0,16,17
 247 -166 247 -166 244 -165 c 0,18,19
 222 -162 222 -162 181 -173 c 1,20,-1
 52 -126 l 2,21,22
 24 -116 24 -116 1 -53 c 1,23,-1
 4 -39 l 1,24,-1
 5 -37 l 2,25,26
 12 -17 12 -17 60 -2 c 1,27,28
 91 -26 91 -26 97 -28 c 2,29,-1
 161 -52 l 2,30,31
 183 -60 183 -60 204 -60 c 1,32,-1
 211 -42 l 1,33,34
 242 -8 242 -8 258 0 c 1,35,-1
 260 5 l 2,36,37
 271 35 271 35 218 62 c 1,38,39
 218 69 218 69 199 76 c 2,40,-1
 135 99 l 1,41,42
 105 100 105 100 100 101 c 0,43,44
 64 130 64 130 58 140 c 0,45,46
 45 162 45 162 52 179 c 2,0,-1
EndSplineSet
EndChar

StartChar: hyphen
Encoding: 173 45 16
AltUni2: 0000ad.ffffffff.0
Width: 670
Flags: W
LayerCount: 2
Fore
SplineSet
156 409 m 2,0,1
 116 409 116 409 116 437 c 2,2,-1
 116 520 l 2,3,4
 116 549 116 549 157 549 c 2,5,-1
 513 549 l 2,6,7
 554 549 554 549 554 520 c 2,8,-1
 554 437 l 2,9,10
 554 409 554 409 514 409 c 2,11,-1
 156 409 l 2,0,1
EndSplineSet
EndChar

StartChar: period
Encoding: 46 46 17
Width: 627
Flags: W
LayerCount: 2
Fore
SplineSet
296 62 m 1,0,-1
 259 75 l 1,1,2
 229 76 229 76 224 77 c 0,3,4
 203 94 203 94 193 104 c 1,5,-1
 187 95 l 1,6,7
 150 67 150 67 133 62 c 1,8,-1
 130 57 l 2,9,10
 114 29 114 29 162 -6 c 1,11,12
 161 -13 161 -13 178 -24 c 2,13,-1
 182 -26 l 1,14,-1
 184 -26 l 2,15,16
 187 -29 187 -29 190 -31 c 2,17,-1
 237 -57 l 1,18,19
 266 -63 266 -63 271 -65 c 0,20,21
 275 -69 275 -69 278 -74 c 2,22,-1
 285 -76 l 2,23,24
 307 -84 307 -84 328 -84 c 1,25,-1
 335 -66 l 1,26,27
 366 -32 366 -32 382 -24 c 1,28,-1
 384 -19 l 2,29,30
 394 8 394 8 351 33 c 1,31,32
 341 31 341 31 328 29 c 1,33,34
 302 58 302 58 297 61 c 2,35,-1
 296 62 l 1,0,-1
334 164 m 1,36,-1
 381 147 l 2,37,38
 405 138 405 138 424 115 c 1,39,-1
 430 116 l 1,40,41
 485 74 485 74 485 62 c 1,42,43
 520 11 520 11 515 -5 c 2,44,-1
 485 -85 l 1,45,46
 458 -112 458 -112 449 -139 c 1,47,48
 424 -139 424 -139 404 -160 c 0,49,50
 371 -190 371 -190 368 -189 c 0,51,52
 346 -186 346 -186 305 -197 c 1,53,-1
 268 -184 l 1,54,55
 253 -186 253 -186 233 -180 c 1,56,-1
 187 -154 l 1,57,-1
 176 -150 l 2,58,59
 167 -147 167 -147 158 -138 c 2,60,-1
 104 -107 l 2,61,62
 82 -94 82 -94 68 -68 c 1,63,-1
 62 -68 l 1,64,65
 15 -17 15 -17 17 -5 c 1,66,67
 -9 51 -9 51 -1 66 c 2,68,-1
 42 140 l 1,69,70
 74 161 74 161 87 186 c 1,71,72
 112 182 112 182 135 199 c 0,73,74
 173 223 173 223 176 222 c 0,75,76
 197 215 197 215 239 219 c 1,77,-1
 334 164 l 1,36,-1
EndSplineSet
EndChar

StartChar: slash
Encoding: 47 47 18
Width: 569
Flags: W
LayerCount: 2
Fore
SplineSet
93 -50 m 1,0,-1
 13 -50 l 1,1,-1
 554 1434 l 1,2,-1
 634 1434 l 1,3,-1
 93 -50 l 1,0,-1
EndSplineSet
EndChar

StartChar: zero
Encoding: 48 48 19
Width: 799
Flags: W
LayerCount: 2
Fore
SplineSet
123 634 m 2,0,-1
 123 495 l 2,1,2
 123 454 123 454 205 419 c 1,3,4
 255 369 255 369 329 369 c 1,5,6
 542 432 542 432 542 514 c 1,7,8
 561 514 561 514 569 602 c 1,9,-1
 569 684 l 2,10,11
 569 727 569 727 446 791 c 0,12,13
 418 804 418 804 370 804 c 2,14,-1
 226 804 l 1,15,16
 130 758 130 758 130 659 c 1,17,18
 123 659 123 659 123 634 c 2,0,-1
226 911 m 2,19,-1
 370 911 l 2,20,21
 538 911 538 911 672 747 c 1,22,23
 686 722 686 722 686 678 c 2,24,-1
 686 621 l 2,25,26
 686 350 686 350 370 268 c 1,27,-1
 315 249 l 1,28,29
 6 350 6 350 6 501 c 2,30,-1
 6 653 l 1,31,32
 59 911 59 911 226 911 c 2,19,-1
EndSplineSet
EndChar

StartChar: one
Encoding: 49 49 20
Width: 657
Flags: W
LayerCount: 2
Fore
SplineSet
173 1089 m 2,0,-1
 244 1089 l 1,1,2
 411 1055 411 1055 453 997 c 1,3,4
 550 929 550 929 550 921 c 2,5,-1
 550 901 l 1,6,7
 545 860 545 860 509 860 c 0,8,9
 485 860 485 860 361 962 c 1,10,11
 285 1002 285 1002 229 1002 c 2,12,-1
 163 1002 l 2,13,14
 110 1002 110 1002 92 947 c 0,15,16
 87 938 87 938 87 926 c 2,17,-1
 87 906 l 2,18,19
 87 794 87 794 163 794 c 0,20,21
 392 794 392 794 473 840 c 1,22,-1
 489 840 l 2,23,24
 529 840 529 840 529 794 c 1,25,26
 473 596 473 596 473 504 c 2,27,-1
 473 305 l 2,28,29
 473 188 473 188 514 56 c 1,30,-1
 514 46 l 2,31,32
 514 5 514 5 463 0 c 0,33,34
 431 0 431 0 417 102 c 1,35,36
 392 102 392 102 387 316 c 1,37,-1
 387 524 l 2,38,39
 387 586 387 586 422 723 c 1,40,-1
 422 733 l 1,41,42
 381 707 381 707 148 707 c 0,43,44
 53 707 53 707 5 840 c 1,45,46
 0 892 0 892 0 921 c 2,47,-1
 0 936 l 1,48,49
 7 1002 7 1002 71 1064 c 1,50,51
 120 1089 120 1089 173 1089 c 2,0,-1
EndSplineSet
EndChar

StartChar: two
Encoding: 50 50 21
Width: 1014
Flags: W
LayerCount: 2
Fore
SplineSet
139 1083 m 1,0,-1
 194 1083 l 1,1,-1
 436 1047 l 1,2,-1
 502 1047 l 2,3,4
 552 1047 552 1047 744 1022 c 1,5,-1
 811 1022 l 1,6,7
 865 1015 865 1015 865 968 c 1,8,9
 793 824 793 824 666 684 c 1,10,11
 666 674 666 674 466 442 c 1,12,13
 430 374 430 374 175 157 c 1,14,-1
 169 157 l 1,15,-1
 169 151 l 1,16,17
 407 103 407 103 436 103 c 2,18,-1
 841 103 l 2,19,20
 889 103 889 103 895 42 c 1,21,22
 878 0 878 0 841 0 c 2,23,-1
 442 0 l 2,24,25
 413 0 413 0 85 61 c 1,26,27
 0 82 0 82 0 127 c 2,28,-1
 0 151 l 1,29,30
 9 171 9 171 151 266 c 1,31,32
 231 346 231 346 345 448 c 1,33,34
 480 629 480 629 575 726 c 1,35,36
 584 745 584 745 702 889 c 1,37,38
 702 900 702 900 720 920 c 1,39,40
 599 942 599 942 381 950 c 1,41,-1
 188 980 l 1,42,-1
 127 980 l 1,43,44
 73 988 73 988 73 1035 c 0,45,46
 73 1077 73 1077 139 1083 c 1,0,-1
EndSplineSet
EndChar

StartChar: three
Encoding: 51 51 22
Width: 1014
Flags: W
LayerCount: 2
Fore
SplineSet
138 1071 m 1,0,-1
 191 1071 l 1,1,-1
 431 1035 l 1,2,-1
 497 1035 l 2,3,4
 546 1035 546 1035 736 1011 c 1,5,-1
 802 1011 l 1,6,7
 856 1003 856 1003 856 957 c 1,8,9
 796 827 796 827 556 550 c 1,10,11
 556 536 556 536 796 509 c 0,12,13
 921 491 921 491 921 443 c 1,14,15
 912 389 912 389 868 389 c 1,16,-1
 485 455 l 2,17,18
 474 455 474 455 401 359 c 1,19,20
 181 156 181 156 168 156 c 1,21,-1
 168 150 l 1,22,23
 402 102 402 102 431 102 c 2,24,-1
 832 102 l 2,25,26
 880 102 880 102 886 42 c 1,27,28
 868 0 868 0 832 0 c 2,29,-1
 437 0 l 2,30,31
 408 0 408 0 84 60 c 1,32,33
 0 81 0 81 0 126 c 2,34,-1
 0 150 l 2,35,36
 2 158 2 158 168 281 c 1,37,-1
 341 443 l 1,38,-1
 359 467 l 1,39,-1
 359 473 l 1,40,41
 78 509 78 509 78 527 c 1,42,43
 60 533 60 533 60 562 c 0,44,45
 60 601 60 601 114 610 c 1,46,-1
 150 610 l 1,47,48
 200 592 200 592 437 568 c 1,49,50
 502 640 502 640 646 820 c 1,51,52
 671 842 671 842 712 909 c 1,53,54
 593 932 593 932 377 939 c 1,55,-1
 185 969 l 1,56,-1
 126 969 l 1,57,58
 72 977 72 977 72 1023 c 0,59,60
 72 1065 72 1065 138 1071 c 1,0,-1
EndSplineSet
EndChar

StartChar: four
Encoding: 52 52 23
Width: 1219
Flags: W
LayerCount: 2
Fore
SplineSet
244 1077 m 1,0,1
 470 1053 470 1053 494 1053 c 1,2,3
 494 1065 494 1065 530 1071 c 1,4,-1
 565 1053 l 1,5,-1
 583 1053 l 1,6,7
 844 1041 844 1041 869 1041 c 2,8,-1
 904 1041 l 1,9,10
 970 1035 970 1035 970 994 c 0,11,12
 970 944 970 944 904 940 c 1,13,-1
 869 940 l 1,14,15
 608 952 608 952 583 952 c 2,16,-1
 577 952 l 1,17,18
 571 882 571 882 571 851 c 2,19,-1
 571 797 l 1,20,-1
 1071 797 l 1,21,22
 1125 788 1125 788 1125 750 c 1,23,24
 1117 696 1117 696 1071 696 c 2,25,-1
 571 696 l 1,26,-1
 571 184 l 2,27,28
 571 0 571 0 512 0 c 2,29,-1
 506 0 l 2,30,31
 478 0 478 0 458 42 c 1,32,33
 470 116 470 116 470 167 c 2,34,-1
 470 696 l 1,35,-1
 65 696 l 2,36,37
 0 696 0 696 0 750 c 0,38,39
 0 788 0 788 54 797 c 1,40,-1
 470 797 l 1,41,-1
 470 851 l 2,42,43
 470 882 470 882 476 952 c 1,44,-1
 464 958 l 1,45,-1
 405 958 l 1,46,47
 224 978 224 978 196 988 c 1,48,49
 179 1014 179 1014 179 1029 c 0,50,51
 179 1071 179 1071 244 1077 c 1,0,1
EndSplineSet
EndChar

StartChar: five
Encoding: 53 53 24
Width: 976
Flags: W
LayerCount: 2
Fore
SplineSet
117 1089 m 2,0,-1
 122 1089 l 2,1,2
 153 1089 153 1089 167 1056 c 1,3,-1
 117 783 l 1,4,5
 111 783 111 783 111 778 c 1,6,7
 151 761 151 761 250 761 c 2,8,-1
 400 761 l 1,9,-1
 400 878 l 1,10,11
 407 928 407 928 450 928 c 0,12,13
 486 928 486 928 494 878 c 1,14,-1
 494 761 l 1,15,-1
 778 761 l 1,16,17
 733 907 733 907 711 1022 c 1,18,19
 706 1022 706 1022 706 1039 c 0,20,21
 706 1075 706 1075 756 1083 c 1,22,23
 814 1083 814 1083 839 867 c 1,24,25
 856 867 856 867 872 745 c 1,26,-1
 872 739 l 1,27,28
 867 667 867 667 800 667 c 2,29,-1
 494 667 l 1,30,31
 489 556 489 556 489 500 c 2,32,-1
 489 128 l 2,33,34
 489 0 489 0 439 0 c 0,35,36
 413 0 413 0 389 33 c 1,37,38
 394 89 394 89 394 117 c 2,39,-1
 394 517 l 2,40,41
 394 564 394 564 400 667 c 1,42,-1
 244 667 l 1,43,44
 0 677 0 677 0 722 c 2,45,-1
 0 733 l 1,46,47
 35 821 35 821 61 1011 c 1,48,49
 77 1089 77 1089 117 1089 c 2,0,-1
EndSplineSet
EndChar

StartChar: six
Encoding: 54 54 25
Width: 882
Flags: W
LayerCount: 2
Fore
SplineSet
151 1101 m 1,0,1
 196 1088 196 1088 196 1056 c 0,2,3
 196 1039 196 1039 95 827 c 1,4,-1
 95 732 l 2,5,6
 95 537 95 537 129 537 c 0,7,8
 137 537 137 537 151 525 c 1,9,-1
 173 525 l 2,10,11
 392 525 392 525 458 604 c 1,12,13
 520 632 520 632 553 754 c 1,14,15
 659 989 659 989 710 989 c 2,16,-1
 715 989 l 1,17,18
 741 980 741 980 754 956 c 1,19,-1
 754 950 l 2,20,21
 754 922 754 922 654 754 c 1,22,23
 570 524 570 524 570 453 c 2,24,-1
 570 386 l 1,25,26
 590 203 590 203 637 134 c 1,27,28
 671 52 671 52 671 39 c 1,29,30
 656 0 656 0 615 0 c 256,31,32
 574 0 574 0 503 218 c 1,33,34
 475 350 475 350 475 386 c 2,35,-1
 475 492 l 1,36,-1
 469 492 l 1,37,38
 378 430 378 430 173 430 c 1,39,40
 6 448 6 448 6 587 c 1,41,42
 0 681 0 681 0 732 c 2,43,-1
 0 816 l 2,44,45
 0 875 0 875 89 1034 c 1,46,47
 106 1101 106 1101 151 1101 c 1,0,1
EndSplineSet
EndChar

StartChar: seven
Encoding: 55 55 26
Width: 1107
Flags: W
LayerCount: 2
Fore
SplineSet
48 1089 m 0,0,1
 383 1083 383 1083 584 1083 c 2,2,-1
 735 1083 l 1,3,4
 823 1071 823 1071 831 1071 c 2,5,-1
 958 1071 l 2,6,7
 988 1071 988 1071 1012 1035 c 1,8,-1
 1006 964 l 1,9,-1
 1006 244 l 2,10,11
 1006 50 1006 50 958 0 c 1,12,-1
 922 0 l 1,13,14
 886 21 886 21 886 54 c 2,15,-1
 886 71 l 1,16,17
 904 184 904 184 904 232 c 2,18,-1
 904 970 l 1,19,-1
 807 970 l 2,20,21
 800 970 800 970 741 982 c 1,22,-1
 566 982 l 2,23,24
 371 982 371 982 48 988 c 1,25,26
 0 1003 0 1003 0 1035 c 1,27,28
 11 1089 11 1089 48 1089 c 0,0,1
EndSplineSet
EndChar

StartChar: eight
Encoding: 56 56 27
Width: 1142
Flags: W
LayerCount: 2
Fore
SplineSet
987 1101 m 1,0,1
 1041 1093 1041 1093 1041 1047 c 2,2,-1
 1041 702 l 2,3,4
 1041 0 1041 0 975 0 c 2,5,-1
 957 0 l 2,6,7
 909 0 909 0 909 60 c 2,8,-1
 909 73 l 2,9,10
 909 97 909 97 921 151 c 1,11,12
 909 171 909 171 909 181 c 0,13,14
 939 450 939 450 939 696 c 2,15,-1
 939 938 l 1,16,17
 719 751 719 751 616 684 c 1,18,19
 533 581 533 581 473 581 c 1,20,21
 444 588 444 588 425 623 c 1,22,23
 431 705 431 705 431 744 c 2,24,-1
 431 871 l 1,25,26
 443 977 443 977 443 980 c 2,27,-1
 54 980 l 2,28,29
 6 980 6 980 0 1041 c 1,30,31
 18 1083 18 1083 54 1083 c 2,32,-1
 467 1083 l 1,33,34
 544 1077 544 1077 544 1004 c 2,35,-1
 544 956 l 1,36,37
 532 897 532 897 532 889 c 2,38,-1
 532 750 l 1,39,40
 661 838 661 838 754 913 c 1,41,42
 954 1101 954 1101 987 1101 c 1,0,1
EndSplineSet
EndChar

StartChar: nine
Encoding: 57 57 28
Width: 953
Flags: W
LayerCount: 2
Fore
SplineSet
41 1089 m 1,0,1
 157 1083 157 1083 215 1083 c 2,2,-1
 812 1083 l 1,3,4
 864 1074 864 1074 864 1035 c 0,5,6
 858 745 858 745 858 583 c 2,7,-1
 858 524 l 2,8,9
 858 458 858 458 777 458 c 2,10,-1
 707 458 l 1,11,12
 577 446 577 446 568 446 c 2,13,-1
 162 446 l 1,14,-1
 162 184 l 2,15,16
 162 6 162 6 128 6 c 0,17,18
 115 6 115 6 104 0 c 1,19,20
 78 6 78 6 58 36 c 1,21,22
 64 134 64 134 64 184 c 2,23,-1
 64 399 l 2,24,25
 64 433 64 433 58 494 c 1,26,27
 72 559 72 559 110 559 c 2,28,-1
 145 559 l 1,29,-1
 162 547 l 1,30,-1
 557 547 l 2,31,32
 572 547 572 547 713 559 c 1,33,-1
 760 559 l 1,34,-1
 760 672 l 2,35,36
 760 767 760 767 765 982 c 1,37,-1
 226 982 l 2,38,39
 6 982 6 982 6 1018 c 1,40,41
 0 1029 0 1029 0 1035 c 0,42,43
 0 1070 0 1070 41 1089 c 1,0,1
EndSplineSet
EndChar

StartChar: colon
Encoding: 58 58 29
Width: 302
Flags: W
LayerCount: 2
Fore
SplineSet
100 768 m 1,0,1
 176 738 176 738 176 704 c 2,2,-1
 176 580 l 1,3,4
 172 532 172 532 136 532 c 1,5,6
 136 521 136 521 96 516 c 1,7,-1
 76 516 l 1,8,9
 4 533 4 533 4 580 c 1,10,11
 0 603 0 603 0 644 c 0,12,13
 0 748 0 748 44 748 c 1,14,15
 44 760 44 760 100 768 c 1,0,1
72 308 m 2,16,-1
 112 308 l 1,17,18
 176 290 176 290 176 240 c 0,19,20
 176 232 176 232 180 232 c 2,21,-1
 176 212 l 1,22,-1
 176 60 l 2,23,24
 176 28 176 28 132 12 c 0,25,26
 132 8 132 8 116 0 c 1,27,-1
 64 0 l 1,28,29
 4 31 4 31 4 60 c 0,30,31
 0 98 0 98 0 136 c 2,32,-1
 0 176 l 2,33,34
 0 308 0 308 72 308 c 2,16,-1
EndSplineSet
EndChar

StartChar: semicolon
Encoding: 894 59 30
AltUni2: 00037e.ffffffff.0
Width: 557
Flags: W
LayerCount: 2
Fore
SplineSet
145 859 m 2,0,-1
 227 943 l 2,1,2
 242 957 242 957 256 957 c 0,3,4
 269 957 269 957 287 941 c 2,5,-1
 367 855 l 2,6,7
 379 839 379 839 379 826 c 0,8,9
 379 811 379 811 365 795 c 2,10,-1
 285 707 l 2,11,12
 265 687 265 687 256 687 c 0,13,14
 240 687 240 687 227 701 c 2,15,-1
 139 802 l 2,16,17
 129 815 129 815 129 828 c 0,18,19
 129 843 129 843 145 859 c 2,0,-1
238 258 m 1,20,21
 282 258 282 258 326.5 192.5 c 128,-1,22
 371 127 371 127 371 41 c 0,23,24
 371 -68 371 -68 300 -185.5 c 128,-1,25
 229 -303 229 -303 161 -303 c 1,26,-1
 161 -260 l 1,27,28
 234 -217 234 -217 248 -70 c 1,29,30
 248 49 248 49 119 91 c 1,31,-1
 119 133 l 1,32,-1
 238 258 l 1,20,21
EndSplineSet
EndChar

StartChar: less
Encoding: 60 60 31
Width: 1014
Flags: W
LayerCount: 2
Fore
SplineSet
927 1074 m 1,0,-1
 302 715 l 1,1,-1
 927 360 l 1,2,-1
 927 193 l 1,3,-1
 87 674 l 1,4,-1
 87 757 l 1,5,-1
 927 1241 l 1,6,-1
 927 1074 l 1,0,-1
EndSplineSet
EndChar

StartChar: equal
Encoding: 61 61 32
Width: 1014
Flags: W
LayerCount: 2
Fore
SplineSet
87 631 m 1,0,-1
 927 631 l 1,1,-1
 927 491 l 1,2,-1
 87 491 l 1,3,-1
 87 631 l 1,0,-1
87 943 m 1,4,-1
 927 943 l 1,5,-1
 927 803 l 1,6,-1
 87 803 l 1,7,-1
 87 943 l 1,4,-1
EndSplineSet
EndChar

StartChar: greater
Encoding: 62 62 33
Width: 1014
Flags: W
LayerCount: 2
Fore
SplineSet
87 1241 m 1,0,-1
 927 757 l 1,1,-1
 927 674 l 1,2,-1
 87 193 l 1,3,-1
 87 360 l 1,4,-1
 712 715 l 1,5,-1
 87 1074 l 1,6,-1
 87 1241 l 1,0,-1
EndSplineSet
EndChar

StartChar: question
Encoding: 63 63 34
Width: 905
Flags: W
LayerCount: 2
Fore
SplineSet
733 1459 m 1,0,-1
 747 1459 l 1,1,2
 793 1411 793 1411 793 1367 c 2,3,-1
 793 1363 l 1,4,5
 785 1332 785 1332 782 1267 c 1,6,7
 771 1260 771 1260 763 1183 c 1,8,9
 757 1183 757 1183 752 1115 c 1,10,11
 743 1115 743 1115 730 1047 c 1,12,13
 720 1047 720 1047 711 959 c 1,14,15
 681 883 681 883 681 875 c 0,16,17
 681 865 681 865 660 815 c 1,18,19
 660 797 660 797 630 731 c 1,20,21
 630 695 630 695 594 655 c 0,22,23
 583 637 583 637 570 579 c 1,24,25
 561 579 561 579 542 507 c 1,26,27
 513 473 513 473 488 379 c 1,28,29
 477 379 477 379 464 299 c 1,30,31
 450 299 450 299 434 219 c 1,32,33
 423 214 423 214 393 83 c 1,34,35
 360 -3 360 -3 346 -5 c 2,36,-1
 325 -5 l 2,37,38
 283 -5 283 -5 265 51 c 0,39,40
 262 51 262 51 262 55 c 2,41,-1
 262 63 l 2,42,43
 262 92 262 92 287 171 c 1,44,45
 300 275 300 275 316 275 c 1,46,47
 327 337 327 337 349 375 c 1,48,49
 349 384 349 384 368 455 c 0,50,51
 376 490 376 490 398 511 c 1,52,53
 398 518 398 518 409 571 c 1,54,55
 401 575 401 575 401 579 c 2,56,-1
 360 563 l 1,57,58
 355 567 355 567 352 567 c 0,59,60
 336 547 336 547 316 547 c 0,61,62
 312 547 312 547 287 555 c 1,63,64
 251 547 251 547 251 543 c 2,65,-1
 238 547 l 1,66,-1
 208 547 l 2,67,68
 198 547 198 547 159 575 c 1,69,70
 129 589 129 589 99 643 c 1,71,72
 82 643 82 643 77 751 c 1,73,-1
 63 771 l 1,74,-1
 63 843 l 1,75,76
 55 881 55 881 55 891 c 2,77,-1
 55 951 l 1,78,-1
 36 1191 l 1,79,80
 36 1313 36 1313 80 1347 c 1,81,-1
 99 1343 l 1,82,-1
 126 1343 l 1,83,84
 164 1304 164 1304 164 1275 c 2,85,-1
 164 1183 l 1,86,-1
 161 1175 l 1,87,88
 175 1164 175 1164 175 1119 c 2,89,-1
 175 979 l 1,90,91
 191 851 191 851 191 831 c 2,92,-1
 191 811 l 1,93,-1
 213 743 l 1,94,95
 238 735 238 735 248 735 c 2,96,-1
 308 735 l 1,97,98
 360 747 360 747 395 763 c 2,99,-1
 485 807 l 1,100,101
 512 838 512 838 529 855 c 1,102,103
 550 887 550 887 591 1039 c 1,104,105
 607 1039 607 1039 624 1167 c 1,106,107
 641 1167 641 1167 660 1355 c 1,108,109
 667 1355 667 1355 679 1431 c 0,110,111
 679 1447 679 1447 733 1459 c 1,0,-1
EndSplineSet
EndChar

StartChar: at
Encoding: 64 64 35
Width: 2077
Flags: W
LayerCount: 2
Fore
SplineSet
591 1272 m 1,0,-1
 613 1272 l 2,1,2
 620 1272 620 1272 627 1238 c 1,3,-1
 627 1215 l 2,4,5
 627 1198 627 1198 613 1180 c 1,6,-1
 591 1180 l 2,7,8
 584 1180 584 1180 574 1226 c 0,9,10
 574 1244 574 1244 591 1272 c 1,0,-1
1761 1272 m 2,11,-1
 1787 1272 l 2,12,13
 1844 1272 1844 1272 1844 1146 c 2,14,-1
 1844 1123 l 2,15,16
 1844 1038 1844 1038 1756 905 c 1,17,18
 1743 861 1743 861 1743 837 c 1,19,-1
 1805 837 l 2,20,21
 1810 837 1810 837 1827 917 c 1,22,-1
 1836 917 l 1,23,24
 1844 913 1844 913 1844 894 c 2,25,-1
 1844 791 l 2,26,27
 1844 768 1844 768 1836 768 c 2,28,-1
 1712 768 l 2,29,30
 1703 768 1703 768 1703 802 c 0,31,32
 1703 949 1703 949 1796 1089 c 1,33,-1
 1800 1146 l 1,34,-1
 1800 1157 l 2,35,36
 1800 1175 1800 1175 1783 1203 c 1,37,-1
 1769 1203 l 2,38,39
 1751 1203 1751 1203 1730 1123 c 1,40,-1
 1716 1123 l 2,41,42
 1708 1123 1708 1123 1708 1146 c 2,43,-1
 1708 1215 l 1,44,45
 1726 1272 1726 1272 1761 1272 c 2,11,-1
9 1261 m 2,46,-1
 57 1261 l 1,47,48
 66 1257 66 1257 66 1238 c 2,49,-1
 66 1077 l 1,50,51
 83 1112 83 1112 106 1112 c 2,52,-1
 119 1112 l 2,53,54
 169 1112 169 1112 176 951 c 1,55,-1
 176 917 l 2,56,57
 176 756 176 756 115 756 c 2,58,-1
 101 756 l 2,59,60
 86 756 86 756 66 802 c 1,61,62
 66 768 66 768 57 768 c 2,63,-1
 9 768 l 2,64,65
 0 768 0 768 0 791 c 2,66,-1
 0 802 l 1,67,-1
 18 848 l 1,68,-1
 18 1192 l 1,69,70
 0 1192 0 1192 0 1215 c 2,71,-1
 0 1238 l 2,72,73
 1 1261 1 1261 9 1261 c 2,46,-1
1950 1261 m 1,74,-1
 1972 1261 l 1,75,76
 1981 1257 1981 1257 1981 1238 c 2,77,-1
 1981 859 l 1,78,-1
 2012 814 l 1,79,-1
 2012 791 l 2,80,81
 2012 768 2012 768 2003 768 c 2,82,-1
 1919 768 l 2,83,84
 1911 768 1911 768 1911 791 c 2,85,-1
 1911 814 l 1,86,-1
 1941 859 l 1,87,-1
 1941 1146 l 1,88,-1
 1911 1123 l 1,89,-1
 1906 1146 l 1,90,-1
 1906 1180 l 2,91,92
 1906 1190 1906 1190 1950 1261 c 1,74,-1
1174 1215 m 1,93,-1
 1178 1192 l 1,94,-1
 1178 1112 l 1,95,-1
 1205 1112 l 1,96,97
 1213 1108 1213 1108 1213 1089 c 2,98,-1
 1213 1077 l 2,99,100
 1213 1054 1213 1054 1205 1054 c 2,101,-1
 1178 1054 l 1,102,-1
 1178 905 l 2,103,104
 1178 894 1178 894 1174 894 c 1,105,106
 1179 825 1179 825 1187 825 c 1,107,-1
 1209 871 l 1,108,-1
 1213 848 l 1,109,110
 1213 756 1213 756 1178 756 c 2,111,-1
 1156 756 l 1,112,113
 1130 796 1130 796 1130 859 c 2,114,-1
 1130 1054 l 1,115,116
 1107 1054 1107 1054 1107 1077 c 2,117,-1
 1107 1089 l 2,118,119
 1107 1112 1107 1112 1134 1112 c 1,120,-1
 1134 1169 l 1,121,122
 1140 1215 1140 1215 1174 1215 c 1,93,-1
269 1123 m 2,123,-1
 291 1123 l 1,124,125
 353 1094 353 1094 353 940 c 1,126,-1
 344 928 l 1,127,-1
 247 928 l 1,128,-1
 247 917 l 2,129,130
 247 814 247 814 287 814 c 0,131,132
 304 814 304 814 318 871 c 1,133,-1
 349 848 l 1,134,135
 334 756 334 756 291 756 c 2,136,-1
 269 756 l 1,137,138
 199 785 199 785 199 928 c 1,139,140
 206 1123 206 1123 269 1123 c 2,123,-1
821 1123 m 2,141,-1
 838 1123 l 2,142,143
 896 1123 896 1123 896 951 c 2,144,-1
 896 837 l 1,145,146
 913 837 913 837 913 814 c 2,147,-1
 913 791 l 2,148,149
 913 768 913 768 905 768 c 2,150,-1
 860 768 l 2,151,152
 852 768 852 768 852 802 c 1,153,154
 828 756 828 756 803 756 c 2,155,-1
 790 756 l 2,156,157
 766 756 766 756 750 825 c 1,158,-1
 750 871 l 2,159,160
 750 974 750 974 803 974 c 2,161,-1
 838 974 l 1,162,-1
 847 963 l 1,163,-1
 847 1020 l 1,164,165
 840 1066 840 1066 816 1066 c 0,166,167
 804 1066 804 1066 781 1008 c 1,168,-1
 772 1008 l 2,169,170
 763 1008 763 1008 763 1031 c 2,171,-1
 763 1089 l 2,172,173
 763 1123 763 1123 821 1123 c 2,141,-1
1293 1123 m 2,174,-1
 1306 1123 l 2,175,176
 1390 1123 1390 1123 1390 940 c 0,177,178
 1390 756 1390 756 1306 756 c 2,179,-1
 1297 756 l 1,180,181
 1227 782 1227 782 1227 940 c 1,182,183
 1241 1123 1241 1123 1293 1123 c 2,174,-1
375 1112 m 2,184,-1
 424 1112 l 2,185,186
 432 1112 432 1112 432 1077 c 1,187,-1
 437 1077 l 1,188,189
 454 1112 454 1112 477 1112 c 2,190,-1
 494 1112 l 2,191,192
 534 1112 534 1112 534 974 c 2,193,-1
 534 848 l 1,194,-1
 552 802 l 1,195,-1
 552 791 l 2,196,197
 552 768 552 768 543 768 c 2,198,-1
 477 768 l 2,199,200
 468 768 468 768 468 791 c 2,201,-1
 468 802 l 2,202,203
 468 825 468 825 485 825 c 1,204,-1
 485 997 l 1,205,206
 476 1043 476 1043 463 1043 c 0,207,208
 432 1043 432 1043 432 963 c 2,209,-1
 432 848 l 1,210,-1
 454 802 l 1,211,-1
 454 791 l 2,212,213
 454 768 454 768 446 768 c 2,214,-1
 375 768 l 2,215,216
 366 768 366 768 366 791 c 2,217,-1
 366 802 l 1,218,-1
 388 859 l 1,219,-1
 388 1020 l 1,220,-1
 366 1066 l 1,221,-1
 366 1089 l 2,222,223
 368 1112 368 1112 375 1112 c 2,184,-1
574 1112 m 2,224,-1
 618 1112 l 1,225,226
 627 1108 627 1108 627 1089 c 2,227,-1
 627 837 l 1,228,229
 644 831 644 831 644 802 c 2,230,-1
 644 791 l 2,231,232
 644 768 644 768 635 768 c 2,233,-1
 574 768 l 2,234,235
 565 768 565 768 565 791 c 2,236,-1
 565 802 l 1,237,238
 582 842 582 842 582 882 c 2,239,-1
 582 1020 l 1,240,-1
 565 1066 l 1,241,-1
 565 1089 l 2,242,243
 566 1112 566 1112 574 1112 c 2,224,-1
927 1112 m 2,244,-1
 975 1112 l 2,245,246
 984 1112 984 1112 984 1066 c 1,247,248
 1003 1112 1003 1112 1019 1112 c 2,249,-1
 1037 1112 l 2,250,251
 1085 1112 1085 1112 1085 940 c 2,252,-1
 1085 825 l 1,253,254
 1103 825 1103 825 1103 802 c 2,255,-1
 1103 791 l 2,256,257
 1103 768 1103 768 1094 768 c 2,258,-1
 1028 768 l 2,259,260
 1019 768 1019 768 1019 791 c 2,261,-1
 1019 802 l 2,262,263
 1019 825 1019 825 1037 825 c 1,264,-1
 1037 997 l 2,265,266
 1037 1015 1037 1015 1019 1043 c 1,267,268
 984 1043 984 1043 984 963 c 2,269,-1
 984 848 l 1,270,-1
 1006 802 l 1,271,-1
 1006 791 l 2,272,273
 1006 768 1006 768 997 768 c 2,274,-1
 927 768 l 2,275,276
 918 768 918 768 918 791 c 2,277,-1
 918 802 l 1,278,-1
 940 859 l 1,279,-1
 940 1020 l 1,280,-1
 918 1066 l 1,281,-1
 918 1089 l 2,282,283
 919 1112 919 1112 927 1112 c 2,244,-1
1412 1112 m 2,284,-1
 1460 1112 l 2,285,286
 1469 1112 1469 1112 1469 1077 c 1,287,-1
 1474 1077 l 1,288,289
 1490 1112 1490 1112 1505 1112 c 2,290,-1
 1531 1112 l 2,291,292
 1571 1112 1571 1112 1571 940 c 2,293,-1
 1571 848 l 1,294,-1
 1588 802 l 1,295,-1
 1588 791 l 2,296,297
 1588 768 1588 768 1580 768 c 2,298,-1
 1513 768 l 2,299,300
 1505 768 1505 768 1505 791 c 2,301,-1
 1505 802 l 1,302,-1
 1522 848 l 1,303,-1
 1522 974 l 2,304,305
 1522 1043 1522 1043 1496 1043 c 1,306,307
 1469 1025 1469 1025 1469 963 c 2,308,-1
 1469 848 l 1,309,-1
 1491 802 l 1,310,-1
 1491 791 l 2,311,312
 1491 768 1491 768 1483 768 c 2,313,-1
 1412 768 l 2,314,315
 1403 768 1403 768 1403 791 c 2,316,-1
 1403 802 l 1,317,-1
 1425 859 l 1,318,-1
 1425 1020 l 1,319,-1
 1403 1066 l 1,320,-1
 1403 1089 l 2,321,322
 1404 1112 1404 1112 1412 1112 c 2,284,-1
247 974 m 1,323,-1
 309 974 l 1,324,325
 309 1066 309 1066 274 1066 c 1,326,327
 247 1042 247 1042 247 974 c 1,323,-1
1275 963 m 2,328,-1
 1275 940 l 2,329,330
 1275 814 1275 814 1310 814 c 1,331,332
 1341 847 1341 847 1341 917 c 2,333,-1
 1341 963 l 2,334,335
 1341 1026 1341 1026 1315 1066 c 1,336,337
 1275 1051 1275 1051 1275 963 c 2,328,-1
66 986 m 1,338,-1
 66 882 l 2,339,340
 66 867 66 867 88 825 c 1,341,-1
 97 825 l 2,342,343
 132 825 132 825 132 928 c 0,344,345
 128 1043 128 1043 93 1043 c 1,346,347
 74 1027 74 1027 66 986 c 1,338,-1
794 894 m 1,348,-1
 794 859 l 2,349,350
 794 842 794 842 812 814 c 1,351,-1
 825 814 l 2,352,353
 831 814 831 814 847 871 c 1,354,-1
 847 928 l 1,355,-1
 825 940 l 1,356,357
 801 940 801 940 794 894 c 1,348,-1
684 859 m 1,358,-1
 706 859 l 2,359,360
 712 859 712 859 719 825 c 1,361,-1
 719 802 l 2,362,363
 719 786 719 786 706 768 c 1,364,-1
 684 768 l 2,365,366
 678 768 678 768 671 802 c 1,367,-1
 671 825 l 2,368,369
 671 842 671 842 684 859 c 1,358,-1
1628 859 m 1,370,-1
 1650 859 l 2,371,372
 1657 859 1657 859 1663 825 c 1,373,-1
 1663 802 l 2,374,375
 1663 786 1663 786 1650 768 c 1,376,-1
 1624 768 l 2,377,378
 1614 768 1614 768 1610 825 c 1,379,-1
 1628 859 l 1,370,-1
247 688 m 2,380,-1
 269 688 l 2,381,382
 337 688 337 688 357 435 c 1,383,-1
 357 413 l 1,384,385
 338 183 338 183 287 183 c 2,386,-1
 274 183 l 2,387,388
 262 183 262 183 260 241 c 1,389,390
 238 183 238 183 221 183 c 2,391,-1
 216 183 l 2,392,393
 178 183 178 183 172 332 c 1,394,395
 190 539 190 539 238 539 c 2,396,-1
 256 539 l 2,397,398
 269 539 269 539 269 493 c 1,399,-1
 278 493 l 1,400,401
 278 527 278 527 287 527 c 2,402,-1
 296 527 l 1,403,-1
 304 516 l 1,404,405
 282 318 282 318 282 218 c 1,406,407
 340 253 340 253 340 401 c 2,408,-1
 340 458 l 1,409,410
 326 653 326 653 247 653 c 0,411,412
 156 653 156 653 141 344 c 1,413,-1
 141 332 l 2,414,415
 141 112 141 112 252 80 c 1,416,417
 270 80 270 80 340 160 c 1,418,-1
 340 126 l 1,419,420
 289 46 289 46 247 46 c 2,421,-1
 229 46 l 2,422,423
 142 46 142 46 119 355 c 1,424,425
 136 688 136 688 247 688 c 2,380,-1
1050 665 m 1,426,-1
 1072 665 l 2,427,428
 1079 665 1079 665 1085 630 c 1,429,-1
 1085 607 l 2,430,431
 1085 591 1085 591 1072 573 c 1,432,-1
 1046 573 l 2,433,434
 1036 573 1036 573 1032 630 c 1,435,-1
 1050 665 l 1,426,-1
1121 653 m 1,436,-1
 1169 653 l 2,437,438
 1178 650 1178 650 1178 630 c 2,439,-1
 1178 241 l 1,440,-1
 1196 195 l 1,441,-1
 1196 183 l 2,442,443
 1196 160 1196 160 1187 160 c 2,444,-1
 1121 160 l 2,445,446
 1112 160 1112 160 1112 183 c 2,447,-1
 1112 195 l 1,448,-1
 1130 241 l 1,449,-1
 1130 584 l 1,450,451
 1112 584 1112 584 1112 607 c 2,452,-1
 1116 630 l 2,453,454
 1112 630 1112 630 1112 642 c 1,455,-1
 1121 653 l 1,436,-1
199 309 m 1,456,457
 204 218 204 218 225 218 c 1,458,459
 265 268 265 268 265 401 c 2,460,-1
 265 435 l 2,461,462
 265 504 265 504 243 504 c 0,463,464
 218 504 218 504 199 309 c 1,456,457
918 516 m 2,465,-1
 940 516 l 2,466,467
 997 516 997 516 997 367 c 2,468,-1
 997 229 l 1,469,470
 1015 229 1015 229 1015 206 c 2,471,-1
 1015 183 l 2,472,473
 1015 160 1015 160 1006 160 c 2,474,-1
 962 160 l 2,475,476
 953 160 953 160 953 195 c 1,477,478
 930 149 930 149 905 149 c 2,479,-1
 900 149 l 2,480,481
 852 149 852 149 852 252 c 2,482,-1
 852 264 l 2,483,484
 852 367 852 367 905 367 c 2,485,-1
 940 367 l 1,486,-1
 949 355 l 1,487,-1
 949 413 l 1,488,489
 941 458 941 458 918 458 c 0,490,491
 906 458 906 458 882 401 c 1,492,-1
 874 401 l 2,493,494
 865 401 865 401 865 424 c 2,495,-1
 865 470 l 2,496,497
 865 516 865 516 918 516 c 2,465,-1
1531 516 m 2,498,-1
 1544 516 l 2,499,500
 1628 516 1628 516 1628 332 c 0,501,502
 1628 171 1628 171 1553 149 c 1,503,-1
 1531 149 l 2,504,505
 1477 149 1477 149 1465 332 c 1,506,507
 1479 516 1479 516 1531 516 c 2,498,-1
428 504 m 2,508,-1
 454 504 l 2,509,510
 468 504 468 504 490 470 c 1,511,512
 490 504 490 504 499 504 c 2,513,-1
 543 504 l 2,514,515
 552 501 552 501 552 481 c 2,516,-1
 552 470 l 1,517,518
 534 443 534 443 534 401 c 1,519,-1
 529 401 l 1,520,-1
 534 378 l 2,521,522
 534 367 534 367 529 367 c 1,523,-1
 534 344 l 1,524,-1
 534 309 l 1,525,-1
 529 241 l 1,526,527
 534 218 534 218 534 206 c 0,528,529
 534 0 534 0 454 0 c 2,530,-1
 441 0 l 1,531,532
 384 8 384 8 384 46 c 0,533,534
 387 115 387 115 397 115 c 2,535,-1
 410 115 l 1,536,537
 428 57 428 57 450 57 c 0,538,539
 473 57 473 57 485 126 c 1,540,-1
 485 195 l 1,541,542
 468 160 468 160 446 160 c 2,543,-1
 428 160 l 2,544,545
 380 160 380 160 371 332 c 1,546,547
 381 504 381 504 428 504 c 2,508,-1
560 504 m 1,548,-1
 613 504 l 2,549,550
 622 504 622 504 622 470 c 1,551,552
 644 504 644 504 657 504 c 2,553,-1
 679 504 l 2,554,555
 696 504 696 504 719 447 c 1,556,557
 735 504 735 504 768 504 c 2,558,-1
 777 504 l 2,559,560
 816 504 816 504 816 378 c 2,561,-1
 816 241 l 1,562,-1
 834 195 l 1,563,-1
 834 183 l 2,564,565
 834 160 834 160 825 160 c 2,566,-1
 763 160 l 2,567,568
 755 160 755 160 755 183 c 2,569,-1
 755 195 l 1,570,-1
 772 252 l 1,571,-1
 772 332 l 2,572,573
 772 417 772 417 759 424 c 1,574,-1
 750 424 l 2,575,576
 719 424 719 424 719 344 c 2,577,-1
 719 241 l 1,578,-1
 737 195 l 1,579,-1
 737 183 l 2,580,581
 737 160 737 160 728 160 c 2,582,-1
 666 160 l 2,583,584
 657 160 657 160 657 183 c 2,585,-1
 657 195 l 2,586,587
 657 201 657 201 675 252 c 1,588,-1
 675 355 l 2,589,590
 675 417 675 417 657 435 c 1,591,592
 633 435 633 435 622 378 c 1,593,-1
 622 241 l 1,594,595
 644 205 644 205 644 172 c 1,596,-1
 635 160 l 1,597,-1
 565 160 l 2,598,599
 556 160 556 160 556 183 c 2,600,-1
 556 195 l 1,601,-1
 578 252 l 1,602,-1
 578 378 l 2,603,604
 578 435 578 435 560 435 c 1,605,-1
 560 504 l 1,548,-1
1032 504 m 2,606,-1
 1077 504 l 2,607,608
 1085 501 1085 501 1085 481 c 2,609,-1
 1085 229 l 1,610,611
 1103 223 1103 223 1103 195 c 2,612,-1
 1103 183 l 2,613,614
 1103 160 1103 160 1094 160 c 2,615,-1
 1032 160 l 2,616,617
 1024 160 1024 160 1024 183 c 2,618,-1
 1024 195 l 1,619,620
 1041 235 1041 235 1041 275 c 2,621,-1
 1041 413 l 1,622,-1
 1024 458 l 1,623,-1
 1024 481 l 2,624,625
 1025 504 1025 504 1032 504 c 2,606,-1
1363 504 m 2,626,-1
 1377 504 l 2,627,628
 1396 504 1396 504 1412 481 c 1,629,630
 1413 504 1413 504 1421 504 c 2,631,-1
 1430 504 l 2,632,633
 1436 504 1436 504 1443 470 c 1,634,-1
 1443 390 l 2,635,636
 1443 367 1443 367 1434 367 c 2,637,-1
 1421 367 l 1,638,639
 1404 447 1404 447 1381 447 c 0,640,641
 1355 447 1355 447 1350 309 c 1,642,643
 1356 206 1356 206 1390 206 c 0,644,645
 1395 206 1395 206 1421 275 c 1,646,-1
 1443 264 l 1,647,-1
 1443 229 l 1,648,649
 1424 149 1424 149 1385 149 c 2,650,-1
 1372 149 l 1,651,652
 1302 178 1302 178 1302 321 c 1,653,654
 1316 504 1316 504 1363 504 c 2,626,-1
1655 504 m 2,655,-1
 1699 504 l 2,656,657
 1708 504 1708 504 1708 458 c 1,658,659
 1726 504 1726 504 1743 504 c 2,660,-1
 1765 504 l 2,661,662
 1782 504 1782 504 1805 447 c 1,663,664
 1820 504 1820 504 1853 504 c 2,665,-1
 1862 504 l 2,666,667
 1902 504 1902 504 1902 378 c 2,668,-1
 1902 241 l 1,669,-1
 1919 195 l 1,670,-1
 1919 183 l 2,671,672
 1919 160 1919 160 1911 160 c 2,673,-1
 1849 160 l 2,674,675
 1840 160 1840 160 1840 183 c 2,676,-1
 1840 195 l 1,677,-1
 1858 252 l 1,678,-1
 1858 332 l 2,679,680
 1858 417 1858 417 1844 424 c 1,681,-1
 1836 424 l 2,682,683
 1805 424 1805 424 1805 344 c 2,684,-1
 1805 241 l 1,685,-1
 1822 195 l 1,686,-1
 1822 183 l 2,687,688
 1822 160 1822 160 1813 160 c 2,689,-1
 1752 160 l 2,690,691
 1743 160 1743 160 1743 183 c 2,692,-1
 1743 195 l 1,693,-1
 1761 252 l 1,694,-1
 1761 332 l 2,695,696
 1761 420 1761 420 1743 435 c 1,697,698
 1719 435 1719 435 1708 378 c 1,699,-1
 1708 241 l 1,700,-1
 1730 195 l 1,701,-1
 1730 183 l 2,702,703
 1730 160 1730 160 1721 160 c 2,704,-1
 1650 160 l 2,705,706
 1641 160 1641 160 1641 183 c 2,707,-1
 1641 195 l 1,708,709
 1663 229 1663 229 1663 275 c 2,710,-1
 1663 378 l 2,711,712
 1663 435 1663 435 1646 435 c 1,713,-1
 1646 481 l 2,714,715
 1647 504 1647 504 1655 504 c 2,655,-1
1513 332 m 0,716,717
 1513 242 1513 242 1540 206 c 1,718,719
 1580 206 1580 206 1580 332 c 2,720,-1
 1580 355 l 2,721,722
 1580 438 1580 438 1549 458 c 1,723,724
 1513 451 1513 451 1513 332 c 0,716,717
419 344 m 2,725,-1
 419 321 l 1,726,727
 425 218 425 218 459 218 c 1,728,729
 485 241 485 241 485 309 c 2,730,-1
 485 355 l 2,731,732
 485 447 485 447 450 447 c 1,733,734
 419 413 419 413 419 344 c 2,725,-1
896 252 m 1,735,736
 905 206 905 206 918 206 c 0,737,738
 939 206 939 206 949 264 c 1,739,-1
 949 321 l 1,740,-1
 927 332 l 1,741,742
 896 332 896 332 896 252 c 1,735,736
1235 252 m 1,743,-1
 1258 252 l 2,744,745
 1264 252 1264 252 1271 218 c 1,746,-1
 1271 195 l 2,747,748
 1271 178 1271 178 1258 160 c 1,749,-1
 1235 160 l 2,750,751
 1229 160 1229 160 1218 206 c 1,752,753
 1218 224 1218 224 1235 252 c 1,743,-1
EndSplineSet
EndChar

StartChar: A
Encoding: 65 65 36
Width: 12
Flags: W
LayerCount: 2
Fore
SplineSet
-487 1389 m 2,0,-1
 -75 1389 l 2,1,2
 -62 1389 -62 1389 -44 1349 c 1,3,4
 -38 1349 -38 1349 -30 1334 c 1,5,6
 -30 1305 -30 1305 -82 1305 c 1,7,-1
 -121 1290 l 1,8,-1
 -515 1290 l 2,9,10
 -532 1290 -532 1290 -571 1317 c 1,11,12
 -574 1325 -574 1325 -574 1334 c 2,13,-1
 -574 1362 l 2,14,15
 -574 1370 -574 1370 -511 1381 c 1,16,17
 -506 1389 -506 1389 -487 1389 c 2,0,-1
-382 1189 m 1,18,19
 -373 1179 -373 1179 -354 1179 c 0,20,21
 -342 1179 -342 1179 -326 1187 c 1,22,-1
 -312 1187 l 1,23,24
 -291 1177 -291 1177 -285 1177 c 256,25,26
 -279 1177 -279 1177 -257 1187 c 1,27,-1
 -243 1187 l 1,28,29
 -231 1179 -231 1179 -218 1179 c 0,30,31
 -210 1179 -210 1179 -180 1189 c 1,32,33
 -156 1179 -156 1179 -145 1179 c 0,34,35
 -117 1187 -117 1187 -110 1187 c 0,36,37
 -57 1177 -57 1177 -40 1151 c 0,38,39
 -30 1140 -30 1140 -30 1133 c 0,40,41
 -30 1112 -30 1112 -96 1091 c 0,42,43
 -102 1089 -102 1089 -114 1089 c 2,44,-1
 -152 1089 l 2,45,46
 -166 1089 -166 1089 -180 1095 c 1,47,48
 -204 1089 -204 1089 -218 1089 c 2,49,-1
 -288 1089 l 2,50,51
 -291 1089 -291 1089 -316 1093 c 1,52,53
 -353 1089 -353 1089 -365 1089 c 2,54,-1
 -431 1089 l 1,55,-1
 -455 1093 l 1,56,57
 -490 1089 -490 1089 -501 1089 c 0,58,59
 -522 1089 -522 1089 -543 1105 c 1,60,61
 -574 1117 -574 1117 -574 1133 c 0,62,63
 -574 1146 -574 1146 -539 1175 c 1,64,65
 -492 1176 -492 1176 -455 1187 c 1,66,-1
 -452 1187 l 1,67,68
 -437 1179 -437 1179 -424 1179 c 2,69,-1
 -382 1189 l 1,18,19
EndSplineSet
EndChar

StartChar: Ba
Encoding: 66 59540 37
Width: 1799
Flags: W
LayerCount: 2
Fore
SplineSet
1611 929 m 1,0,-1
 1627 929 l 2,1,2
 1672 929 1672 929 1681 868 c 1,3,4
 1681 837 1681 837 1532 729 c 0,5,6
 1401 636 1401 636 1359 599 c 1,7,8
 1231 513 1231 513 1231 505 c 0,9,10
 1221 481 1221 481 1218 481 c 2,11,-1
 1223 440 l 1,12,-1
 1223 130 l 2,13,14
 1223 53 1223 53 1169 53 c 2,15,-1
 1152 53 l 2,16,17
 1107 53 1107 53 1103 118 c 1,18,-1
 1107 139 l 2,19,20
 1107 151 1107 151 1103 167 c 1,21,-1
 1107 204 l 2,22,23
 1107 222 1107 222 1103 257 c 1,24,25
 1107 294 1107 294 1107 338 c 1,26,-1
 1103 367 l 1,27,28
 1107 374 1107 374 1107 383 c 0,29,30
 1102 403 1102 403 1095 403 c 2,31,-1
 1086 403 l 1,32,33
 1062 399 1062 399 913 297 c 1,34,-1
 801 232 l 1,35,36
 797 223 797 223 562 98 c 1,37,38
 481 65 481 65 397 37 c 1,39,40
 397 26 397 26 227 0 c 1,41,42
 80 0 80 0 21 139 c 0,43,44
 9 159 9 159 0 253 c 1,45,46
 12 386 12 386 29 428 c 1,47,48
 60 558 60 558 91 558 c 1,49,50
 91 563 91 563 128 570 c 1,51,52
 182 544 182 544 182 517 c 2,53,-1
 182 513 l 2,54,55
 182 499 182 499 153 399 c 1,56,57
 128 297 128 297 128 236 c 2,58,-1
 128 228 l 2,59,60
 128 126 128 126 231 126 c 0,61,62
 357 126 357 126 611 261 c 1,63,64
 847 395 847 395 900 436 c 1,65,66
 923 436 923 436 1066 546 c 1,67,68
 1075 546 1075 546 1194 632 c 0,69,70
 1200 632 1200 632 1297 705 c 1,71,72
 1353 741 1353 741 1425 803 c 1,73,74
 1432 803 1432 803 1578 917 c 1,75,76
 1592 917 1592 917 1611 929 c 1,0,-1
EndSplineSet
EndChar

StartChar: Ca
Encoding: 67 59545 38
Width: 1899
Flags: W
LayerCount: 2
Fore
SplineSet
1024 972 m 0,0,1
 1080 968 1080 968 1080 916 c 0,2,3
 1068 754 1068 754 1044 636 c 1,4,5
 1056 632 1056 632 1056 628 c 1,6,7
 1107 651 1107 651 1140 688 c 0,8,9
 1157 705 1157 705 1252 760 c 1,10,11
 1252 771 1252 771 1292 788 c 1,12,13
 1321 815 1321 815 1408 852 c 1,14,15
 1482 908 1482 908 1596 908 c 2,16,-1
 1628 908 l 2,17,18
 1796 908 1796 908 1796 640 c 0,19,20
 1796 542 1796 542 1748 300 c 1,21,22
 1748 266 1748 266 1684 236 c 1,23,-1
 1680 236 l 2,24,25
 1639 236 1639 236 1624 296 c 1,26,27
 1624 323 1624 323 1652 432 c 1,28,29
 1680 579 1680 579 1680 632 c 1,30,31
 1676 655 1676 655 1676 696 c 2,32,-1
 1676 720 l 1,33,34
 1649 792 1649 792 1608 792 c 1,35,36
 1475 764 1475 764 1412 724 c 0,37,38
 1252 620 1252 620 1252 616 c 0,39,40
 1163 551 1163 551 1048 456 c 1,41,42
 1012 456 1012 456 1004 312 c 1,43,44
 973 28 973 28 964 28 c 1,45,46
 936 0 936 0 920 0 c 2,47,-1
 916 0 l 2,48,49
 881 0 881 0 856 44 c 1,50,-1
 856 60 l 1,51,52
 880 251 880 251 880 316 c 1,53,54
 872 316 872 316 872 324 c 1,55,56
 865 324 865 324 768 264 c 0,57,58
 680 205 680 205 528 136 c 1,59,60
 495 113 495 113 424 96 c 1,61,62
 362 72 362 72 296 72 c 0,63,64
 108 72 108 72 68 164 c 1,65,66
 26 196 26 196 4 340 c 0,67,68
 0 359 0 359 0 396 c 0,69,70
 0 451 0 451 32 624 c 0,71,72
 55 728 55 728 96 728 c 2,73,-1
 124 728 l 2,74,75
 156 728 156 728 164 684 c 1,76,-1
 164 660 l 1,77,78
 124 473 124 473 124 356 c 1,79,80
 140 247 140 247 176 220 c 1,81,82
 229 192 229 192 248 192 c 0,83,84
 373 192 373 192 528 264 c 1,85,86
 690 350 690 350 852 452 c 1,87,88
 908 493 908 493 920 548 c 1,89,90
 956 952 956 952 984 952 c 1,91,92
 1007 972 1007 972 1024 972 c 0,0,1
EndSplineSet
EndChar

StartChar: Vowel_sign_E_bicek
Encoding: 69 59560 40
Width: 9
Flags: W
LayerCount: 2
Fore
SplineSet
-927 1431 m 1,0,-1
 -907 1431 l 2,1,2
 -883 1431 -883 1431 -883 1360 c 0,3,4
 -883 1311 -883 1311 -904 1279 c 1,5,6
 -904 1271 -904 1271 -926 1230 c 1,7,8
 -928 1217 -928 1217 -952 1172 c 1,9,10
 -971 1158 -971 1158 -971 1124 c 0,11,12
 -973 1117 -973 1117 -996 1088 c 1,13,14
 -996 1070 -996 1070 -1026 1046 c 1,15,-1
 -1027 1046 l 1,16,17
 -1060 1062 -1060 1062 -1060 1098 c 2,18,-1
 -1060 1104 l 2,19,20
 -1060 1146 -1060 1146 -1046 1179 c 1,21,22
 -1046 1194 -1046 1194 -1013 1263 c 0,23,24
 -1007 1271 -1007 1271 -994 1305 c 1,25,26
 -983 1305 -983 1305 -937 1421 c 0,27,28
 -934 1421 -934 1421 -927 1431 c 1,0,-1
EndSplineSet
EndChar

StartChar: PA
Encoding: 70 59539 41
Width: 1793
Flags: W
LayerCount: 2
Fore
SplineSet
1634 947 m 0,0,1
 1668 947 1668 947 1692 910 c 1,2,-1
 1692 885 l 1,3,4
 1687 842 1687 842 1526 733 c 0,5,6
 1474 700 1474 700 1459 679 c 1,7,8
 1127 436 1127 436 894 288 c 0,9,10
 680 148 680 148 432 41 c 1,11,12
 306 0 306 0 220 0 c 2,13,-1
 183 0 l 2,14,15
 60 0 60 0 4 165 c 0,16,17
 0 187 0 187 0 202 c 2,18,-1
 0 280 l 1,19,20
 29 561 29 561 100 576 c 1,21,22
 100 581 100 581 104 581 c 2,23,-1
 129 581 l 2,24,25
 163 581 163 581 175 531 c 1,26,-1
 175 511 l 1,27,-1
 129 296 l 1,28,29
 125 239 125 239 121 235 c 1,30,31
 125 227 125 227 125 222 c 1,32,-1
 121 222 l 1,33,34
 141 119 141 119 195 119 c 2,35,-1
 249 119 l 2,36,37
 330 119 330 119 599 251 c 1,38,39
 602 258 602 258 732 329 c 1,40,41
 769 359 769 359 869 412 c 1,42,43
 926 457 926 457 1027 515 c 1,44,45
 1028 521 1028 521 1214 651 c 0,46,47
 1220 651 1220 651 1397 786 c 0,48,49
 1474 840 1474 840 1588 931 c 1,50,51
 1616 947 1616 947 1634 947 c 0,0,1
EndSplineSet
EndChar

StartChar: Gha
Encoding: 71 59538 42
Width: 2101
Flags: W
LayerCount: 2
Fore
SplineSet
1913 941 m 2,0,-1
 1934 941 l 1,1,2
 1976 930 1976 930 1976 885 c 2,3,-1
 1976 881 l 2,4,5
 1976 829 1976 829 1909 808 c 1,6,7
 1833 751 1833 751 1688 672 c 1,8,9
 1688 666 1688 666 1638 637 c 1,10,11
 1613 629 1613 629 1613 595 c 2,12,-1
 1613 244 l 2,13,14
 1613 200 1613 200 1546 192 c 1,15,16
 1496 192 1496 192 1496 291 c 2,17,-1
 1496 299 l 2,18,19
 1496 339 1496 339 1500 372 c 1,20,21
 1496 395 1496 395 1496 411 c 2,22,-1
 1500 441 l 1,23,24
 1496 464 1496 464 1496 475 c 2,25,-1
 1500 526 l 1,26,27
 1493 543 1493 543 1487 543 c 2,28,-1
 1483 543 l 1,29,30
 1397 498 1397 498 1324 445 c 1,31,32
 1316 445 1316 445 1090 312 c 0,33,34
 971 240 971 240 948 240 c 1,35,36
 886 255 886 255 886 304 c 1,37,38
 913 359 913 359 940 500 c 1,39,40
 924 547 924 547 894 547 c 2,41,-1
 848 547 l 2,42,43
 721 547 721 547 401 287 c 1,44,45
 197 112 197 112 96 13 c 0,46,47
 87 5 87 5 58 0 c 1,48,49
 0 9 0 9 0 47 c 2,50,-1
 0 64 l 2,51,52
 0 99 0 99 134 218 c 1,53,54
 202 284 202 284 343 398 c 0,55,56
 347 398 347 398 401 449 c 1,57,58
 532 544 532 544 602 586 c 0,59,60
 757 676 757 676 836 676 c 2,61,-1
 877 676 l 2,62,63
 1016 676 1016 676 1057 556 c 1,64,-1
 1057 471 l 2,65,66
 1057 464 1057 464 1074 453 c 1,67,-1
 1086 453 l 1,68,69
 1108 472 1108 472 1228 539 c 1,70,71
 1233 550 1233 550 1395 637 c 1,72,73
 1411 653 1411 653 1537 723 c 1,74,75
 1613 776 1613 776 1709 830 c 1,76,77
 1870 937 1870 937 1897 937 c 1,78,79
 1904 941 1904 941 1913 941 c 2,0,-1
EndSplineSet
EndChar

StartChar: H
Encoding: 72 59555 43
Width: 2059
Flags: W
LayerCount: 2
Fore
SplineSet
1571 947 m 1,0,1
 1628 923 1628 923 1628 897 c 0,2,3
 1628 831 1628 831 1527 796 c 1,4,5
 1469 752 1469 752 1389 717 c 1,6,7
 1298 664 1298 664 1031 528 c 0,8,9
 827 423 827 423 678 369 c 1,10,11
 612 331 612 331 402 268 c 1,12,13
 402 254 402 254 252 247 c 1,14,15
 90 247 90 247 57 302 c 1,16,17
 33 302 33 302 0 394 c 1,18,-1
 0 457 l 2,19,20
 0 543 0 543 41 624 c 1,21,22
 68 658 68 658 89 658 c 0,23,24
 146 651 146 651 146 603 c 1,25,-1
 122 465 l 1,26,-1
 122 415 l 1,27,28
 156 373 156 373 195 373 c 2,29,-1
 280 373 l 2,30,31
 339 373 339 373 483 423 c 1,32,33
 659 490 659 490 747 532 c 2,34,-1
 938 620 l 1,35,36
 1114 707 1114 707 1177 746 c 1,37,38
 1335 819 1335 819 1389 859 c 1,39,40
 1399 859 1399 859 1551 947 c 1,41,-1
 1571 947 l 1,0,1
1730 683 m 2,42,-1
 1754 683 l 2,43,44
 1878 683 1878 683 1921 608 c 0,45,46
 1953 558 1953 558 1953 507 c 2,47,-1
 1953 503 l 2,48,49
 1953 439 1953 439 1908 331 c 1,50,51
 1886 306 1886 306 1860 306 c 2,52,-1
 1835 306 l 2,53,54
 1799 306 1799 306 1799 356 c 1,55,56
 1831 489 1831 489 1831 503 c 0,57,58
 1831 526 1831 526 1791 553 c 1,59,-1
 1685 553 l 2,60,61
 1613 553 1613 553 1251 419 c 1,62,63
 1238 419 1238 419 958 289 c 1,64,-1
 816 218 l 1,65,66
 806 218 806 218 597 105 c 0,67,68
 556 87 556 87 451 29 c 0,69,70
 400 1 400 1 374 0 c 1,71,72
 317 18 317 18 317 59 c 2,73,-1
 317 80 l 1,74,75
 366 136 366 136 544 218 c 1,76,77
 547 229 547 229 715 306 c 1,78,79
 856 381 856 381 865 381 c 1,80,81
 887 396 887 396 942 415 c 1,82,83
 1005 457 1005 457 1153 511 c 1,84,85
 1153 525 1153 525 1393 603 c 1,86,87
 1608 683 1608 683 1730 683 c 2,42,-1
EndSplineSet
EndChar

StartChar: I
Encoding: 73 73 44
Width: 290
Flags: W
LayerCount: 2
Fore
SplineSet
105 975 m 1,0,-1
 125 980 l 2,1,2
 148 986 148 986 166 918 c 0,3,4
 179 871 179 871 167 834 c 1,5,6
 169 826 169 826 158 781 c 1,7,8
 160 768 160 768 148 718 c 1,9,10
 134 700 134 700 142 667 c 0,11,12
 142 660 142 660 128 626 c 1,13,14
 132 608 132 608 110 578 c 1,15,-1
 109 577 l 1,16,17
 73 584 73 584 63 619 c 1,18,-1
 62 625 l 1,19,20
 51 665 51 665 56 701 c 1,21,22
 52 715 52 715 66 791 c 0,23,24
 70 800 70 800 73 836 c 1,25,26
 84 839 84 839 98 963 c 0,27,28
 101 964 101 964 105 975 c 1,0,-1
EndSplineSet
EndChar

StartChar: Ja
Encoding: 74 59546 45
Width: 1876
Flags: W
LayerCount: 2
Fore
SplineSet
1117 941 m 2,0,-1
 1141 941 l 2,1,2
 1232 941 1232 941 1260 872 c 1,3,4
 1291 821 1291 821 1291 714 c 1,5,-1
 1295 707 l 1,6,7
 1322 707 1322 707 1431 810 c 1,8,9
 1548 887 1548 887 1593 887 c 2,10,-1
 1635 887 l 2,11,12
 1735 887 1735 887 1763 730 c 1,13,-1
 1759 703 l 1,14,-1
 1759 664 l 1,15,16
 1745 480 1745 480 1713 480 c 1,17,18
 1688 472 1688 472 1682 472 c 0,19,20
 1644 472 1644 472 1628 515 c 1,21,-1
 1643 684 l 1,22,-1
 1643 711 l 2,23,24
 1643 759 1643 759 1620 776 c 1,25,-1
 1604 776 l 1,26,27
 1521 751 1521 751 1396 630 c 1,28,29
 1329 572 1329 572 1237 472 c 1,30,-1
 1202 465 l 1,31,-1
 1191 465 l 1,32,33
 1148 485 1148 485 1148 522 c 0,34,35
 1148 538 1148 538 1171 634 c 1,36,37
 1175 674 1175 674 1175 722 c 2,38,-1
 1175 745 l 2,39,40
 1175 818 1175 818 1129 818 c 1,41,42
 1129 822 1129 822 1110 822 c 0,43,44
 1051 822 1051 822 835 676 c 1,45,46
 731 597 731 597 731 591 c 0,47,48
 769 365 769 365 769 300 c 1,49,50
 784 263 784 263 793 169 c 0,51,52
 793 128 793 128 746 104 c 1,53,-1
 731 104 l 2,54,55
 665 104 665 104 665 227 c 1,56,57
 650 404 650 404 626 499 c 1,58,-1
 622 499 l 1,59,60
 597 487 597 487 398 311 c 0,61,62
 398 307 398 307 174 92 c 0,63,64
 82 0 82 0 62 0 c 2,65,-1
 54 0 l 2,66,67
 17 0 17 0 0 38 c 1,68,-1
 0 50 l 2,69,70
 0 84 0 84 46 119 c 1,71,72
 203 281 203 281 390 449 c 1,73,74
 500 554 500 554 677 695 c 0,75,76
 780 772 780 772 785 772 c 0,77,78
 957 895 957 895 990 895 c 1,79,80
 1007 912 1007 912 1067 929 c 1,81,82
 1075 939 1075 939 1117 941 c 2,0,-1
EndSplineSet
EndChar

StartChar: Ka
Encoding: 75 59536 46
Width: 1740
Flags: W
LayerCount: 2
Fore
SplineSet
1364 944 m 2,0,-1
 1388 944 l 2,1,2
 1526 944 1526 944 1568 860 c 1,3,4
 1608 803 1608 803 1624 716 c 1,5,-1
 1632 648 l 1,6,7
 1625 388 1625 388 1568 388 c 1,8,9
 1546 384 1546 384 1536 384 c 0,10,11
 1492 398 1492 398 1492 444 c 2,12,-1
 1492 452 l 1,13,-1
 1512 580 l 1,14,-1
 1516 644 l 1,15,-1
 1512 668 l 2,16,17
 1512 672 1512 672 1516 672 c 1,18,19
 1516 695 1516 695 1488 776 c 1,20,21
 1454 824 1454 824 1400 824 c 2,22,-1
 1332 824 l 1,23,24
 1100 753 1100 753 1100 736 c 1,25,26
 963 676 963 676 884 616 c 1,27,28
 792 571 792 571 792 540 c 1,29,-1
 788 540 l 1,30,31
 842 439 842 439 896 232 c 1,32,33
 904 232 904 232 912 108 c 1,34,-1
 912 84 l 1,35,36
 891 44 891 44 852 44 c 0,37,38
 792 44 792 44 792 144 c 1,39,-1
 752 312 l 1,40,41
 700 441 700 441 680 468 c 1,42,-1
 668 468 l 1,43,-1
 596 412 l 1,44,45
 550 386 550 386 484 328 c 1,46,47
 362 234 362 234 176 80 c 1,48,49
 92 0 92 0 64 0 c 2,50,-1
 56 0 l 2,51,52
 5 0 5 0 0 64 c 0,53,54
 0 89 0 89 148 208 c 1,55,56
 303 339 303 339 556 532 c 1,57,-1
 716 644 l 1,58,-1
 828 724 l 1,59,60
 840 724 840 724 928 780 c 0,61,62
 996 828 996 828 1072 856 c 1,63,64
 1095 871 1095 871 1168 900 c 1,65,66
 1249 944 1249 944 1364 944 c 2,0,-1
EndSplineSet
EndChar

StartChar: La
Encoding: 76 59550 47
Width: 1965
Flags: W
LayerCount: 2
Fore
SplineSet
1768 959 m 1,0,-1
 1804 959 l 1,1,2
 1840 931 1840 931 1840 908 c 0,3,4
 1840 849 1840 849 1752 805 c 1,5,6
 1752 798 1752 798 1660 728 c 0,7,8
 1487 599 1487 599 1448 561 c 1,9,10
 1438 561 1438 561 1312 458 c 1,11,12
 1225 398 1225 398 1212 385 c 1,13,-1
 1188 381 l 1,14,15
 1128 381 1128 381 1128 445 c 1,16,17
 1164 598 1164 598 1164 681 c 0,18,19
 1164 766 1164 766 1136 766 c 1,20,21
 1136 771 1136 771 1132 771 c 2,22,-1
 1088 771 l 1,23,24
 900 709 900 709 900 685 c 1,25,26
 774 609 774 609 704 548 c 1,27,28
 657 523 657 523 416 313 c 1,29,-1
 268 176 l 1,30,31
 178 101 178 101 112 30 c 1,32,33
 112 15 112 15 44 0 c 1,34,35
 0 16 0 16 0 43 c 2,36,-1
 0 60 l 2,37,38
 0 107 0 107 112 197 c 1,39,-1
 244 317 l 1,40,41
 262 341 262 341 356 420 c 1,42,43
 388 458 388 458 432 488 c 1,44,-1
 604 634 l 1,45,46
 613 634 613 634 644 664 c 1,47,48
 650 664 650 664 796 771 c 1,49,50
 1004 903 1004 903 1100 903 c 2,51,-1
 1120 903 l 2,52,53
 1225 903 1225 903 1264 818 c 1,54,55
 1288 745 1288 745 1288 659 c 2,56,-1
 1288 638 l 2,57,58
 1288 628 1288 628 1284 621 c 1,59,60
 1288 612 1288 612 1288 608 c 1,61,-1
 1308 608 l 1,62,63
 1490 756 1490 756 1592 831 c 2,64,-1
 1648 873 l 2,65,66
 1666 891 1666 891 1768 959 c 1,0,-1
EndSplineSet
EndChar

StartChar: Lampung_virama
Encoding: 77 59567 48
Width: 792
Flags: W
LayerCount: 2
Fore
SplineSet
-219 -154 m 2,1,-1
 -172 -126 l 2,2,3
 -101 -86 -101 -86 65 163 c 0,4,5
 65 170 65 170 142 296 c 1,6,7
 159 341 159 341 218 437 c 1,8,9
 246 505 246 505 304 605 c 1,10,11
 302 610 302 610 398 817 c 0,12,13
 403 819 403 819 489 1025 c 0,14,15
 528 1110 528 1110 581 1246 c 1,16,17
 598 1274 598 1274 613 1283 c 0,18,19
 643 1300 643 1300 682 1280 c 1,20,-1
 695 1258 l 1,21,22
 712 1218 712 1218 627 1044 c 0,23,24
 598 989 598 989 595 963 c 1,25,26
 430 587 430 587 302 342 c 0,27,28
 187 114 187 114 26 -102 c 1,29,30
 -63 -202 -63 -202 -137 -244 c 2,31,-1
 -170 -263 l 2,32,33
 -276 -324 -276 -324 -363 -241 c 0,34,35
 -392 -218 -392 -218 -389 -182 c 1,36,-1
 -317 -130 l 1,37,0
 -263 -180 -263 -180 -219 -154 c 2,1,-1
EndSplineSet
EndChar

StartChar: Nya
Encoding: 78 59547 49
Width: 2065
Flags: W
LayerCount: 2
Fore
SplineSet
861 929 m 0,0,1
 945 929 945 929 980 801 c 1,2,-1
 988 713 l 1,3,4
 1017 713 1017 713 1110 816 c 1,5,6
 1178 873 1178 873 1237 873 c 2,7,-1
 1241 873 l 1,8,9
 1331 867 1331 867 1331 770 c 2,10,-1
 1331 734 l 2,11,12
 1331 685 1331 685 1306 575 c 1,13,-1
 1306 570 l 1,14,15
 1314 557 1314 557 1314 549 c 1,16,-1
 1322 549 l 1,17,18
 1493 676 1493 676 1865 929 c 1,19,-1
 1902 929 l 2,20,21
 1936 929 1936 929 1947 867 c 1,22,-1
 1947 852 l 2,23,24
 1947 814 1947 814 1886 770 c 2,25,-1
 1771 688 l 1,26,27
 1762 688 1762 688 1714 647 c 1,28,29
 1680 632 1680 632 1588 559 c 1,30,-1
 1318 375 l 1,31,-1
 1212 298 l 2,32,33
 1197 287 1197 287 1180 287 c 2,34,-1
 1171 287 l 2,35,36
 1139 287 1139 287 1110 344 c 1,37,-1
 1110 364 l 1,38,39
 1163 518 1163 518 1196 672 c 1,40,41
 1192 682 1192 682 1192 688 c 1,42,-1
 1180 688 l 2,43,44
 1159 688 1159 688 1037 549 c 2,45,-1
 935 431 l 1,46,47
 917 395 917 395 882 395 c 0,48,49
 849 395 849 395 825 457 c 1,50,-1
 825 488 l 1,51,52
 841 543 841 543 865 708 c 1,53,-1
 865 739 l 1,54,55
 855 770 855 770 833 770 c 0,56,57
 763 770 763 770 433 421 c 0,58,59
 365 347 365 347 318 282 c 1,60,61
 295 262 295 262 229 175 c 1,62,63
 85 0 85 0 61 0 c 0,64,65
 0 0 0 0 0 77 c 1,66,67
 16 142 16 142 73 195 c 1,68,69
 291 468 291 468 457 636 c 1,70,71
 653 846 653 846 747 888 c 1,72,73
 799 929 799 929 861 929 c 0,0,1
EndSplineSet
EndChar

StartChar: P
Encoding: 80 80 51
Width: 1793
Flags: W
LayerCount: 2
Fore
SplineSet
1634 947 m 0,0,1
 1668 947 1668 947 1692 910 c 1,2,-1
 1692 885 l 1,3,4
 1687 842 1687 842 1526 733 c 0,5,6
 1474 700 1474 700 1459 679 c 1,7,8
 1127 436 1127 436 894 288 c 0,9,10
 680 148 680 148 432 41 c 1,11,12
 306 0 306 0 220 0 c 2,13,-1
 183 0 l 2,14,15
 60 0 60 0 4 165 c 0,16,17
 0 187 0 187 0 202 c 2,18,-1
 0 280 l 1,19,20
 29 561 29 561 100 576 c 1,21,22
 100 581 100 581 104 581 c 2,23,-1
 129 581 l 2,24,25
 163 581 163 581 175 531 c 1,26,-1
 175 511 l 1,27,-1
 129 296 l 1,28,29
 125 239 125 239 121 235 c 1,30,31
 125 227 125 227 125 222 c 1,32,-1
 121 222 l 1,33,34
 141 119 141 119 195 119 c 2,35,-1
 249 119 l 2,36,37
 330 119 330 119 599 251 c 1,38,39
 602 258 602 258 732 329 c 1,40,41
 769 359 769 359 869 412 c 1,42,43
 926 457 926 457 1027 515 c 1,44,45
 1028 521 1028 521 1214 651 c 0,46,47
 1220 651 1220 651 1397 786 c 0,48,49
 1474 840 1474 840 1588 931 c 1,50,51
 1616 947 1616 947 1634 947 c 0,0,1
EndSplineSet
EndChar

StartChar: Q
Encoding: 81 81 52
Width: 1746
Flags: W
LayerCount: 2
Fore
SplineSet
1364 944 m 2,0,-1
 1388 944 l 2,1,2
 1526 944 1526 944 1568 860 c 1,3,4
 1608 803 1608 803 1624 716 c 1,5,-1
 1632 648 l 1,6,7
 1625 388 1625 388 1568 388 c 1,8,9
 1546 384 1546 384 1536 384 c 0,10,11
 1492 398 1492 398 1492 444 c 2,12,-1
 1492 452 l 1,13,-1
 1512 580 l 1,14,-1
 1516 644 l 1,15,-1
 1512 668 l 2,16,17
 1512 672 1512 672 1516 672 c 1,18,19
 1516 695 1516 695 1488 776 c 1,20,21
 1454 824 1454 824 1400 824 c 2,22,-1
 1332 824 l 1,23,24
 1100 753 1100 753 1100 736 c 1,25,26
 963 676 963 676 884 616 c 1,27,28
 792 571 792 571 792 540 c 1,29,-1
 788 540 l 1,30,31
 842 439 842 439 896 232 c 1,32,33
 904 232 904 232 912 108 c 1,34,-1
 912 84 l 1,35,36
 891 44 891 44 852 44 c 0,37,38
 792 44 792 44 792 144 c 1,39,-1
 752 312 l 1,40,41
 700 441 700 441 680 468 c 1,42,-1
 668 468 l 1,43,-1
 596 412 l 1,44,45
 550 386 550 386 484 328 c 1,46,47
 362 234 362 234 176 80 c 1,48,49
 92 0 92 0 64 0 c 2,50,-1
 56 0 l 2,51,52
 5 0 5 0 0 64 c 0,53,54
 0 89 0 89 148 208 c 1,55,56
 303 339 303 339 556 532 c 1,57,-1
 716 644 l 1,58,-1
 828 724 l 1,59,60
 840 724 840 724 928 780 c 0,61,62
 996 828 996 828 1072 856 c 1,63,64
 1095 871 1095 871 1168 900 c 1,65,66
 1249 944 1249 944 1364 944 c 2,0,-1
EndSplineSet
EndChar

StartChar: R
Encoding: 82 82 53
Width: 7
Flags: W
LayerCount: 2
Fore
SplineSet
-54 1294 m 2,0,-1
 -48 1291 l 2,1,2
 -38 1287 -38 1287 -34 1268 c 1,3,4
 -8 1251 -8 1251 -17 1218 c 1,5,-1
 -43 1178 l 1,6,7
 -59 1140 -59 1140 -98 1070 c 1,8,9
 -135 1076 -135 1076 -142 1079 c 1,10,11
 -146 1087 -146 1087 -142 1096 c 2,12,-1
 -138 1103 l 2,13,14
 -103 1161 -103 1161 -77 1216 c 1,15,-1
 -77 1219 l 2,16,17
 -76 1220 -76 1220 -76 1220 c 1,18,19
 -63 1254 -63 1254 -67 1256 c 1,20,-1
 -75 1243 l 1,21,22
 -82 1245 -82 1245 -89 1237 c 2,23,-1
 -120 1216 l 2,24,25
 -133 1203 -133 1203 -144 1195 c 1,26,27
 -150 1176 -150 1176 -207 1149 c 0,28,29
 -247 1127 -247 1127 -271 1115 c 0,30,31
 -277 1116 -277 1116 -296 1106 c 1,32,33
 -328 1102 -328 1102 -338 1107 c 0,34,35
 -340 1107 -340 1107 -344 1108 c 0,36,37
 -366 1119 -366 1119 -354 1163 c 0,38,39
 -349 1181 -349 1181 -336 1214 c 0,40,41
 -335 1215 -335 1215 -335 1215 c 2,42,43
 -334 1216 -334 1216 -334 1219 c 0,44,45
 -331 1243 -331 1243 -329 1258 c 1,46,47
 -317 1254 -317 1254 -315 1256 c 0,48,49
 -314 1257 -314 1257 -315 1258 c 0,50,51
 -292 1329 -292 1329 -282 1330 c 1,52,-1
 -276 1338 l 1,53,-1
 -267 1326 l 2,54,55
 -261 1323 -261 1323 -244 1291 c 1,56,57
 -304 1241 -304 1241 -297 1188 c 1,58,59
 -312 1168 -312 1168 -304 1166 c 1,60,61
 -334 1156 -334 1156 -307 1159 c 1,62,-1
 -299 1167 l 1,63,64
 -310 1141 -310 1141 -275 1159 c 2,65,-1
 -247 1174 l 2,66,67
 -240 1180 -240 1180 -218 1192 c 0,68,69
 -200 1206 -200 1206 -189 1213 c 0,70,71
 -180 1223 -180 1223 -162 1235 c 0,72,73
 -112 1276 -112 1276 -98 1281 c 0,74,75
 -69 1301 -69 1301 -54 1294 c 2,0,-1
-31 1345 m 2,76,-1
 -25 1342 l 2,77,78
 -16 1338 -16 1338 -12 1319 c 0,79,80
 -6 1302 -6 1302 -5 1272 c 1,81,-1
 -12 1234 l 1,82,83
 -38 1193 -38 1193 -92 1124 c 1,84,85
 -108 1127 -108 1127 -115 1130 c 1,86,87
 -119 1138 -119 1138 -115 1147 c 2,88,-1
 -112 1154 l 1,89,90
 -78 1212 -78 1212 -53 1267 c 1,91,-1
 -53 1270 l 2,92,93
 -52 1271 -52 1271 -52 1271 c 1,94,95
 -58 1271 -58 1271 -44 1307 c 1,96,-1
 -51 1294 l 1,97,98
 -58 1296 -58 1296 -64 1288 c 2,99,-1
 -94 1267 l 2,100,101
 -107 1254 -107 1254 -117 1246 c 1,102,103
 -122 1227 -122 1227 -177 1200 c 0,104,105
 -215 1178 -215 1178 -238 1166 c 0,106,107
 -243 1167 -243 1167 -262 1157 c 1,108,109
 -293 1153 -293 1153 -302 1158 c 0,110,111
 -304 1158 -304 1158 -308 1159 c 0,112,113
 -329 1170 -329 1170 -317 1214 c 0,114,115
 -312 1232 -312 1232 -300 1265 c 0,116,117
 -299 1266 -299 1266 -299 1266 c 2,118,119
 -298 1267 -298 1267 -298 1270 c 0,120,121
 -287 1293 -287 1293 -282 1304 c 0,122,123
 -281 1305 -281 1305 -280 1307 c 0,124,125
 -279 1308 -279 1308 -280 1309 c 0,126,127
 -272 1380 -272 1380 -239 1376 c 1,128,-1
 -237 1378 l 1,129,-1
 -234 1377 l 2,130,131
 -228 1374 -228 1374 -212 1342 c 1,132,133
 -269 1292 -269 1292 -262 1239 c 1,134,135
 -277 1219 -277 1219 -269 1217 c 1,136,137
 -298 1207 -298 1207 -272 1210 c 1,138,-1
 -265 1218 l 1,139,140
 -275 1192 -275 1192 -241 1210 c 2,141,-1
 -215 1225 l 2,142,143
 -208 1231 -208 1231 -187 1243 c 1,144,145
 -171 1257 -171 1257 -160 1264 c 0,146,147
 -151 1274 -151 1274 -134 1286 c 0,148,149
 -86 1327 -86 1327 -73 1332 c 0,150,151
 -45 1352 -45 1352 -31 1345 c 2,76,-1
EndSplineSet
EndChar

StartChar: S
Encoding: 83 83 54
Width: 1769
Flags: W
LayerCount: 2
Fore
SplineSet
644 976 m 256,0,1
 685 976 685 976 700 915 c 1,2,3
 688 751 688 751 668 672 c 1,4,-1
 668 653 l 2,5,6
 668 615 668 615 660 558 c 1,7,-1
 676 554 l 2,8,9
 689 554 689 554 772 611 c 0,10,11
 901 693 901 693 1067 771 c 1,12,13
 1069 779 1069 779 1135 805 c 0,14,15
 1285 862 1285 862 1303 862 c 1,16,17
 1327 881 1327 881 1419 881 c 2,18,-1
 1479 881 l 2,19,20
 1596 881 1596 881 1655 733 c 0,21,22
 1663 703 1663 703 1663 661 c 0,23,24
 1663 471 1663 471 1615 471 c 1,25,26
 1599 467 1599 467 1587 460 c 1,27,-1
 1579 460 l 1,28,29
 1531 485 1531 485 1531 509 c 2,30,-1
 1543 619 l 1,31,32
 1543 771 1543 771 1463 771 c 1,33,-1
 1435 775 l 1,34,35
 1338 775 1338 775 1123 672 c 1,36,37
 937 592 937 592 588 357 c 1,38,39
 564 346 564 346 328 178 c 1,40,-1
 176 65 l 2,41,42
 86 0 86 0 64 0 c 0,43,44
 9 0 9 0 0 53 c 1,45,46
 0 92 0 92 156 190 c 1,47,48
 214 241 214 241 304 300 c 1,49,50
 331 329 331 329 444 395 c 1,51,52
 540 466 540 466 540 471 c 0,53,54
 536 518 536 518 536 520 c 0,55,56
 556 653 556 653 576 911 c 1,57,58
 603 976 603 976 644 976 c 256,0,1
EndSplineSet
EndChar

StartChar: T
Encoding: 84 84 55
Width: 2213
Flags: W
LayerCount: 2
Fore
SplineSet
1275 929 m 1,0,1
 1338 929 1338 929 1338 861 c 0,2,3
 1338 818 1338 818 1203 743 c 1,4,5
 1164 712 1164 712 881 526 c 1,6,7
 851 526 851 526 796 376 c 1,8,9
 779 376 779 376 756 213 c 0,10,11
 756 189 756 189 792 177 c 1,12,-1
 801 181 l 1,13,-1
 854 181 l 1,14,15
 972 208 972 208 1083 272 c 1,16,17
 1205 335 1205 335 1288 390 c 1,18,19
 1383 440 1383 440 1472 508 c 1,20,21
 1520 534 1520 534 1758 702 c 1,22,23
 1785 727 1785 727 1892 798 c 1,24,25
 1993 888 1993 888 2058 888 c 1,26,27
 2107 872 2107 872 2107 825 c 2,28,-1
 2107 816 l 2,29,30
 2107 785 2107 785 1968 693 c 1,31,32
 1857 608 1857 608 1727 521 c 1,33,34
 1701 495 1701 495 1615 444 c 1,35,36
 1556 396 1556 396 1427 322 c 1,37,38
 1374 282 1374 282 1150 154 c 1,39,40
 1083 127 1083 127 1020 91 c 1,41,42
 1009 91 1009 91 939 59 c 1,43,44
 833 36 833 36 814 36 c 2,45,-1
 769 36 l 2,46,47
 675 36 675 36 644 127 c 1,48,49
 622 140 622 140 622 204 c 0,50,51
 622 289 622 289 649 335 c 1,52,53
 644 358 644 358 640 358 c 0,54,55
 614 358 614 358 501 272 c 1,56,57
 414 211 414 211 277 127 c 1,58,59
 145 21 145 21 72 0 c 1,60,-1
 67 0 l 2,61,62
 27 0 27 0 0 45 c 1,63,-1
 0 59 l 2,64,65
 0 105 0 105 157 199 c 1,66,-1
 322 313 l 2,67,68
 329 313 329 313 537 458 c 1,69,70
 683 547 683 547 814 644 c 1,71,-1
 998 761 l 2,72,73
 1059 797 1059 797 1141 861 c 1,74,75
 1202 893 1202 893 1239 924 c 1,76,77
 1250 924 1250 924 1275 929 c 1,0,1
EndSplineSet
EndChar

StartChar: V
Encoding: 86 86 57
Width: 2053
Flags: W
LayerCount: 2
Fore
SplineSet
1878 965 m 2,0,-1
 1912 965 l 1,1,2
 1953 958 1953 958 1953 904 c 0,3,4
 1953 856 1953 856 1912 833 c 1,5,6
 1808 758 1808 758 1808 748 c 1,7,8
 1667 659 1667 659 1605 598 c 1,9,10
 1589 598 1589 598 1509 532 c 0,11,12
 1310 376 1310 376 1211 311 c 1,13,14
 1210 298 1210 298 1053 193 c 1,15,16
 817 0 817 0 788 0 c 2,17,-1
 763 0 l 2,18,19
 730 0 730 0 717 56 c 1,20,21
 717 107 717 107 771 141 c 1,22,23
 917 254 917 254 921 254 c 0,24,25
 1141 419 1141 419 1144 419 c 0,26,27
 1178 437 1178 437 1202 546 c 1,28,29
 1252 646 1252 646 1252 730 c 2,30,-1
 1252 763 l 1,31,32
 1236 783 1236 783 1236 786 c 2,33,-1
 1227 781 l 2,34,35
 1222 781 1222 781 1186 786 c 1,36,37
 1137 786 1137 786 921 668 c 1,38,39
 760 567 760 567 709 527 c 1,40,41
 549 417 549 417 440 325 c 1,42,43
 309 228 309 228 207 141 c 0,44,45
 201 141 201 141 91 47 c 1,46,-1
 66 42 l 1,47,-1
 54 42 l 2,48,49
 18 42 18 42 0 113 c 1,50,51
 11 167 11 167 141 254 c 1,52,53
 141 267 141 267 274 362 c 1,54,55
 280 376 280 376 435 490 c 1,56,57
 484 536 484 536 585 603 c 1,58,59
 602 623 602 623 680 668 c 1,60,61
 722 705 722 705 767 725 c 1,62,63
 797 757 797 757 875 791 c 1,64,65
 928 840 928 840 1062 894 c 2,66,-1
 1161 932 l 1,67,-1
 1223 932 l 2,68,69
 1314 932 1314 932 1352 866 c 1,70,71
 1368 866 1368 866 1368 716 c 2,72,-1
 1368 692 l 1,73,74
 1360 623 1360 623 1360 617 c 2,75,-1
 1360 607 l 2,76,77
 1361 598 1361 598 1368 598 c 0,78,79
 1388 598 1388 598 1704 843 c 1,80,81
 1708 852 1708 852 1804 913 c 1,82,83
 1857 965 1857 965 1878 965 c 2,0,-1
EndSplineSet
EndChar

StartChar: W
Encoding: 87 87 58
Width: 24
Flags: W
LayerCount: 2
Fore
SplineSet
-880 -17 m 2,0,-1
 -865 -17 l 2,1,2
 -830 -17 -830 -17 -817 -65 c 1,3,-1
 -817 -213 l 2,4,5
 -817 -238 -817 -238 -832 -264 c 1,6,-1
 -829 -269 l 1,7,8
 -850 -335 -850 -335 -861 -339 c 1,9,10
 -897 -390 -897 -390 -914 -390 c 2,11,-1
 -999 -390 l 1,12,13
 -1034 -374 -1034 -374 -1062 -374 c 1,14,15
 -1071 -351 -1071 -351 -1098 -339 c 0,16,17
 -1137 -318 -1137 -318 -1137 -315 c 0,18,19
 -1142 -294 -1142 -294 -1166 -259 c 1,20,-1
 -1166 -122 l 2,21,22
 -1166 -92 -1166 -92 -1115 -49 c 1,23,-1
 -1101 -47 l 1,24,-1
 -1098 -47 l 2,25,26
 -1077 -47 -1077 -47 -1047 -87 c 1,27,28
 -1059 -124 -1059 -124 -1059 -130 c 2,29,-1
 -1059 -199 l 2,30,31
 -1059 -222 -1059 -222 -1052 -242 c 1,32,-1
 -1033 -242 l 1,33,34
 -990 -260 -990 -260 -977 -272 c 1,35,-1
 -972 -272 l 2,36,37
 -940 -272 -940 -272 -933 -213 c 1,38,39
 -926 -211 -926 -211 -926 -191 c 2,40,-1
 -926 -122 l 1,41,42
 -936 -94 -936 -94 -936 -89 c 0,43,44
 -921 -45 -921 -45 -914 -36 c 0,45,46
 -898 -17 -898 -17 -880 -17 c 2,0,-1
EndSplineSet
EndChar

StartChar: X
Encoding: 88 88 59
Width: 12
Flags: W
LayerCount: 2
Fore
SplineSet
-487 1389 m 2,0,-1
 -75 1389 l 2,1,2
 -62 1389 -62 1389 -44 1349 c 1,3,4
 -38 1349 -38 1349 -30 1334 c 1,5,6
 -30 1305 -30 1305 -82 1305 c 1,7,-1
 -121 1290 l 1,8,-1
 -515 1290 l 2,9,10
 -532 1290 -532 1290 -571 1317 c 1,11,12
 -574 1325 -574 1325 -574 1334 c 2,13,-1
 -574 1362 l 2,14,15
 -574 1370 -574 1370 -511 1381 c 1,16,17
 -506 1389 -506 1389 -487 1389 c 2,0,-1
EndSplineSet
EndChar

StartChar: Y
Encoding: 89 89 60
Width: 2006
Flags: W
LayerCount: 2
Fore
SplineSet
1640 935 m 2,0,-1
 1668 935 l 2,1,2
 1823 935 1823 935 1886 755 c 0,3,4
 1894 739 1894 739 1894 719 c 2,5,-1
 1894 705 l 2,6,7
 1894 680 1894 680 1862 654 c 1,8,-1
 1830 654 l 2,9,10
 1788 654 1788 654 1765 737 c 1,11,12
 1719 783 1719 783 1684 783 c 2,13,-1
 1612 783 l 2,14,15
 1569 783 1569 783 1467 728 c 1,16,17
 1467 718 1467 718 1418 695 c 1,18,-1
 1286 594 l 1,19,20
 1119 445 1119 445 943 263 c 1,21,22
 789 116 789 116 641 28 c 1,23,-1
 556 0 l 1,24,-1
 492 0 l 2,25,26
 379 0 379 0 326 175 c 1,27,28
 326 192 326 192 322 216 c 1,29,30
 326 225 326 225 326 230 c 0,31,32
 317 263 317 263 310 263 c 0,33,34
 298 263 298 263 218 161 c 1,35,36
 153 101 153 101 101 101 c 1,37,38
 8 121 8 121 8 207 c 1,39,40
 1 207 1 207 0 276 c 2,41,-1
 0 336 l 1,42,43
 16 567 16 567 36 567 c 1,44,45
 46 608 46 608 93 608 c 0,46,47
 135 608 135 608 145 539 c 1,48,49
 117 335 117 335 117 286 c 0,50,51
 119 258 119 258 129 258 c 2,52,-1
 141 258 l 1,53,54
 175 292 175 292 298 474 c 1,55,56
 357 594 357 594 399 594 c 2,57,-1
 415 594 l 1,58,59
 440 579 440 579 455 548 c 1,60,-1
 455 520 l 1,61,-1
 435 304 l 1,62,63
 435 143 435 143 496 143 c 1,64,65
 503 138 503 138 512 138 c 0,66,67
 646 138 646 138 935 433 c 1,68,69
 944 433 944 433 1003 502 c 1,70,71
 1166 649 1166 649 1177 668 c 1,72,73
 1502 935 1502 935 1640 935 c 2,0,-1
EndSplineSet
EndChar

StartChar: Z
Encoding: 90 90 61
Width: 1858
Flags: W
LayerCount: 2
Fore
SplineSet
1117 941 m 2,0,-1
 1141 941 l 2,1,2
 1232 941 1232 941 1260 872 c 1,3,4
 1291 821 1291 821 1291 714 c 1,5,-1
 1295 707 l 1,6,7
 1322 707 1322 707 1431 810 c 1,8,9
 1548 887 1548 887 1593 887 c 2,10,-1
 1635 887 l 2,11,12
 1735 887 1735 887 1763 730 c 1,13,-1
 1759 703 l 1,14,-1
 1759 664 l 1,15,16
 1745 480 1745 480 1713 480 c 1,17,18
 1688 472 1688 472 1682 472 c 0,19,20
 1644 472 1644 472 1628 515 c 1,21,-1
 1643 684 l 1,22,-1
 1643 711 l 2,23,24
 1643 759 1643 759 1620 776 c 1,25,-1
 1604 776 l 1,26,27
 1521 751 1521 751 1396 630 c 1,28,29
 1329 572 1329 572 1237 472 c 1,30,-1
 1202 465 l 1,31,-1
 1191 465 l 1,32,33
 1148 485 1148 485 1148 522 c 0,34,35
 1148 538 1148 538 1171 634 c 1,36,37
 1175 674 1175 674 1175 722 c 2,38,-1
 1175 745 l 2,39,40
 1175 818 1175 818 1129 818 c 1,41,42
 1129 822 1129 822 1110 822 c 0,43,44
 1051 822 1051 822 835 676 c 1,45,46
 731 597 731 597 731 591 c 0,47,48
 769 365 769 365 769 300 c 1,49,50
 784 263 784 263 793 169 c 0,51,52
 793 128 793 128 746 104 c 1,53,-1
 731 104 l 2,54,55
 665 104 665 104 665 227 c 1,56,57
 650 404 650 404 626 499 c 1,58,-1
 622 499 l 1,59,60
 597 487 597 487 398 311 c 0,61,62
 398 307 398 307 174 92 c 0,63,64
 82 0 82 0 62 0 c 2,65,-1
 54 0 l 2,66,67
 17 0 17 0 0 38 c 1,68,-1
 0 50 l 2,69,70
 0 84 0 84 46 119 c 1,71,72
 203 281 203 281 390 449 c 1,73,74
 500 554 500 554 677 695 c 0,75,76
 780 772 780 772 785 772 c 0,77,78
 957 895 957 895 990 895 c 1,79,80
 1007 912 1007 912 1067 929 c 1,81,82
 1075 939 1075 939 1117 941 c 2,0,-1
EndSplineSet
EndChar

StartChar: asciicircum
Encoding: 94 94 65
Width: 1497
Flags: W
LayerCount: 2
Fore
SplineSet
1108 1006 m 2,0,-1
 1217 1006 l 2,1,2
 1233 1006 1233 1006 1246 995 c 1,3,4
 1259 1006 1259 1006 1275 1006 c 2,5,-1
 1311 1006 l 2,6,7
 1328 1006 1328 1006 1347 867 c 1,8,-1
 1355 867 l 1,9,10
 1379 1006 1379 1006 1398 1006 c 2,11,-1
 1449 1006 l 1,12,-1
 1449 995 l 1,13,-1
 1434 963 l 1,14,-1
 1434 813 l 1,15,-1
 1449 781 l 1,16,-1
 1449 771 l 1,17,-1
 1391 771 l 1,18,-1
 1398 824 l 1,19,-1
 1398 931 l 1,20,-1
 1391 931 l 1,21,22
 1372 771 1372 771 1347 771 c 0,23,24
 1326 771 1326 771 1304 942 c 1,25,-1
 1297 942 l 1,26,-1
 1297 813 l 1,27,-1
 1311 781 l 1,28,-1
 1311 771 l 1,29,-1
 1253 771 l 1,30,-1
 1253 792 l 1,31,-1
 1268 792 l 1,32,-1
 1268 985 l 1,33,-1
 1246 985 l 1,34,-1
 1246 963 l 1,35,-1
 1239 963 l 1,36,-1
 1217 985 l 1,37,-1
 1188 985 l 1,38,-1
 1188 792 l 1,39,-1
 1202 792 l 1,40,-1
 1202 771 l 1,41,-1
 1137 771 l 1,42,-1
 1145 824 l 1,43,-1
 1145 985 l 1,44,-1
 1130 985 l 1,45,-1
 1094 974 l 1,46,-1
 1094 985 l 2,47,48
 1096 1006 1096 1006 1108 1006 c 2,0,-1
1007 985 m 1,49,-1
 1043 985 l 2,50,51
 1054 985 1054 985 1065 952 c 1,52,-1
 1065 931 l 2,53,54
 1065 916 1065 916 1043 899 c 1,55,-1
 1000 899 l 2,56,57
 983 899 983 899 978 952 c 1,58,-1
 1007 985 l 1,49,-1
43 974 m 2,59,-1
 203 974 l 2,60,61
 319 974 319 974 319 867 c 2,62,-1
 319 845 l 1,63,64
 310 760 310 760 275 760 c 1,65,66
 333 696 333 696 333 642 c 0,67,68
 333 514 333 514 232 514 c 2,69,-1
 43 514 l 2,70,71
 29 514 29 514 29 535 c 2,72,-1
 29 557 l 1,73,-1
 65 599 l 1,74,-1
 65 888 l 1,75,-1
 29 931 l 1,76,-1
 29 952 l 2,77,78
 31 974 31 974 43 974 c 2,59,-1
145 910 m 1,79,-1
 145 771 l 1,80,-1
 181 771 l 2,81,82
 239 771 239 771 239 845 c 0,83,84
 239 910 239 910 167 910 c 2,85,-1
 145 910 l 1,79,-1
478 845 m 2,86,-1
 514 845 l 2,87,88
 601 845 601 845 616 674 c 1,89,-1
 601 664 l 1,90,-1
 442 664 l 1,91,-1
 442 653 l 2,92,93
 442 557 442 557 514 557 c 1,94,95
 558 594 558 594 558 610 c 1,96,-1
 608 589 l 1,97,98
 584 503 584 503 514 503 c 2,99,-1
 478 503 l 2,100,101
 385 503 385 503 369 631 c 1,102,103
 362 650 362 650 362 674 c 0,104,105
 377 845 377 845 478 845 c 2,86,-1
652 835 m 2,106,-1
 732 835 l 2,107,108
 746 835 746 835 746 803 c 1,109,-1
 753 803 l 1,110,111
 781 835 781 835 819 835 c 2,112,-1
 833 835 l 2,113,114
 913 835 913 835 913 706 c 2,115,-1
 913 589 l 1,116,-1
 942 546 l 1,117,-1
 942 535 l 2,118,119
 942 514 942 514 927 514 c 2,120,-1
 819 514 l 2,121,122
 804 514 804 514 804 535 c 2,123,-1
 804 546 l 1,124,-1
 833 589 l 1,125,-1
 833 749 l 1,126,127
 822 749 822 749 804 771 c 1,128,129
 746 771 746 771 746 696 c 2,130,-1
 746 589 l 1,131,-1
 782 546 l 1,132,-1
 782 535 l 2,133,134
 782 514 782 514 768 514 c 2,135,-1
 652 514 l 2,136,137
 637 514 637 514 637 535 c 2,138,-1
 637 546 l 1,139,-1
 674 589 l 1,140,-1
 674 749 l 1,141,-1
 637 792 l 1,142,-1
 637 813 l 2,143,144
 640 835 640 835 652 835 c 2,106,-1
978 835 m 2,145,-1
 1050 835 l 1,146,147
 1065 831 1065 831 1065 813 c 2,148,-1
 1065 589 l 1,149,-1
 1094 546 l 1,150,-1
 1094 535 l 2,151,152
 1094 514 1094 514 1079 514 c 2,153,-1
 978 514 l 2,154,155
 963 514 963 514 963 535 c 2,156,-1
 963 546 l 1,157,-1
 992 589 l 1,158,-1
 992 749 l 1,159,-1
 963 792 l 1,160,-1
 963 813 l 2,161,162
 966 835 966 835 978 835 c 2,145,-1
442 728 m 1,163,-1
 442 706 l 1,164,-1
 543 706 l 1,165,166
 543 792 543 792 485 792 c 1,167,168
 461 783 461 783 442 728 c 1,163,-1
145 717 m 1,169,-1
 145 578 l 1,170,-1
 181 578 l 2,171,172
 246 578 246 578 246 653 c 0,173,174
 246 717 246 717 174 717 c 2,175,-1
 145 717 l 1,169,-1
210 471 m 1,176,177
 227 454 227 454 319 86 c 1,178,179
 348 70 348 70 348 54 c 2,180,-1
 348 32 l 2,181,182
 348 11 348 11 333 11 c 2,183,-1
 217 11 l 2,184,185
 203 11 203 11 203 32 c 2,186,-1
 203 43 l 2,187,188
 203 64 203 64 232 64 c 1,189,-1
 232 75 l 2,190,191
 232 102 232 102 217 171 c 1,192,-1
 123 171 l 2,193,194
 101 171 101 171 101 64 c 1,195,196
 123 64 123 64 123 43 c 2,197,-1
 123 32 l 2,198,199
 123 11 123 11 109 11 c 2,200,-1
 14 11 l 2,201,202
 0 11 0 11 0 32 c 2,203,-1
 0 54 l 1,204,205
 29 63 29 63 130 471 c 1,206,-1
 210 471 l 1,176,177
768 428 m 1,207,-1
 775 407 l 1,208,-1
 768 407 l 1,209,-1
 775 385 l 1,210,-1
 775 375 l 2,211,212
 775 364 775 364 768 364 c 1,213,214
 775 343 775 343 775 332 c 1,215,-1
 819 332 l 1,216,217
 833 328 833 328 833 310 c 2,218,-1
 833 300 l 2,219,220
 833 278 833 278 819 278 c 2,221,-1
 775 278 l 1,222,-1
 775 150 l 2,223,224
 775 139 775 139 768 139 c 1,225,226
 778 64 778 64 790 64 c 1,227,-1
 826 107 l 1,228,-1
 833 86 l 1,229,230
 833 0 833 0 775 0 c 2,231,-1
 753 0 l 2,232,233
 695 0 695 0 695 96 c 2,234,-1
 695 278 l 1,235,236
 659 278 659 278 659 300 c 2,237,-1
 659 310 l 2,238,239
 659 332 659 332 703 332 c 1,240,-1
 703 385 l 1,241,242
 712 428 712 428 768 428 c 1,207,-1
159 385 m 1,243,-1
 123 214 l 1,244,-1
 203 214 l 1,245,-1
 203 225 l 1,246,247
 174 385 174 385 159 385 c 1,243,-1
985 342 m 1,248,-1
 1021 342 l 2,249,250
 1108 342 1108 342 1130 171 c 1,251,252
 1110 0 1110 0 1021 0 c 2,253,-1
 985 0 l 1,254,255
 862 21 862 21 862 171 c 0,256,257
 862 319 862 319 985 342 c 1,248,-1
369 332 m 2,258,-1
 449 332 l 2,259,260
 464 332 464 332 464 300 c 1,261,-1
 471 300 l 1,262,263
 497 332 497 332 522 332 c 2,264,-1
 551 332 l 2,265,266
 630 332 630 332 630 203 c 2,267,-1
 630 64 l 1,268,269
 659 64 659 64 659 43 c 2,270,-1
 659 32 l 2,271,272
 659 11 659 11 645 11 c 2,273,-1
 536 11 l 2,274,275
 522 11 522 11 522 32 c 2,276,-1
 522 43 l 2,277,278
 522 64 522 64 551 64 c 1,279,-1
 551 225 l 2,280,281
 551 241 551 241 522 268 c 1,282,283
 467 255 467 255 464 225 c 2,284,-1
 464 86 l 1,285,-1
 500 43 l 1,286,-1
 500 32 l 2,287,288
 500 11 500 11 485 11 c 2,289,-1
 369 11 l 2,290,291
 355 11 355 11 355 32 c 2,292,-1
 355 43 l 1,293,294
 391 75 391 75 391 118 c 2,295,-1
 391 246 l 1,296,-1
 355 289 l 1,297,-1
 355 310 l 2,298,299
 357 332 357 332 369 332 c 2,258,-1
1166 332 m 2,300,-1
 1246 332 l 2,301,302
 1260 332 1260 332 1260 300 c 1,303,-1
 1268 300 l 1,304,305
 1294 332 1294 332 1318 332 c 2,306,-1
 1347 332 l 2,307,308
 1427 332 1427 332 1427 171 c 2,309,-1
 1427 64 l 1,310,311
 1456 64 1456 64 1456 43 c 2,312,-1
 1456 32 l 2,313,314
 1456 11 1456 11 1442 11 c 2,315,-1
 1333 11 l 2,316,317
 1318 11 1318 11 1318 32 c 2,318,-1
 1318 43 l 2,319,320
 1318 64 1318 64 1347 64 c 1,321,-1
 1347 225 l 1,322,323
 1332 268 1332 268 1311 268 c 1,324,325
 1260 253 1260 253 1260 225 c 2,326,-1
 1260 86 l 1,327,-1
 1297 43 l 1,328,-1
 1297 32 l 2,329,330
 1297 11 1297 11 1282 11 c 2,331,-1
 1166 11 l 2,332,333
 1152 11 1152 11 1152 32 c 2,334,-1
 1152 43 l 1,335,336
 1188 75 1188 75 1188 118 c 2,337,-1
 1188 246 l 1,338,-1
 1152 289 l 1,339,-1
 1152 310 l 2,340,341
 1154 332 1154 332 1166 332 c 2,300,-1
942 171 m 0,342,343
 942 61 942 61 1000 54 c 1,344,345
 1041 54 1041 54 1050 171 c 1,346,347
 1050 255 1050 255 1007 289 c 1,348,349
 942 289 942 289 942 171 c 0,342,343
EndSplineSet
EndChar

StartChar: underscore
Encoding: 95 95 66
Width: 1024
Flags: W
LayerCount: 2
Fore
SplineSet
0 -100 m 1,0,-1
 1024 -100 l 1,1,-1
 1024 -160 l 1,2,-1
 0 -160 l 1,3,-1
 0 -100 l 1,0,-1
EndSplineSet
EndChar

StartChar: grave
Encoding: 96 96 67
Width: 1024
Flags: W
LayerCount: 2
Fore
SplineSet
673 1079 m 1,0,-1
 604 1079 l 1,1,-1
 274 1281 l 2,2,3
 243 1301 243 1301 227.5 1321 c 128,-1,4
 212 1341 212 1341 212 1363 c 0,5,6
 212 1394 212 1394 232.5 1414 c 128,-1,7
 253 1434 253 1434 286 1434 c 0,8,9
 306 1434 306 1434 326.5 1422 c 128,-1,10
 347 1410 347 1410 382 1375 c 2,11,-1
 673 1079 l 1,0,-1
EndSplineSet
EndChar

StartChar: a
Encoding: 97 97 68
Width: 1965
Flags: W
LayerCount: 2
Fore
SplineSet
1792 970 m 0,0,1
 1846 970 1846 970 1846 915 c 0,2,3
 1843 882 1843 882 1688 787 c 1,4,5
 1623 736 1623 736 1530 681 c 1,6,-1
 1407 589 l 2,7,8
 1407 585 1407 585 1299 509 c 1,9,10
 1244 450 1244 450 1195 450 c 0,11,12
 1155 450 1155 450 1148 498 c 1,13,14
 1152 606 1152 606 1152 637 c 0,15,16
 1152 736 1152 736 1110 736 c 1,17,18
 1110 739 1110 739 1106 739 c 2,19,-1
 1068 739 l 2,20,21
 1025 739 1025 739 933 695 c 1,22,23
 733 583 733 583 728 549 c 1,24,25
 743 508 743 508 759 351 c 0,26,27
 763 351 763 351 767 318 c 0,28,29
 767 315 767 315 763 315 c 1,30,31
 775 245 775 245 782 157 c 1,32,33
 773 99 773 99 736 99 c 1,34,-1
 736 102 l 1,35,-1
 728 99 l 1,36,37
 663 99 663 99 663 220 c 0,38,39
 663 232 663 232 636 403 c 1,40,41
 636 469 636 469 613 469 c 2,42,-1
 605 469 l 2,43,44
 598 469 598 469 516 395 c 1,45,46
 435 332 435 332 331 234 c 1,47,-1
 297 205 l 1,48,49
 297 199 297 199 123 44 c 1,50,51
 87 0 87 0 54 0 c 0,52,53
 0 0 0 0 0 51 c 0,54,55
 0 79 0 79 42 113 c 1,56,57
 269 328 269 328 389 432 c 1,58,59
 397 432 397 432 470 501 c 1,60,61
 608 610 608 610 674 655 c 0,62,63
 826 765 826 765 890 791 c 1,64,65
 901 791 901 791 975 835 c 1,66,67
 1020 849 1020 849 1091 853 c 1,68,69
 1113 849 1113 849 1152 849 c 1,70,71
 1185 833 1185 833 1206 813 c 1,72,73
 1264 735 1264 735 1264 684 c 1,74,75
 1274 644 1274 644 1283 644 c 0,76,77
 1309 644 1309 644 1360 692 c 1,78,79
 1442 744 1442 744 1542 820 c 1,80,81
 1629 874 1629 874 1653 900 c 1,82,83
 1664 900 1664 900 1734 952 c 1,84,85
 1772 970 1772 970 1792 970 c 0,0,1
EndSplineSet
EndChar

StartChar: b
Encoding: 98 98 69
Width: 1799
Flags: W
LayerCount: 2
Fore
SplineSet
1611 929 m 1,0,-1
 1627 929 l 2,1,2
 1672 929 1672 929 1681 868 c 1,3,4
 1681 837 1681 837 1532 729 c 0,5,6
 1401 636 1401 636 1359 599 c 1,7,8
 1231 513 1231 513 1231 505 c 0,9,10
 1221 481 1221 481 1218 481 c 2,11,-1
 1223 440 l 1,12,-1
 1223 130 l 2,13,14
 1223 53 1223 53 1169 53 c 2,15,-1
 1152 53 l 2,16,17
 1107 53 1107 53 1103 118 c 1,18,-1
 1107 139 l 2,19,20
 1107 151 1107 151 1103 167 c 1,21,-1
 1107 204 l 2,22,23
 1107 222 1107 222 1103 257 c 1,24,25
 1107 294 1107 294 1107 338 c 1,26,-1
 1103 367 l 1,27,28
 1107 374 1107 374 1107 383 c 0,29,30
 1102 403 1102 403 1095 403 c 2,31,-1
 1086 403 l 1,32,33
 1062 399 1062 399 913 297 c 1,34,-1
 801 232 l 1,35,36
 797 223 797 223 562 98 c 1,37,38
 481 65 481 65 397 37 c 1,39,40
 397 26 397 26 227 0 c 1,41,42
 80 0 80 0 21 139 c 0,43,44
 9 159 9 159 0 253 c 1,45,46
 12 386 12 386 29 428 c 1,47,48
 60 558 60 558 91 558 c 1,49,50
 91 563 91 563 128 570 c 1,51,52
 182 544 182 544 182 517 c 2,53,-1
 182 513 l 2,54,55
 182 499 182 499 153 399 c 1,56,57
 128 297 128 297 128 236 c 2,58,-1
 128 228 l 2,59,60
 128 126 128 126 231 126 c 0,61,62
 357 126 357 126 611 261 c 1,63,64
 847 395 847 395 900 436 c 1,65,66
 923 436 923 436 1066 546 c 1,67,68
 1075 546 1075 546 1194 632 c 0,69,70
 1200 632 1200 632 1297 705 c 1,71,72
 1353 741 1353 741 1425 803 c 1,73,74
 1432 803 1432 803 1578 917 c 1,75,76
 1592 917 1592 917 1611 929 c 1,0,-1
EndSplineSet
EndChar

StartChar: c
Encoding: 99 99 70
Width: 1899
Flags: W
LayerCount: 2
Fore
SplineSet
1024 972 m 0,0,1
 1080 968 1080 968 1080 916 c 0,2,3
 1068 754 1068 754 1044 636 c 1,4,5
 1056 632 1056 632 1056 628 c 1,6,7
 1107 651 1107 651 1140 688 c 0,8,9
 1157 705 1157 705 1252 760 c 1,10,11
 1252 771 1252 771 1292 788 c 1,12,13
 1321 815 1321 815 1408 852 c 1,14,15
 1482 908 1482 908 1596 908 c 2,16,-1
 1628 908 l 2,17,18
 1796 908 1796 908 1796 640 c 0,19,20
 1796 542 1796 542 1748 300 c 1,21,22
 1748 266 1748 266 1684 236 c 1,23,-1
 1680 236 l 2,24,25
 1639 236 1639 236 1624 296 c 1,26,27
 1624 323 1624 323 1652 432 c 1,28,29
 1680 579 1680 579 1680 632 c 1,30,31
 1676 655 1676 655 1676 696 c 2,32,-1
 1676 720 l 1,33,34
 1649 792 1649 792 1608 792 c 1,35,36
 1475 764 1475 764 1412 724 c 0,37,38
 1252 620 1252 620 1252 616 c 0,39,40
 1163 551 1163 551 1048 456 c 1,41,42
 1012 456 1012 456 1004 312 c 1,43,44
 973 28 973 28 964 28 c 1,45,46
 936 0 936 0 920 0 c 2,47,-1
 916 0 l 2,48,49
 881 0 881 0 856 44 c 1,50,-1
 856 60 l 1,51,52
 880 251 880 251 880 316 c 1,53,54
 872 316 872 316 872 324 c 1,55,56
 865 324 865 324 768 264 c 0,57,58
 680 205 680 205 528 136 c 1,59,60
 495 113 495 113 424 96 c 1,61,62
 362 72 362 72 296 72 c 0,63,64
 108 72 108 72 68 164 c 1,65,66
 26 196 26 196 4 340 c 0,67,68
 0 359 0 359 0 396 c 0,69,70
 0 451 0 451 32 624 c 0,71,72
 55 728 55 728 96 728 c 2,73,-1
 124 728 l 2,74,75
 156 728 156 728 164 684 c 1,76,-1
 164 660 l 1,77,78
 124 473 124 473 124 356 c 1,79,80
 140 247 140 247 176 220 c 1,81,82
 229 192 229 192 248 192 c 0,83,84
 373 192 373 192 528 264 c 1,85,86
 690 350 690 350 852 452 c 1,87,88
 908 493 908 493 920 548 c 1,89,90
 956 952 956 952 984 952 c 1,91,92
 1007 972 1007 972 1024 972 c 0,0,1
EndSplineSet
EndChar

StartChar: d
Encoding: 100 100 71
Width: 1888
Flags: W
LayerCount: 2
Fore
SplineSet
1720 980 m 0,0,1
 1771 980 1771 980 1784 924 c 1,2,3
 1784 882 1784 882 1668 820 c 1,4,5
 1576 735 1576 735 1576 700 c 1,6,7
 1552 663 1552 663 1552 620 c 1,8,9
 1558 579 1558 579 1612 444 c 1,10,11
 1628 349 1628 349 1628 320 c 2,12,-1
 1628 280 l 2,13,14
 1628 107 1628 107 1432 32 c 1,15,16
 1327 0 1327 0 1280 0 c 2,17,-1
 1148 0 l 2,18,19
 1088 0 1088 0 996 20 c 1,20,21
 919 20 919 20 892 64 c 1,22,-1
 892 80 l 2,23,24
 892 115 892 115 948 136 c 1,25,26
 1139 120 1139 120 1172 120 c 2,27,-1
 1232 120 l 2,28,29
 1384 120 1384 120 1432 164 c 1,30,31
 1470 164 1470 164 1508 268 c 1,32,33
 1512 318 1512 318 1512 320 c 0,34,35
 1512 383 1512 383 1448 540 c 0,36,37
 1436 576 1436 576 1428 620 c 1,38,39
 1440 701 1440 701 1440 716 c 2,40,-1
 1440 724 l 1,41,42
 1327 682 1327 682 1060 552 c 1,43,44
 986 523 986 523 804 432 c 1,45,46
 787 432 787 432 668 368 c 1,47,48
 594 341 594 341 524 308 c 0,49,50
 482 284 482 284 360 232 c 1,51,52
 333 213 333 213 192 152 c 1,53,-1
 116 116 l 1,54,55
 103 116 103 116 84 100 c 1,56,-1
 40 100 l 1,57,58
 0 124 0 124 0 152 c 0,59,60
 0 204 0 204 112 240 c 1,61,62
 184 282 184 282 320 336 c 1,63,64
 327 348 327 348 520 428 c 1,65,66
 596 472 596 472 788 552 c 1,67,68
 798 566 798 566 932 620 c 1,69,70
 949 632 949 632 1124 712 c 1,71,72
 1168 727 1168 727 1224 760 c 1,73,74
 1233 760 1233 760 1380 828 c 0,75,76
 1389 828 1389 828 1424 852 c 1,77,78
 1575 917 1575 917 1656 960 c 0,79,80
 1699 980 1699 980 1720 980 c 0,0,1
EndSplineSet
EndChar

StartChar: e
Encoding: 101 101 72
Width: 6
Flags: W
LayerCount: 2
Fore
SplineSet
-963 1406 m 2,0,1
 -953 1406 -953 1406 -940 1388 c 1,2,3
 -894 1385 -894 1385 -894 1360 c 1,4,5
 -890 1360 -890 1360 -890 1357 c 2,6,-1
 -878 1360 l 1,7,-1
 -875 1360 l 2,8,9
 -856 1360 -856 1360 -804 1287 c 1,10,11
 -799 1260 -799 1260 -799 1251 c 2,12,-1
 -799 1184 l 1,13,14
 -806 1112 -806 1112 -813 1112 c 1,15,-1
 -840 1089 l 1,16,-1
 -854 1086 l 1,17,-1
 -870 1086 l 1,18,19
 -918 1118 -918 1118 -918 1138 c 2,20,-1
 -918 1151 l 1,21,22
 -911 1176 -911 1176 -911 1190 c 2,23,-1
 -911 1236 l 2,24,25
 -911 1261 -911 1261 -949 1285 c 1,26,-1
 -973 1282 l 1,27,-1
 -1004 1282 l 1,28,-1
 -1032 1285 l 1,29,30
 -1042 1279 -1042 1279 -1042 1226 c 2,31,-1
 -1042 1182 l 2,32,33
 -1042 1160 -1042 1160 -1035 1125 c 1,34,-1
 -1035 1112 l 1,35,36
 -1042 1053 -1042 1053 -1063 1053 c 1,37,-1
 -1075 1056 l 1,38,-1
 -1102 1056 l 2,39,40
 -1116 1056 -1116 1056 -1137 1089 c 1,41,42
 -1147 1093 -1147 1093 -1147 1112 c 2,43,-1
 -1147 1174 l 1,44,45
 -1154 1224 -1154 1224 -1154 1233 c 1,46,47
 -1147 1246 -1147 1246 -1147 1267 c 2,48,-1
 -1147 1308 l 2,49,50
 -1147 1326 -1147 1326 -1104 1362 c 1,51,52
 -1104 1371 -1104 1371 -1063 1406 c 1,53,-1
 -963 1406 l 2,0,1
EndSplineSet
EndChar

StartChar: f
Encoding: 102 102 73
Width: 1793
Flags: W
LayerCount: 2
Fore
SplineSet
1634 947 m 0,0,1
 1668 947 1668 947 1692 910 c 1,2,-1
 1692 885 l 1,3,4
 1687 842 1687 842 1526 733 c 0,5,6
 1474 700 1474 700 1459 679 c 1,7,8
 1127 436 1127 436 894 288 c 0,9,10
 680 148 680 148 432 41 c 1,11,12
 306 0 306 0 220 0 c 2,13,-1
 183 0 l 2,14,15
 60 0 60 0 4 165 c 0,16,17
 0 187 0 187 0 202 c 2,18,-1
 0 280 l 1,19,20
 29 561 29 561 100 576 c 1,21,22
 100 581 100 581 104 581 c 2,23,-1
 129 581 l 2,24,25
 163 581 163 581 175 531 c 1,26,-1
 175 511 l 1,27,-1
 129 296 l 1,28,29
 125 239 125 239 121 235 c 1,30,31
 125 227 125 227 125 222 c 1,32,-1
 121 222 l 1,33,34
 141 119 141 119 195 119 c 2,35,-1
 249 119 l 2,36,37
 330 119 330 119 599 251 c 1,38,39
 602 258 602 258 732 329 c 1,40,41
 769 359 769 359 869 412 c 1,42,43
 926 457 926 457 1027 515 c 1,44,45
 1028 521 1028 521 1214 651 c 0,46,47
 1220 651 1220 651 1397 786 c 0,48,49
 1474 840 1474 840 1588 931 c 1,50,51
 1616 947 1616 947 1634 947 c 0,0,1
EndSplineSet
EndChar

StartChar: g
Encoding: 103 103 74
Width: 1757
Flags: W
LayerCount: 2
Fore
SplineSet
1338 959 m 2,0,-1
 1391 959 l 2,1,2
 1538 959 1538 959 1602 801 c 1,3,4
 1611 801 1611 801 1631 702 c 0,5,6
 1639 668 1639 668 1639 631 c 2,7,-1
 1639 590 l 1,8,9
 1632 374 1632 374 1581 374 c 1,10,-1
 1556 369 l 1,11,-1
 1544 369 l 1,12,13
 1499 387 1499 387 1499 432 c 1,14,15
 1511 551 1511 551 1511 590 c 2,16,-1
 1511 614 l 2,17,18
 1511 790 1511 790 1441 822 c 0,19,20
 1412 834 1412 834 1346 839 c 1,21,22
 1286 839 1286 839 1073 747 c 1,23,24
 1048 725 1048 725 900 643 c 1,25,26
 855 607 855 607 727 523 c 1,27,28
 726 517 726 517 553 394 c 1,29,30
 444 301 444 301 372 249 c 1,31,32
 316 193 316 193 157 66 c 1,33,34
 89 0 89 0 62 0 c 2,35,-1
 45 0 l 2,36,37
 10 0 10 0 0 54 c 1,38,39
 0 105 0 105 95 174 c 1,40,41
 110 194 110 194 301 349 c 1,42,43
 449 476 449 476 508 511 c 1,44,45
 508 518 508 518 594 577 c 2,46,-1
 756 697 l 1,47,-1
 933 810 l 1,48,49
 1167 935 1167 935 1230 938 c 1,50,51
 1262 959 1262 959 1338 959 c 2,0,-1
EndSplineSet
EndChar

StartChar: h
Encoding: 104 104 75
Width: 1870
Flags: W
LayerCount: 2
Fore
SplineSet
1562 923 m 2,0,-1
 1611 923 l 2,1,2
 1685 923 1685 923 1730 835 c 1,3,4
 1763 780 1763 780 1763 676 c 2,5,-1
 1763 587 l 2,6,7
 1763 458 1763 458 1710 238 c 0,8,9
 1694 185 1694 185 1644 185 c 1,10,11
 1590 202 1590 202 1590 234 c 2,12,-1
 1590 261 l 1,13,14
 1644 475 1644 475 1644 667 c 1,15,-1
 1640 676 l 2,16,17
 1640 680 1640 680 1644 680 c 1,18,19
 1628 795 1628 795 1590 795 c 2,20,-1
 1545 795 l 2,21,22
 1500 795 1500 795 1385 729 c 1,23,-1
 1225 609 l 1,24,25
 1153 541 1153 541 1089 495 c 1,26,27
 1040 432 1040 432 892 314 c 0,28,29
 760 212 760 212 662 159 c 1,30,31
 662 152 662 152 551 93 c 0,32,33
 379 4 379 4 304 4 c 1,34,35
 289 0 289 0 259 0 c 0,36,37
 91 0 91 0 37 146 c 1,38,39
 12 202 12 202 0 314 c 0,40,41
 0 318 0 318 4 318 c 1,42,43
 4 323 4 323 0 331 c 1,44,45
 4 413 4 413 4 450 c 0,46,47
 4 455 4 455 8 464 c 0,48,49
 8 468 8 468 4 468 c 1,50,51
 41 720 41 720 74 720 c 1,52,-1
 86 729 l 1,53,-1
 107 729 l 2,54,55
 153 729 153 729 160 658 c 1,56,57
 123 435 123 435 123 309 c 1,58,59
 148 163 148 163 185 163 c 1,60,61
 185 150 185 150 226 141 c 1,62,-1
 296 141 l 2,63,64
 383 141 383 141 555 238 c 1,65,-1
 682 318 l 1,66,67
 712 346 712 346 818 411 c 1,68,69
 885 474 885 474 937 508 c 1,70,71
 965 548 965 548 1044 609 c 1,72,73
 1244 792 1244 792 1319 826 c 1,74,75
 1444 923 1444 923 1562 923 c 2,0,-1
EndSplineSet
EndChar

StartChar: i
Encoding: 105 105 76
Width: 18
Flags: W
LayerCount: 2
Fore
SplineSet
-897 1420 m 2,0,-1
 -884 1420 l 2,1,2
 -852 1420 -852 1420 -840 1374 c 1,3,-1
 -840 1234 l 2,4,5
 -840 1210 -840 1210 -853 1185 c 1,6,-1
 -851 1180 l 1,7,8
 -870 1117 -870 1117 -879 1114 c 1,9,10
 -912 1065 -912 1065 -927 1065 c 2,11,-1
 -1004 1065 l 1,12,13
 -1035 1080 -1035 1080 -1060 1080 c 1,14,15
 -1068 1102 -1068 1102 -1093 1114 c 0,16,17
 -1128 1134 -1128 1134 -1128 1137 c 0,18,19
 -1133 1156 -1133 1156 -1154 1190 c 1,20,-1
 -1154 1320 l 2,21,22
 -1154 1348 -1154 1348 -1108 1389 c 1,23,-1
 -1095 1392 l 1,24,-1
 -1093 1392 l 2,25,26
 -1074 1392 -1074 1392 -1047 1354 c 1,27,28
 -1058 1319 -1058 1319 -1058 1313 c 2,29,-1
 -1058 1246 l 2,30,31
 -1058 1224 -1058 1224 -1052 1205 c 1,32,-1
 -1034 1205 l 1,33,34
 -995 1189 -995 1189 -984 1177 c 1,35,-1
 -980 1177 l 2,36,37
 -951 1177 -951 1177 -945 1234 c 1,38,39
 -938 1235 -938 1235 -938 1254 c 2,40,-1
 -938 1320 l 1,41,42
 -947 1347 -947 1347 -947 1351 c 0,43,44
 -934 1393 -934 1393 -927 1402 c 0,45,46
 -913 1420 -913 1420 -897 1420 c 2,0,-1
EndSplineSet
EndChar

StartChar: j
Encoding: 106 106 77
Width: 1864
Flags: W
LayerCount: 2
Fore
SplineSet
1117 941 m 2,0,-1
 1141 941 l 2,1,2
 1232 941 1232 941 1260 872 c 1,3,4
 1291 821 1291 821 1291 714 c 1,5,-1
 1295 707 l 1,6,7
 1322 707 1322 707 1431 810 c 1,8,9
 1548 887 1548 887 1593 887 c 2,10,-1
 1635 887 l 2,11,12
 1735 887 1735 887 1763 730 c 1,13,-1
 1759 703 l 1,14,-1
 1759 664 l 1,15,16
 1745 480 1745 480 1713 480 c 1,17,18
 1688 472 1688 472 1682 472 c 0,19,20
 1644 472 1644 472 1628 515 c 1,21,-1
 1643 684 l 1,22,-1
 1643 711 l 2,23,24
 1643 759 1643 759 1620 776 c 1,25,-1
 1604 776 l 1,26,27
 1521 751 1521 751 1396 630 c 1,28,29
 1329 572 1329 572 1237 472 c 1,30,-1
 1202 465 l 1,31,-1
 1191 465 l 1,32,33
 1148 485 1148 485 1148 522 c 0,34,35
 1148 538 1148 538 1171 634 c 1,36,37
 1175 674 1175 674 1175 722 c 2,38,-1
 1175 745 l 2,39,40
 1175 818 1175 818 1129 818 c 1,41,42
 1129 822 1129 822 1110 822 c 0,43,44
 1051 822 1051 822 835 676 c 1,45,46
 731 597 731 597 731 591 c 0,47,48
 769 365 769 365 769 300 c 1,49,50
 784 263 784 263 793 169 c 0,51,52
 793 128 793 128 746 104 c 1,53,-1
 731 104 l 2,54,55
 665 104 665 104 665 227 c 1,56,57
 650 404 650 404 626 499 c 1,58,-1
 622 499 l 1,59,60
 597 487 597 487 398 311 c 0,61,62
 398 307 398 307 174 92 c 0,63,64
 82 0 82 0 62 0 c 2,65,-1
 54 0 l 2,66,67
 17 0 17 0 0 38 c 1,68,-1
 0 50 l 2,69,70
 0 84 0 84 46 119 c 1,71,72
 203 281 203 281 390 449 c 1,73,74
 500 554 500 554 677 695 c 0,75,76
 780 772 780 772 785 772 c 0,77,78
 957 895 957 895 990 895 c 1,79,80
 1007 912 1007 912 1067 929 c 1,81,82
 1075 939 1075 939 1117 941 c 2,0,-1
EndSplineSet
EndChar

StartChar: k
Encoding: 107 107 78
Width: 1740
Flags: W
LayerCount: 2
Fore
SplineSet
1364 944 m 2,0,-1
 1388 944 l 2,1,2
 1526 944 1526 944 1568 860 c 1,3,4
 1608 803 1608 803 1624 716 c 1,5,-1
 1632 648 l 1,6,7
 1625 388 1625 388 1568 388 c 1,8,9
 1546 384 1546 384 1536 384 c 0,10,11
 1492 398 1492 398 1492 444 c 2,12,-1
 1492 452 l 1,13,-1
 1512 580 l 1,14,-1
 1516 644 l 1,15,-1
 1512 668 l 2,16,17
 1512 672 1512 672 1516 672 c 1,18,19
 1516 695 1516 695 1488 776 c 1,20,21
 1454 824 1454 824 1400 824 c 2,22,-1
 1332 824 l 1,23,24
 1100 753 1100 753 1100 736 c 1,25,26
 963 676 963 676 884 616 c 1,27,28
 792 571 792 571 792 540 c 1,29,-1
 788 540 l 1,30,31
 842 439 842 439 896 232 c 1,32,33
 904 232 904 232 912 108 c 1,34,-1
 912 84 l 1,35,36
 891 44 891 44 852 44 c 0,37,38
 792 44 792 44 792 144 c 1,39,-1
 752 312 l 1,40,41
 700 441 700 441 680 468 c 1,42,-1
 668 468 l 1,43,-1
 596 412 l 1,44,45
 550 386 550 386 484 328 c 1,46,47
 362 234 362 234 176 80 c 1,48,49
 92 0 92 0 64 0 c 2,50,-1
 56 0 l 2,51,52
 5 0 5 0 0 64 c 0,53,54
 0 89 0 89 148 208 c 1,55,56
 303 339 303 339 556 532 c 1,57,-1
 716 644 l 1,58,-1
 828 724 l 1,59,60
 840 724 840 724 928 780 c 0,61,62
 996 828 996 828 1072 856 c 1,63,64
 1095 871 1095 871 1168 900 c 1,65,66
 1249 944 1249 944 1364 944 c 2,0,-1
EndSplineSet
EndChar

StartChar: l
Encoding: 108 108 79
Width: 1935
Flags: W
LayerCount: 2
Fore
SplineSet
1768 959 m 1,0,-1
 1804 959 l 1,1,2
 1840 931 1840 931 1840 908 c 0,3,4
 1840 849 1840 849 1752 805 c 1,5,6
 1752 798 1752 798 1660 728 c 0,7,8
 1487 599 1487 599 1448 561 c 1,9,10
 1438 561 1438 561 1312 458 c 1,11,12
 1225 398 1225 398 1212 385 c 1,13,-1
 1188 381 l 1,14,15
 1128 381 1128 381 1128 445 c 1,16,17
 1164 598 1164 598 1164 681 c 0,18,19
 1164 766 1164 766 1136 766 c 1,20,21
 1136 771 1136 771 1132 771 c 2,22,-1
 1088 771 l 1,23,24
 900 709 900 709 900 685 c 1,25,26
 774 609 774 609 704 548 c 1,27,28
 657 523 657 523 416 313 c 1,29,-1
 268 176 l 1,30,31
 178 101 178 101 112 30 c 1,32,33
 112 15 112 15 44 0 c 1,34,35
 0 16 0 16 0 43 c 2,36,-1
 0 60 l 2,37,38
 0 107 0 107 112 197 c 1,39,-1
 244 317 l 1,40,41
 262 341 262 341 356 420 c 1,42,43
 388 458 388 458 432 488 c 1,44,-1
 604 634 l 1,45,46
 613 634 613 634 644 664 c 1,47,48
 650 664 650 664 796 771 c 1,49,50
 1004 903 1004 903 1100 903 c 2,51,-1
 1120 903 l 2,52,53
 1225 903 1225 903 1264 818 c 1,54,55
 1288 745 1288 745 1288 659 c 2,56,-1
 1288 638 l 2,57,58
 1288 628 1288 628 1284 621 c 1,59,60
 1288 612 1288 612 1288 608 c 1,61,-1
 1308 608 l 1,62,63
 1490 756 1490 756 1592 831 c 2,64,-1
 1648 873 l 2,65,66
 1666 891 1666 891 1768 959 c 1,0,-1
EndSplineSet
EndChar

StartChar: m
Encoding: 109 109 80
Width: 1798
Flags: W
LayerCount: 2
Fore
SplineSet
1651 935 m 1,0,1
 1710 929 1710 929 1710 878 c 2,2,-1
 1710 873 l 2,3,4
 1710 837 1710 837 1604 771 c 1,5,-1
 1389 607 l 1,6,7
 1298 552 1298 552 1292 541 c 1,8,9
 1151 437 1151 437 815 230 c 0,10,11
 770 200 770 200 697 168 c 1,12,13
 697 155 697 155 536 82 c 1,14,15
 525 82 525 82 410 29 c 1,16,-1
 253 0 l 1,17,-1
 182 0 l 2,18,19
 102 0 102 0 30 111 c 1,20,21
 8 163 8 163 0 230 c 1,22,23
 17 570 17 570 110 570 c 0,24,25
 173 570 173 570 173 517 c 2,26,-1
 173 509 l 2,27,28
 173 462 173 462 135 361 c 0,29,30
 135 357 135 357 139 357 c 2,31,-1
 127 267 l 1,32,33
 132 135 132 135 177 135 c 1,34,35
 177 123 177 123 236 123 c 0,36,37
 307 123 307 123 456 176 c 1,38,39
 456 189 456 189 515 205 c 1,40,41
 642 270 642 270 705 312 c 1,42,43
 745 331 745 331 756 349 c 1,44,-1
 756 701 l 2,45,46
 756 769 756 769 811 796 c 1,47,-1
 815 796 l 1,48,49
 878 786 878 786 878 742 c 2,50,-1
 878 451 l 1,51,-1
 887 422 l 1,52,-1
 891 422 l 2,53,54
 900 422 900 422 996 484 c 0,55,56
 1051 524 1051 524 1132 574 c 1,57,58
 1159 604 1159 604 1258 660 c 1,59,60
 1307 704 1307 704 1431 787 c 1,61,62
 1610 935 1610 935 1642 935 c 2,63,-1
 1651 935 l 1,0,1
EndSplineSet
EndChar

StartChar: n
Encoding: 110 110 81
Width: 1917
Flags: W
LayerCount: 2
Fore
SplineSet
1152 976 m 2,0,-1
 1208 976 l 2,1,2
 1289 976 1289 976 1328 844 c 1,3,4
 1336 776 1336 776 1336 744 c 1,5,-1
 1344 740 l 1,6,-1
 1348 740 l 2,7,8
 1367 740 1367 740 1492 848 c 1,9,10
 1601 928 1601 928 1668 928 c 2,11,-1
 1688 928 l 2,12,13
 1759 928 1759 928 1800 844 c 1,14,15
 1800 827 1800 827 1820 728 c 1,16,-1
 1820 696 l 1,17,18
 1800 554 1800 554 1792 524 c 1,19,20
 1771 496 1771 496 1748 496 c 2,21,-1
 1724 496 l 2,22,23
 1690 496 1690 496 1684 556 c 1,24,25
 1696 644 1696 644 1700 712 c 1,26,27
 1695 808 1695 808 1672 808 c 0,28,29
 1581 808 1581 808 1356 576 c 1,30,31
 1281 488 1281 488 1252 488 c 2,32,-1
 1236 488 l 2,33,34
 1196 488 1196 488 1188 552 c 1,35,36
 1216 686 1216 686 1216 692 c 0,37,38
 1216 728 1216 728 1220 772 c 1,39,40
 1216 860 1216 860 1156 860 c 2,41,-1
 1144 860 l 2,42,43
 1107 860 1107 860 896 728 c 1,44,45
 775 639 775 639 692 568 c 2,46,-1
 560 456 l 2,47,48
 554 456 554 456 540 432 c 1,49,50
 448 363 448 363 212 128 c 0,51,52
 113 28 113 28 108 28 c 0,53,54
 73 0 73 0 52 0 c 1,55,56
 17 12 17 12 0 36 c 1,57,-1
 0 60 l 2,58,59
 0 95 0 95 192 268 c 1,60,61
 302 378 302 378 336 404 c 1,62,63
 375 448 375 448 480 540 c 1,64,65
 538 585 538 585 608 656 c 1,66,67
 623 656 623 656 684 712 c 1,68,69
 747 763 747 763 772 780 c 0,70,71
 923 888 923 888 1004 928 c 0,72,73
 1072 962 1072 962 1108 972 c 0,74,75
 1135 976 1135 976 1152 976 c 2,0,-1
EndSplineSet
EndChar

StartChar: o
Encoding: 111 111 82
Width: 21
Flags: W
LayerCount: 2
Fore
SplineSet
-924 -30 m 1,0,-1
 -906 -30 l 2,1,2
 -885 -30 -885 -30 -885 -104 c 0,3,4
 -885 -155 -885 -155 -904 -189 c 0,5,6
 -904 -197 -904 -197 -923 -239 c 1,7,8
 -924 -254 -924 -254 -946 -300 c 1,9,10
 -963 -315 -963 -315 -963 -351 c 0,11,12
 -965 -358 -965 -358 -985 -388 c 1,13,14
 -985 -407 -985 -407 -1012 -432 c 1,15,-1
 -1013 -432 l 1,16,17
 -1042 -416 -1042 -416 -1042 -378 c 2,18,-1
 -1042 -371 l 2,19,20
 -1042 -328 -1042 -328 -1029 -294 c 1,21,22
 -1029 -278 -1029 -278 -1000 -206 c 0,23,24
 -995 -197 -995 -197 -984 -162 c 1,25,26
 -974 -162 -974 -162 -933 -40 c 0,27,28
 -930 -40 -930 -40 -924 -30 c 1,0,-1
EndSplineSet
EndChar

StartChar: p
Encoding: 112 112 83
Width: 1793
Flags: W
LayerCount: 2
Fore
SplineSet
1634 947 m 0,0,1
 1668 947 1668 947 1692 910 c 1,2,-1
 1692 885 l 1,3,4
 1687 842 1687 842 1526 733 c 0,5,6
 1474 700 1474 700 1459 679 c 1,7,8
 1127 436 1127 436 894 288 c 0,9,10
 680 148 680 148 432 41 c 1,11,12
 306 0 306 0 220 0 c 2,13,-1
 183 0 l 2,14,15
 60 0 60 0 4 165 c 0,16,17
 0 187 0 187 0 202 c 2,18,-1
 0 280 l 1,19,20
 29 561 29 561 100 576 c 1,21,22
 100 581 100 581 104 581 c 2,23,-1
 129 581 l 2,24,25
 163 581 163 581 175 531 c 1,26,-1
 175 511 l 1,27,-1
 129 296 l 1,28,29
 125 239 125 239 121 235 c 1,30,31
 125 227 125 227 125 222 c 1,32,-1
 121 222 l 1,33,34
 141 119 141 119 195 119 c 2,35,-1
 249 119 l 2,36,37
 330 119 330 119 599 251 c 1,38,39
 602 258 602 258 732 329 c 1,40,41
 769 359 769 359 869 412 c 1,42,43
 926 457 926 457 1027 515 c 1,44,45
 1028 521 1028 521 1214 651 c 0,46,47
 1220 651 1220 651 1397 786 c 0,48,49
 1474 840 1474 840 1588 931 c 1,50,51
 1616 947 1616 947 1634 947 c 0,0,1
EndSplineSet
EndChar

StartChar: q
Encoding: 113 113 84
Width: 1746
Flags: W
LayerCount: 2
Fore
SplineSet
1364 944 m 2,0,-1
 1388 944 l 2,1,2
 1526 944 1526 944 1568 860 c 1,3,4
 1608 803 1608 803 1624 716 c 1,5,-1
 1632 648 l 1,6,7
 1625 388 1625 388 1568 388 c 1,8,9
 1546 384 1546 384 1536 384 c 0,10,11
 1492 398 1492 398 1492 444 c 2,12,-1
 1492 452 l 1,13,-1
 1512 580 l 1,14,-1
 1516 644 l 1,15,-1
 1512 668 l 2,16,17
 1512 672 1512 672 1516 672 c 1,18,19
 1516 695 1516 695 1488 776 c 1,20,21
 1454 824 1454 824 1400 824 c 2,22,-1
 1332 824 l 1,23,24
 1100 753 1100 753 1100 736 c 1,25,26
 963 676 963 676 884 616 c 1,27,28
 792 571 792 571 792 540 c 1,29,-1
 788 540 l 1,30,31
 842 439 842 439 896 232 c 1,32,33
 904 232 904 232 912 108 c 1,34,-1
 912 84 l 1,35,36
 891 44 891 44 852 44 c 0,37,38
 792 44 792 44 792 144 c 1,39,-1
 752 312 l 1,40,41
 700 441 700 441 680 468 c 1,42,-1
 668 468 l 1,43,-1
 596 412 l 1,44,45
 550 386 550 386 484 328 c 1,46,47
 362 234 362 234 176 80 c 1,48,49
 92 0 92 0 64 0 c 2,50,-1
 56 0 l 2,51,52
 5 0 5 0 0 64 c 0,53,54
 0 89 0 89 148 208 c 1,55,56
 303 339 303 339 556 532 c 1,57,-1
 716 644 l 1,58,-1
 828 724 l 1,59,60
 840 724 840 724 928 780 c 0,61,62
 996 828 996 828 1072 856 c 1,63,64
 1095 871 1095 871 1168 900 c 1,65,66
 1249 944 1249 944 1364 944 c 2,0,-1
EndSplineSet
EndChar

StartChar: r
Encoding: 114 114 85
Width: 2024
Flags: W
LayerCount: 2
Fore
SplineSet
1876 916 m 0,0,1
 1928 910 1928 910 1928 864 c 0,2,3
 1928 829 1928 829 1840 760 c 1,4,5
 1750 675 1750 675 1620 568 c 0,6,7
 1290 294 1290 294 1184 236 c 1,8,9
 1113 180 1113 180 1032 144 c 1,10,11
 984 104 984 104 864 76 c 0,12,13
 832 68 832 68 824 68 c 2,14,-1
 772 68 l 2,15,16
 721 68 721 68 664 144 c 1,17,18
 632 221 632 221 632 280 c 1,19,-1
 660 464 l 1,20,-1
 660 468 l 2,21,22
 660 476 660 476 652 476 c 0,23,24
 638 476 638 476 556 408 c 0,25,26
 248 152 248 152 204 104 c 1,27,28
 193 104 193 104 92 8 c 1,29,30
 82 8 82 8 72 0 c 1,31,-1
 48 0 l 2,32,33
 11 0 11 0 0 52 c 1,34,-1
 0 56 l 1,35,36
 8 108 8 108 264 312 c 0,37,38
 303 347 303 347 356 392 c 0,39,40
 518 534 518 534 764 708 c 0,41,42
 877 785 877 785 996 848 c 1,43,44
 996 853 996 853 1052 872 c 1,45,46
 1052 884 1052 884 1128 892 c 1,47,-1
 1172 892 l 2,48,49
 1285 892 1285 892 1304 736 c 1,50,51
 1285 520 1285 520 1264 520 c 1,52,53
 1264 501 1264 501 1208 484 c 1,54,55
 1152 502 1152 502 1152 552 c 1,56,57
 1184 660 1184 660 1184 728 c 2,58,-1
 1184 732 l 2,59,60
 1184 772 1184 772 1140 772 c 0,61,62
 1077 772 1077 772 888 652 c 1,63,64
 855 624 855 624 852 624 c 0,65,66
 841 624 841 624 776 568 c 1,67,68
 756 565 756 565 756 556 c 1,69,-1
 788 520 l 1,70,-1
 792 500 l 1,71,-1
 792 472 l 1,72,73
 752 340 752 340 752 256 c 1,74,75
 765 200 765 200 788 200 c 1,76,77
 788 196 788 196 792 196 c 2,78,-1
 812 196 l 2,79,80
 891 196 891 196 1040 280 c 1,81,82
 1043 287 1043 287 1184 372 c 1,83,84
 1184 380 1184 380 1312 468 c 1,85,86
 1373 521 1373 521 1516 628 c 1,87,88
 1777 857 1777 857 1808 888 c 1,89,90
 1851 916 1851 916 1876 916 c 0,0,1
EndSplineSet
EndChar

StartChar: s
Encoding: 115 115 86
Width: 1769
Flags: W
LayerCount: 2
Fore
SplineSet
644 976 m 256,0,1
 685 976 685 976 700 915 c 1,2,3
 688 751 688 751 668 672 c 1,4,-1
 668 653 l 2,5,6
 668 615 668 615 660 558 c 1,7,-1
 676 554 l 2,8,9
 689 554 689 554 772 611 c 0,10,11
 901 693 901 693 1067 771 c 1,12,13
 1069 779 1069 779 1135 805 c 0,14,15
 1285 862 1285 862 1303 862 c 1,16,17
 1327 881 1327 881 1419 881 c 2,18,-1
 1479 881 l 2,19,20
 1596 881 1596 881 1655 733 c 0,21,22
 1663 703 1663 703 1663 661 c 0,23,24
 1663 471 1663 471 1615 471 c 1,25,26
 1599 467 1599 467 1587 460 c 1,27,-1
 1579 460 l 1,28,29
 1531 485 1531 485 1531 509 c 2,30,-1
 1543 619 l 1,31,32
 1543 771 1543 771 1463 771 c 1,33,-1
 1435 775 l 1,34,35
 1338 775 1338 775 1123 672 c 1,36,37
 937 592 937 592 588 357 c 1,38,39
 564 346 564 346 328 178 c 1,40,-1
 176 65 l 2,41,42
 86 0 86 0 64 0 c 0,43,44
 9 0 9 0 0 53 c 1,45,46
 0 92 0 92 156 190 c 1,47,48
 214 241 214 241 304 300 c 1,49,50
 331 329 331 329 444 395 c 1,51,52
 540 466 540 466 540 471 c 0,53,54
 536 518 536 518 536 520 c 0,55,56
 556 653 556 653 576 911 c 1,57,58
 603 976 603 976 644 976 c 256,0,1
EndSplineSet
EndChar

StartChar: t
Encoding: 116 116 87
Width: 2213
Flags: W
LayerCount: 2
Fore
SplineSet
1275 929 m 1,0,1
 1338 929 1338 929 1338 861 c 0,2,3
 1338 818 1338 818 1203 743 c 1,4,5
 1164 712 1164 712 881 526 c 1,6,7
 851 526 851 526 796 376 c 1,8,9
 779 376 779 376 756 213 c 0,10,11
 756 189 756 189 792 177 c 1,12,-1
 801 181 l 1,13,-1
 854 181 l 1,14,15
 972 208 972 208 1083 272 c 1,16,17
 1205 335 1205 335 1288 390 c 1,18,19
 1383 440 1383 440 1472 508 c 1,20,21
 1520 534 1520 534 1758 702 c 1,22,23
 1785 727 1785 727 1892 798 c 1,24,25
 1993 888 1993 888 2058 888 c 1,26,27
 2107 872 2107 872 2107 825 c 2,28,-1
 2107 816 l 2,29,30
 2107 785 2107 785 1968 693 c 1,31,32
 1857 608 1857 608 1727 521 c 1,33,34
 1701 495 1701 495 1615 444 c 1,35,36
 1556 396 1556 396 1427 322 c 1,37,38
 1374 282 1374 282 1150 154 c 1,39,40
 1083 127 1083 127 1020 91 c 1,41,42
 1009 91 1009 91 939 59 c 1,43,44
 833 36 833 36 814 36 c 2,45,-1
 769 36 l 2,46,47
 675 36 675 36 644 127 c 1,48,49
 622 140 622 140 622 204 c 0,50,51
 622 289 622 289 649 335 c 1,52,53
 644 358 644 358 640 358 c 0,54,55
 614 358 614 358 501 272 c 1,56,57
 414 211 414 211 277 127 c 1,58,59
 145 21 145 21 72 0 c 1,60,-1
 67 0 l 2,61,62
 27 0 27 0 0 45 c 1,63,-1
 0 59 l 2,64,65
 0 105 0 105 157 199 c 1,66,-1
 322 313 l 2,67,68
 329 313 329 313 537 458 c 1,69,70
 683 547 683 547 814 644 c 1,71,-1
 998 761 l 2,72,73
 1059 797 1059 797 1141 861 c 1,74,75
 1202 893 1202 893 1239 924 c 1,76,77
 1250 924 1250 924 1275 929 c 1,0,1
EndSplineSet
EndChar

StartChar: u
Encoding: 117 117 88
Width: 12
Flags: W
LayerCount: 2
Fore
SplineSet
-1286 -78 m 2,0,-1
 -874 -78 l 2,1,2
 -861 -78 -861 -78 -843 -118 c 1,3,4
 -837 -118 -837 -118 -829 -133 c 1,5,6
 -829 -162 -829 -162 -881 -162 c 1,7,-1
 -920 -177 l 1,8,-1
 -1314 -177 l 2,9,10
 -1331 -177 -1331 -177 -1370 -150 c 1,11,12
 -1373 -142 -1373 -142 -1373 -133 c 2,13,-1
 -1373 -105 l 2,14,15
 -1373 -97 -1373 -97 -1310 -86 c 1,16,17
 -1305 -78 -1305 -78 -1286 -78 c 2,0,-1
EndSplineSet
EndChar

StartChar: v
Encoding: 118 118 89
Width: 2053
Flags: W
LayerCount: 2
Fore
SplineSet
1878 965 m 2,0,-1
 1912 965 l 1,1,2
 1953 958 1953 958 1953 904 c 0,3,4
 1953 856 1953 856 1912 833 c 1,5,6
 1808 758 1808 758 1808 748 c 1,7,8
 1667 659 1667 659 1605 598 c 1,9,10
 1589 598 1589 598 1509 532 c 0,11,12
 1310 376 1310 376 1211 311 c 1,13,14
 1210 298 1210 298 1053 193 c 1,15,16
 817 0 817 0 788 0 c 2,17,-1
 763 0 l 2,18,19
 730 0 730 0 717 56 c 1,20,21
 717 107 717 107 771 141 c 1,22,23
 917 254 917 254 921 254 c 0,24,25
 1141 419 1141 419 1144 419 c 0,26,27
 1178 437 1178 437 1202 546 c 1,28,29
 1252 646 1252 646 1252 730 c 2,30,-1
 1252 763 l 1,31,32
 1236 783 1236 783 1236 786 c 2,33,-1
 1227 781 l 2,34,35
 1222 781 1222 781 1186 786 c 1,36,37
 1137 786 1137 786 921 668 c 1,38,39
 760 567 760 567 709 527 c 1,40,41
 549 417 549 417 440 325 c 1,42,43
 309 228 309 228 207 141 c 0,44,45
 201 141 201 141 91 47 c 1,46,-1
 66 42 l 1,47,-1
 54 42 l 2,48,49
 18 42 18 42 0 113 c 1,50,51
 11 167 11 167 141 254 c 1,52,53
 141 267 141 267 274 362 c 1,54,55
 280 376 280 376 435 490 c 1,56,57
 484 536 484 536 585 603 c 1,58,59
 602 623 602 623 680 668 c 1,60,61
 722 705 722 705 767 725 c 1,62,63
 797 757 797 757 875 791 c 1,64,65
 928 840 928 840 1062 894 c 2,66,-1
 1161 932 l 1,67,-1
 1223 932 l 2,68,69
 1314 932 1314 932 1352 866 c 1,70,71
 1368 866 1368 866 1368 716 c 2,72,-1
 1368 692 l 1,73,74
 1360 623 1360 623 1360 617 c 2,75,-1
 1360 607 l 2,76,77
 1361 598 1361 598 1368 598 c 0,78,79
 1388 598 1388 598 1704 843 c 1,80,81
 1708 852 1708 852 1804 913 c 1,82,83
 1857 965 1857 965 1878 965 c 2,0,-1
EndSplineSet
EndChar

StartChar: w
Encoding: 119 119 90
Width: 2053
Flags: W
LayerCount: 2
Fore
SplineSet
1878 965 m 2,0,-1
 1912 965 l 1,1,2
 1953 958 1953 958 1953 904 c 0,3,4
 1953 856 1953 856 1912 833 c 1,5,6
 1808 758 1808 758 1808 748 c 1,7,8
 1667 659 1667 659 1605 598 c 1,9,10
 1589 598 1589 598 1509 532 c 0,11,12
 1310 376 1310 376 1211 311 c 1,13,14
 1210 298 1210 298 1053 193 c 1,15,16
 817 0 817 0 788 0 c 2,17,-1
 763 0 l 2,18,19
 730 0 730 0 717 56 c 1,20,21
 717 107 717 107 771 141 c 1,22,23
 917 254 917 254 921 254 c 0,24,25
 1141 419 1141 419 1144 419 c 0,26,27
 1178 437 1178 437 1202 546 c 1,28,29
 1252 646 1252 646 1252 730 c 2,30,-1
 1252 763 l 1,31,32
 1236 783 1236 783 1236 786 c 2,33,-1
 1227 781 l 2,34,35
 1222 781 1222 781 1186 786 c 1,36,37
 1137 786 1137 786 921 668 c 1,38,39
 760 567 760 567 709 527 c 1,40,41
 549 417 549 417 440 325 c 1,42,43
 309 228 309 228 207 141 c 0,44,45
 201 141 201 141 91 47 c 1,46,-1
 66 42 l 1,47,-1
 54 42 l 2,48,49
 18 42 18 42 0 113 c 1,50,51
 11 167 11 167 141 254 c 1,52,53
 141 267 141 267 274 362 c 1,54,55
 280 376 280 376 435 490 c 1,56,57
 484 536 484 536 585 603 c 1,58,59
 602 623 602 623 680 668 c 1,60,61
 722 705 722 705 767 725 c 1,62,63
 797 757 797 757 875 791 c 1,64,65
 928 840 928 840 1062 894 c 2,66,-1
 1161 932 l 1,67,-1
 1223 932 l 2,68,69
 1314 932 1314 932 1352 866 c 1,70,71
 1368 866 1368 866 1368 716 c 2,72,-1
 1368 692 l 1,73,74
 1360 623 1360 623 1360 617 c 2,75,-1
 1360 607 l 2,76,77
 1361 598 1361 598 1368 598 c 0,78,79
 1388 598 1388 598 1704 843 c 1,80,81
 1708 852 1708 852 1804 913 c 1,82,83
 1857 965 1857 965 1878 965 c 2,0,-1
EndSplineSet
EndChar

StartChar: x
Encoding: 120 120 91
Width: 659
Flags: W
LayerCount: 2
Fore
SplineSet
460 1024 m 2,0,-1
 472 1024 l 2,1,2
 493 1024 493 1024 513 1003 c 1,3,4
 537 986 537 986 535 937 c 2,5,-1
 537 882 l 1,6,7
 534 824 534 824 526 718 c 1,8,9
 495 712 495 712 481 712 c 1,10,11
 467 719 467 719 467 733 c 2,12,-1
 467 743 l 1,13,14
 451 832 451 832 468 898 c 1,15,-1
 452 919 l 1,16,17
 480 921 480 921 481 921 c 0,18,19
 490 927 490 927 448 905 c 1,20,-1
 468 937 l 1,21,22
 451 948 451 948 446 934 c 1,23,-1
 410 891 l 1,24,25
 397 867 397 867 386 852 c 1,26,27
 390 826 390 826 314 761 c 1,28,29
 264 711 264 711 233 683 c 1,30,31
 223 680 223 680 197 657 c 1,32,33
 146 635 146 635 126 635 c 0,34,35
 122 633 122 633 114 633 c 0,36,37
 69 633 69 633 55 695 c 0,38,39
 49 719 49 719 45 766 c 0,40,41
 45 768 45 768 46 768 c 1,42,43
 46 770 46 770 45 773 c 0,44,45
 46 808 46 808 46 824 c 0,46,47
 46 826 46 826 47 829 c 0,48,49
 47 831 47 831 46 831 c 1,50,51
 56 938 56 938 64 938 c 1,52,-1
 68 942 l 1,53,-1
 73 942 l 2,54,55
 86 942 86 942 140 912 c 1,56,57
 130 816 130 816 132 757 c 1,58,59
 121 724 121 724 137 726 c 1,60,61
 94 696 94 696 138 715 c 1,62,-1
 144 730 l 1,63,64
 175 727 175 727 199 763 c 1,65,-1
 223 785 l 1,66,67
 238 810 238 810 253 833 c 1,68,69
 280 857 280 857 288 865 c 0,70,71
 297 884 297 884 322 910 c 0,72,73
 375 969 375 969 395 983 c 1,74,75
 428 1024 428 1024 460 1024 c 2,0,-1
EndSplineSet
EndChar

StartChar: y
Encoding: 121 121 92
Width: 2006
Flags: W
LayerCount: 2
Fore
SplineSet
1640 935 m 2,0,-1
 1668 935 l 2,1,2
 1823 935 1823 935 1886 755 c 0,3,4
 1894 739 1894 739 1894 719 c 2,5,-1
 1894 705 l 2,6,7
 1894 680 1894 680 1862 654 c 1,8,-1
 1830 654 l 2,9,10
 1788 654 1788 654 1765 737 c 1,11,12
 1719 783 1719 783 1684 783 c 2,13,-1
 1612 783 l 2,14,15
 1569 783 1569 783 1467 728 c 1,16,17
 1467 718 1467 718 1418 695 c 1,18,-1
 1286 594 l 1,19,20
 1119 445 1119 445 943 263 c 1,21,22
 789 116 789 116 641 28 c 1,23,-1
 556 0 l 1,24,-1
 492 0 l 2,25,26
 379 0 379 0 326 175 c 1,27,28
 326 192 326 192 322 216 c 1,29,30
 326 225 326 225 326 230 c 0,31,32
 317 263 317 263 310 263 c 0,33,34
 298 263 298 263 218 161 c 1,35,36
 153 101 153 101 101 101 c 1,37,38
 8 121 8 121 8 207 c 1,39,40
 1 207 1 207 0 276 c 2,41,-1
 0 336 l 1,42,43
 16 567 16 567 36 567 c 1,44,45
 46 608 46 608 93 608 c 0,46,47
 135 608 135 608 145 539 c 1,48,49
 117 335 117 335 117 286 c 0,50,51
 119 258 119 258 129 258 c 2,52,-1
 141 258 l 1,53,54
 175 292 175 292 298 474 c 1,55,56
 357 594 357 594 399 594 c 2,57,-1
 415 594 l 1,58,59
 440 579 440 579 455 548 c 1,60,-1
 455 520 l 1,61,-1
 435 304 l 1,62,63
 435 143 435 143 496 143 c 1,64,65
 503 138 503 138 512 138 c 0,66,67
 646 138 646 138 935 433 c 1,68,69
 944 433 944 433 1003 502 c 1,70,71
 1166 649 1166 649 1177 668 c 1,72,73
 1502 935 1502 935 1640 935 c 2,0,-1
EndSplineSet
EndChar

StartChar: z
Encoding: 122 122 93
Width: 1864
Flags: W
LayerCount: 2
Fore
SplineSet
1117 941 m 2,0,-1
 1141 941 l 2,1,2
 1232 941 1232 941 1260 872 c 1,3,4
 1291 821 1291 821 1291 714 c 1,5,-1
 1295 707 l 1,6,7
 1322 707 1322 707 1431 810 c 1,8,9
 1548 887 1548 887 1593 887 c 2,10,-1
 1635 887 l 2,11,12
 1735 887 1735 887 1763 730 c 1,13,-1
 1759 703 l 1,14,-1
 1759 664 l 1,15,16
 1745 480 1745 480 1713 480 c 1,17,18
 1688 472 1688 472 1682 472 c 0,19,20
 1644 472 1644 472 1628 515 c 1,21,-1
 1643 684 l 1,22,-1
 1643 711 l 2,23,24
 1643 759 1643 759 1620 776 c 1,25,-1
 1604 776 l 1,26,27
 1521 751 1521 751 1396 630 c 1,28,29
 1329 572 1329 572 1237 472 c 1,30,-1
 1202 465 l 1,31,-1
 1191 465 l 1,32,33
 1148 485 1148 485 1148 522 c 0,34,35
 1148 538 1148 538 1171 634 c 1,36,37
 1175 674 1175 674 1175 722 c 2,38,-1
 1175 745 l 2,39,40
 1175 818 1175 818 1129 818 c 1,41,42
 1129 822 1129 822 1110 822 c 0,43,44
 1051 822 1051 822 835 676 c 1,45,46
 731 597 731 597 731 591 c 0,47,48
 769 365 769 365 769 300 c 1,49,50
 784 263 784 263 793 169 c 0,51,52
 793 128 793 128 746 104 c 1,53,-1
 731 104 l 2,54,55
 665 104 665 104 665 227 c 1,56,57
 650 404 650 404 626 499 c 1,58,-1
 622 499 l 1,59,60
 597 487 597 487 398 311 c 0,61,62
 398 307 398 307 174 92 c 0,63,64
 82 0 82 0 62 0 c 2,65,-1
 54 0 l 2,66,67
 17 0 17 0 0 38 c 1,68,-1
 0 50 l 2,69,70
 0 84 0 84 46 119 c 1,71,72
 203 281 203 281 390 449 c 1,73,74
 500 554 500 554 677 695 c 0,75,76
 780 772 780 772 785 772 c 0,77,78
 957 895 957 895 990 895 c 1,79,80
 1007 912 1007 912 1067 929 c 1,81,82
 1075 939 1075 939 1117 941 c 2,0,-1
EndSplineSet
EndChar

StartChar: braceleft
Encoding: 123 123 94
Width: 1014
Flags: W
LayerCount: 2
Fore
SplineSet
240 698 m 1,0,1
 412 703 412 703 463 769 c 128,-1,2
 514 835 514 835 514 902 c 2,3,-1
 514 1370 l 2,4,5
 514 1444 514 1444 591 1511.5 c 128,-1,6
 668 1579 668 1579 776 1579 c 2,7,-1
 884 1579 l 1,8,-1
 884 1529 l 1,9,-1
 794 1529 l 2,10,11
 733 1529 733 1529 687 1495.5 c 128,-1,12
 641 1462 641 1462 640 1404 c 2,13,-1
 640 904 l 2,14,15
 640 821 640 821 579.5 745.5 c 128,-1,16
 519 670 519 670 437 669 c 1,17,-1
 437 667 l 1,18,19
 519 666 519 666 580 591 c 128,-1,20
 641 516 641 516 641 433 c 2,21,-1
 640 -67 l 2,22,23
 641 -125 641 -125 687 -158.5 c 128,-1,24
 733 -192 733 -192 794 -192 c 2,25,-1
 884 -192 l 1,26,-1
 884 -242 l 1,27,-1
 776 -242 l 2,28,29
 668 -242 668 -242 591.5 -174.5 c 128,-1,30
 515 -107 515 -107 514 -33 c 2,31,-1
 514 435 l 2,32,33
 514 501 514 501 463 567 c 128,-1,34
 412 633 412 633 240 638 c 1,35,-1
 240 698 l 1,0,1
EndSplineSet
EndChar

StartChar: bar
Encoding: 124 124 95
Width: 1014
Flags: W
LayerCount: 2
Fore
SplineSet
427 1577 m 1,0,-1
 587 1577 l 1,1,-1
 587 -418 l 1,2,-1
 427 -418 l 1,3,-1
 427 1577 l 1,0,-1
EndSplineSet
EndChar

StartChar: braceright
Encoding: 125 125 96
Width: 1014
Flags: W
LayerCount: 2
Fore
SplineSet
774 638 m 1,0,1
 602 633 602 633 551 567 c 128,-1,2
 500 501 500 501 500 435 c 2,3,-1
 500 -33 l 2,4,5
 499 -107 499 -107 422.5 -174.5 c 128,-1,6
 346 -242 346 -242 238 -242 c 2,7,-1
 130 -242 l 1,8,-1
 130 -192 l 1,9,-1
 220 -192 l 2,10,11
 281 -192 281 -192 327 -158.5 c 128,-1,12
 373 -125 373 -125 374 -67 c 2,13,-1
 373 433 l 2,14,15
 373 516 373 516 434 591 c 128,-1,16
 495 666 495 666 578 667 c 1,17,-1
 578 669 l 1,18,19
 495 670 495 670 434.5 745.5 c 128,-1,20
 374 821 374 821 374 904 c 2,21,-1
 374 1404 l 2,22,23
 373 1462 373 1462 327 1495.5 c 128,-1,24
 281 1529 281 1529 220 1529 c 2,25,-1
 130 1529 l 1,26,-1
 130 1579 l 1,27,-1
 238 1579 l 2,28,29
 346 1579 346 1579 423 1511.5 c 128,-1,30
 500 1444 500 1444 500 1370 c 2,31,-1
 500 902 l 2,32,33
 500 835 500 835 551 769 c 128,-1,34
 602 703 602 703 774 698 c 1,35,-1
 774 638 l 1,0,1
EndSplineSet
EndChar

StartChar: asciitilde
Encoding: 126 126 97
Width: 1014
Flags: W
LayerCount: 2
Fore
SplineSet
923 878 m 1,0,-1
 923 722 l 1,1,2
 860 650 860 650 801 624.5 c 128,-1,3
 742 599 742 599 685 599 c 0,4,5
 625 599 625 599 507.5 647.5 c 128,-1,6
 390 696 390 696 331 696 c 0,7,8
 280 696 280 696 223.5 668 c 128,-1,9
 167 640 167 640 94 556 c 1,10,-1
 94 712 l 1,11,12
 158 785 158 785 217 811 c 128,-1,13
 276 837 276 837 331 837 c 0,14,15
 395 837 395 837 512.5 787.5 c 128,-1,16
 630 738 630 738 685 738 c 0,17,18
 737 738 737 738 793.5 766 c 128,-1,19
 850 794 850 794 923 878 c 1,0,-1
EndSplineSet
EndChar

StartChar: sterling
Encoding: 163 163 100
Width: 1014
Flags: W
LayerCount: 2
Fore
SplineSet
748 1347 m 1,0,1
 676 1378 676 1378 588 1378 c 2,2,-1
 586 1378 l 2,3,4
 486 1378 486 1378 396 1277 c 0,5,6
 312 1184 312 1184 312 1036 c 0,7,8
 312 1021 312 1021 313 1006 c 0,9,10
 313 871 313 871 366 733 c 1,11,-1
 726 733 l 1,12,-1
 726 673 l 1,13,-1
 392 673 l 1,14,15
 406 643 406 643 423 613 c 0,16,17
 458 550 458 550 458 475 c 0,18,19
 458 314 458 314 296 100 c 1,20,-1
 698 100 l 2,21,22
 828 100 828 100 887 232 c 1,23,-1
 936 231 l 1,24,-1
 833 0 l 1,25,-1
 114 0 l 1,26,-1
 115 50 l 1,27,28
 302 288 302 288 302 468 c 0,29,30
 302 545 302 545 268 611 c 0,31,32
 251 643 251 643 237 673 c 1,33,-1
 76 673 l 1,34,-1
 76 733 l 1,35,-1
 211 733 l 1,36,37
 153 876 153 876 153 986 c 0,38,39
 153 1212 153 1212 276.5 1333 c 128,-1,40
 400 1454 400 1454 583 1454 c 2,41,-1
 587 1454 l 2,42,43
 662 1454 662 1454 772.5 1440 c 128,-1,44
 883 1426 883 1426 883 1406 c 2,45,-1
 883 1245 l 1,46,-1
 825 1245 l 1,47,48
 820 1306 820 1306 748 1347 c 1,0,1
EndSplineSet
EndChar

StartChar: currency
Encoding: 164 164 101
Width: 1014
Flags: W
LayerCount: 2
Fore
SplineSet
350 560 m 0,0,1
 391 520 391 520 449 503 c 0,2,3
 478 495 478 495 507 495 c 256,4,5
 536 495 536 495 565 503 c 0,6,7
 623 520 623 520 664 560 c 0,8,9
 704 601 704 601 721 659 c 0,10,11
 730 688 730 688 730 717 c 256,12,13
 730 746 730 746 721 775 c 0,14,15
 704 833 704 833 664 874 c 0,16,17
 623 914 623 914 564 931 c 0,18,19
 535 939 535 939 506 939 c 256,20,21
 477 939 477 939 448 930 c 0,22,23
 390 913 390 913 350 874 c 0,24,25
 311 834 311 834 294 776 c 0,26,27
 284 746 284 746 284 716 c 0,28,29
 284 688 284 688 293 660 c 0,30,31
 309 601 309 601 350 560 c 0,0,1
240 903 m 1,32,-1
 122 1021 l 1,33,-1
 202 1102 l 1,34,-1
 320 984 l 1,35,36
 364 1014 364 1014 419 1030 c 0,37,38
 463 1044 463 1044 508 1044 c 0,39,40
 549 1044 549 1044 591 1032 c 0,41,42
 648 1015 648 1015 693 984 c 1,43,-1
 811 1102 l 1,44,-1
 891 1021 l 1,45,-1
 774 904 l 1,46,47
 805 858 805 858 822 802 c 0,48,49
 834 760 834 760 834 717 c 0,50,51
 834 675 834 675 822 632 c 0,52,53
 805 576 805 576 774 530 c 1,54,-1
 891 413 l 1,55,-1
 811 332 l 1,56,-1
 693 450 l 1,57,58
 648 418 648 418 592 402 c 0,59,60
 550 390 550 390 507 390 c 0,61,62
 465 390 465 390 422 402 c 0,63,64
 365 418 365 418 320 450 c 1,65,-1
 202 332 l 1,66,-1
 122 413 l 1,67,-1
 240 530 l 1,68,69
 208 576 208 576 192 633 c 0,70,71
 180 675 180 675 180 717 c 0,72,73
 180 761 180 761 193 804 c 0,74,75
 209 859 209 859 240 903 c 1,32,-1
EndSplineSet
EndChar

StartChar: yen
Encoding: 165 165 102
Width: 1262
Flags: W
LayerCount: 2
Fore
SplineSet
547 225 m 2,0,-1
 545 467 l 2,1,2
 545 486 545 486 543.5 502 c 128,-1,3
 542 518 542 518 539 534 c 1,4,-1
 55 535 l 2,5,6
 41 535 41 535 34 541.5 c 128,-1,7
 27 548 27 548 27 561 c 256,8,9
 27 574 27 574 33.5 580 c 128,-1,10
 40 586 40 586 55 586 c 2,11,-1
 522 586 l 1,12,-1
 401 758 l 1,13,-1
 57 758 l 2,14,15
 40 758 40 758 33.5 763.5 c 128,-1,16
 27 769 27 769 27 782 c 0,17,18
 27 796 27 796 33 801.5 c 128,-1,19
 39 807 39 807 55 807 c 2,20,-1
 362 807 l 1,21,22
 319 864 319 864 254 962 c 0,23,24
 123 1159 123 1159 27 1159 c 0,25,26
 20 1159 20 1159 14 1164.5 c 128,-1,27
 8 1170 8 1170 8 1176 c 0,28,29
 8 1195 8 1195 18.5 1203.5 c 128,-1,30
 29 1212 29 1212 51 1212 c 0,31,32
 78 1212 78 1212 174 1204 c 128,-1,33
 270 1196 270 1196 338 1196 c 2,34,-1
 426 1196 l 2,35,36
 459 1196 459 1196 467 1189.5 c 128,-1,37
 475 1183 475 1183 475 1163 c 0,38,39
 475 1155 475 1155 460 1149 c 128,-1,40
 445 1143 445 1143 422 1143 c 0,41,42
 416 1143 416 1143 403.5 1145 c 128,-1,43
 391 1147 391 1147 385 1147 c 0,44,45
 361 1147 361 1147 347.5 1137.5 c 128,-1,46
 334 1128 334 1128 334 1112 c 0,47,48
 334 1094 334 1094 350.5 1060 c 128,-1,49
 367 1026 367 1026 397 983 c 2,50,-1
 555 762 l 2,51,52
 568 743 568 743 588 709 c 0,53,54
 629 639 629 639 659 639 c 0,55,56
 668 639 668 639 675.5 644 c 128,-1,57
 683 649 683 649 690 659 c 2,58,-1
 967 1055 l 2,59,60
 975 1067 975 1067 980 1081.5 c 128,-1,61
 985 1096 985 1096 985 1106 c 0,62,63
 985 1124 985 1124 975 1133 c 128,-1,64
 965 1142 965 1142 938 1147 c 0,65,66
 923 1149 923 1149 897 1151 c 0,67,68
 850 1154 850 1154 850 1176 c 0,69,70
 850 1191 850 1191 858 1198.5 c 128,-1,71
 866 1206 866 1206 883 1206 c 0,72,73
 886 1206 886 1206 898 1205 c 0,74,75
 954 1198 954 1198 1006 1198 c 2,76,-1
 1145 1198 l 2,77,78
 1175 1198 1175 1198 1210 1199 c 128,-1,79
 1245 1200 1245 1200 1247 1200 c 0,80,81
 1258 1200 1258 1200 1265.5 1195.5 c 128,-1,82
 1273 1191 1273 1191 1274 1184 c 0,83,84
 1274 1156 1274 1156 1236 1150 c 0,85,86
 1218 1147 1218 1147 1209 1145 c 0,87,88
 1146 1130 1146 1130 1062 1028 c 0,89,90
 1055 1019 1055 1019 1050 1013 c 2,91,-1
 881 807 l 1,92,-1
 1204 807 l 2,93,94
 1219 807 1219 807 1228 801 c 128,-1,95
 1237 795 1237 795 1237 784 c 0,96,97
 1237 769 1237 769 1231 763.5 c 128,-1,98
 1225 758 1225 758 1208 758 c 2,99,-1
 842 758 l 1,100,101
 796 701 796 701 745.5 645.5 c 128,-1,102
 695 590 695 590 693 586 c 1,103,-1
 1204 586 l 2,104,105
 1222 586 1222 586 1229.5 580.5 c 128,-1,106
 1237 575 1237 575 1237 563 c 0,107,108
 1237 549 1237 549 1230 542 c 128,-1,109
 1223 535 1223 535 1208 535 c 2,110,-1
 678 535 l 1,111,112
 678 524 678 524 677 504.5 c 128,-1,113
 676 485 676 485 676 475 c 2,114,-1
 678 260 l 2,115,116
 678 146 678 146 683.5 110 c 128,-1,117
 689 74 689 74 704 66 c 0,118,119
 734 49 734 49 811.5 47 c 128,-1,120
 889 45 889 45 889 16 c 0,121,122
 889 4 889 4 879 -4 c 128,-1,123
 869 -12 869 -12 854 -12 c 0,124,125
 852 -12 852 -12 818.5 -8 c 128,-1,126
 785 -4 785 -4 754 -4 c 0,127,128
 663 -4 663 -4 545.5 -8 c 128,-1,129
 428 -12 428 -12 403 -12 c 0,130,131
 372 -12 372 -12 363 -8 c 128,-1,132
 354 -4 354 -4 354 8 c 256,133,134
 354 20 354 20 362 26.5 c 128,-1,135
 370 33 370 33 399 39 c 0,136,137
 408 41 408 41 424 44 c 0,138,139
 498 60 498 60 516 76 c 0,140,141
 533 89 533 89 540 123 c 128,-1,142
 547 157 547 157 547 225 c 2,0,-1
EndSplineSet
EndChar

StartChar: brokenbar
Encoding: 166 166 103
Width: 1014
Flags: W
LayerCount: 2
Fore
SplineSet
427 371 m 1,0,-1
 587 371 l 1,1,-1
 587 -418 l 1,2,-1
 427 -418 l 1,3,-1
 427 371 l 1,0,-1
427 1578 m 1,4,-1
 587 1578 l 1,5,-1
 587 789 l 1,6,-1
 427 789 l 1,7,-1
 427 1578 l 1,4,-1
EndSplineSet
EndChar

StartChar: section
Encoding: 167 167 104
Width: 1014
Flags: W
LayerCount: 2
Fore
SplineSet
545 321 m 1,0,1
 601 337 601 337 642 374 c 0,2,3
 715 439 715 439 715 540 c 0,4,5
 715 545 715 545 714 550 c 1,6,-1
 712 550 l 1,7,8
 711 564 711 564 708 577 c 0,9,10
 686 638 686 638 595 704 c 1,11,12
 536 733 536 733 469 733 c 0,13,14
 391 733 391 733 344 688.5 c 128,-1,15
 297 644 297 644 297 571 c 0,16,17
 297 448 297 448 545 321 c 1,0,1
466 -346 m 1,18,19
 579 -340 579 -340 651 -277 c 0,20,21
 723 -213 723 -213 723 -112 c 0,22,23
 723 13 723 13 407 164 c 1,24,25
 284 228 284 228 231.5 301 c 128,-1,26
 179 374 179 374 179 478 c 0,27,28
 179 626 179 626 268 715 c 0,29,30
 335 780 335 780 438 797 c 1,31,-1
 398 816 l 1,32,33
 275 880 275 880 222.5 953 c 128,-1,34
 170 1026 170 1026 170 1130 c 0,35,36
 170 1278 170 1278 259 1367 c 0,37,38
 341 1446 341 1446 475 1453 c 0,39,40
 483 1454 483 1454 492 1454 c 2,41,-1
 495 1454 l 2,42,43
 561 1454 561 1454 658 1437.5 c 128,-1,44
 755 1421 755 1421 755 1396 c 2,45,-1
 755 1202 l 1,46,-1
 704 1202 l 1,47,48
 699 1283 699 1283 624 1334 c 0,49,50
 554 1381 554 1381 475 1385 c 1,51,-1
 460 1385 l 2,52,53
 382 1385 382 1385 335 1340.5 c 128,-1,54
 288 1296 288 1296 288 1223 c 0,55,56
 288 1091 288 1091 575 954 c 0,57,58
 724 887 724 887 779.5 810.5 c 128,-1,59
 835 734 835 734 835 623 c 0,60,61
 835 452 835 452 734 341 c 1,62,63
 687 302 687 302 635 277 c 1,64,65
 743 221 743 221 789 159 c 0,66,67
 844 82 844 82 844 -28 c 0,68,69
 844 -199 844 -199 743 -311 c 1,70,71
 619 -413 619 -413 466 -416 c 1,72,-1
 466 -415 l 1,73,74
 460 -416 460 -416 453 -416 c 2,75,-1
 450 -416 l 2,76,77
 384 -416 384 -416 287 -399.5 c 128,-1,78
 190 -383 190 -383 190 -358 c 2,79,-1
 190 -164 l 1,80,-1
 241 -164 l 1,81,82
 246 -245 246 -245 321 -296 c 0,83,84
 389 -341 389 -341 466 -346 c 1,18,19
EndSplineSet
EndChar

StartChar: dieresis
Encoding: 168 168 105
Width: 1024
Flags: W
LayerCount: 2
Fore
SplineSet
223 1289 m 2,0,-1
 294 1361 l 2,1,2
 307 1373 307 1373 319 1373 c 0,3,4
 330 1373 330 1373 346 1359 c 2,5,-1
 415 1286 l 2,6,7
 425 1272 425 1272 425 1261 c 0,8,9
 425 1248 425 1248 413 1234 c 2,10,-1
 344 1159 l 2,11,12
 327 1142 327 1142 319 1142 c 0,13,14
 305 1142 305 1142 294 1154 c 2,15,-1
 218 1240 l 2,16,17
 209 1252 209 1252 209 1263 c 0,18,19
 209 1276 209 1276 223 1289 c 2,0,-1
588 1289 m 2,20,-1
 659 1361 l 2,21,22
 672 1373 672 1373 684 1373 c 0,23,24
 695 1373 695 1373 711 1360 c 2,25,-1
 780 1286 l 2,26,27
 790 1272 790 1272 790 1261 c 0,28,29
 790 1248 790 1248 778 1235 c 2,30,-1
 709 1159 l 2,31,32
 692 1142 692 1142 684 1142 c 0,33,34
 670 1142 670 1142 659 1154 c 2,35,-1
 583 1241 l 2,36,37
 574 1252 574 1252 574 1263 c 0,38,39
 574 1276 574 1276 588 1289 c 2,20,-1
EndSplineSet
EndChar

StartChar: copyright
Encoding: 169 169 106
Width: 1674
Flags: W
LayerCount: 2
Fore
SplineSet
840 1456 m 0,0,1
 985 1456 985 1456 1120 1399.5 c 128,-1,2
 1255 1343 1255 1343 1359 1239 c 0,3,4
 1461 1138 1461 1138 1517.5 1001 c 128,-1,5
 1574 864 1574 864 1574 718 c 0,6,7
 1574 571 1574 571 1517.5 436 c 128,-1,8
 1461 301 1461 301 1355 196 c 0,9,10
 1250 91 1250 91 1116 36.5 c 128,-1,11
 982 -18 982 -18 833 -18 c 0,12,13
 687 -18 687 -18 555 37.5 c 128,-1,14
 423 93 423 93 317 198 c 0,15,16
 211 302 211 302 155.5 435.5 c 128,-1,17
 100 569 100 569 100 718 c 0,18,19
 100 866 100 866 155.5 1001 c 128,-1,20
 211 1136 211 1136 315 1239 c 0,21,22
 417 1343 417 1343 553.5 1399.5 c 128,-1,23
 690 1456 690 1456 840 1456 c 0,0,1
357 1197 m 256,24,25
 262 1101 262 1101 211 977.5 c 128,-1,26
 160 854 160 854 160 718 c 0,27,28
 160 581 160 581 211 459 c 128,-1,29
 262 337 262 337 359 240 c 0,30,31
 457 144 457 144 578 93 c 128,-1,32
 699 42 699 42 834 42 c 0,33,34
 971 42 971 42 1093.5 92.5 c 128,-1,35
 1216 143 1216 143 1313 238 c 0,36,37
 1410 336 1410 336 1462 459.5 c 128,-1,38
 1514 583 1514 583 1514 718 c 0,39,40
 1514 852 1514 852 1462 977.5 c 128,-1,41
 1410 1103 1410 1103 1317 1197 c 0,42,43
 1221 1293 1221 1293 1097 1344.5 c 128,-1,44
 973 1396 973 1396 839 1396 c 0,45,46
 702 1396 702 1396 577 1344.5 c 128,-1,47
 452 1293 452 1293 357 1197 c 256,24,25
865 223 m 0,48,49
 723 223 723 223 601 291 c 128,-1,50
 479 359 479 359 415 476 c 128,-1,51
 351 593 351 593 351 719 c 256,52,53
 351 845 351 845 416.5 963 c 128,-1,54
 482 1081 482 1081 604 1147.5 c 128,-1,55
 726 1214 726 1214 858 1214 c 0,56,57
 896 1214 896 1214 933 1207.5 c 128,-1,58
 970 1201 970 1201 1009 1187 c 0,59,60
 1014 1186 1014 1186 1018 1186 c 0,61,62
 1037 1186 1037 1186 1044 1216 c 1,63,-1
 1086 1216 l 1,64,-1
 1158 1018 l 1,65,-1
 1114 1018 l 1,66,67
 1062 1112 1062 1112 983 1142 c 0,68,69
 911 1168 911 1168 836 1168 c 2,70,-1
 821 1168 l 1,71,72
 735 1160 735 1160 654.5 1097 c 128,-1,73
 574 1034 574 1034 533 920 c 0,74,75
 500 830 500 830 500 736 c 0,76,77
 500 711 500 711 502 686 c 0,78,79
 513 565 513 565 571.5 462 c 128,-1,80
 630 359 630 359 721 310 c 0,81,82
 793 270 793 270 887 268 c 0,83,84
 1011 268 1011 268 1081 324 c 128,-1,85
 1151 380 1151 380 1151 450 c 1,86,-1
 1204 450 l 1,87,-1
 1204 350 l 2,88,89
 1204 304 1204 304 1107.5 263.5 c 128,-1,90
 1011 223 1011 223 865 223 c 0,48,49
EndSplineSet
EndChar

StartChar: guillemotleft
Encoding: 171 171 108
Width: 944
Flags: W
LayerCount: 2
Fore
SplineSet
174 479 m 1,0,-1
 516 782 l 1,1,-1
 530 782 l 1,2,-1
 530 745 l 1,3,-1
 325 479 l 1,4,-1
 530 213 l 1,5,-1
 530 176 l 1,6,-1
 516 176 l 1,7,-1
 174 479 l 1,0,-1
487 479 m 1,8,-1
 829 782 l 1,9,-1
 843 782 l 1,10,-1
 843 745 l 1,11,-1
 638 479 l 1,12,-1
 843 213 l 1,13,-1
 843 176 l 1,14,-1
 829 176 l 1,15,-1
 487 479 l 1,8,-1
EndSplineSet
EndChar

StartChar: logicalnot
Encoding: 172 172 109
Width: 1014
Flags: W
LayerCount: 2
Fore
SplineSet
87 767 m 1,0,-1
 927 767 l 1,1,-1
 927 276 l 1,2,-1
 926 275 l 1,3,-1
 828 275 l 1,4,-1
 828 667 l 1,5,-1
 87 667 l 1,6,-1
 87 767 l 1,0,-1
EndSplineSet
EndChar

StartChar: registered
Encoding: 174 174 110
Width: 1674
Flags: W
LayerCount: 2
Fore
SplineSet
751 1099 m 1,0,-1
 751 725 l 1,1,-1
 754 717 l 2,2,3
 777 661 777 661 810 636 c 0,4,5
 839 614 839 614 866 614 c 2,6,-1
 872 614 l 1,7,8
 903 618 903 618 933.5 652.5 c 128,-1,9
 964 687 964 687 980 750 c 0,10,11
 993 800 993 800 993 853 c 0,12,13
 993 866 993 866 992 880 c 0,14,15
 988 947 988 947 964 1004.5 c 128,-1,16
 940 1062 940 1062 907.5 1080.5 c 128,-1,17
 875 1099 875 1099 844 1099 c 2,18,-1
 751 1099 l 1,0,-1
984 576 m 1,19,-1
 1066 460 l 2,20,21
 1166 319 1166 319 1216 319 c 2,22,-1
 1250 319 l 1,23,-1
 1250 269 l 1,24,-1
 904 269 l 1,25,-1
 904 319 l 1,26,-1
 949 319 l 2,27,28
 979 319 979 319 979 341 c 0,29,30
 979 370 979 370 910 455 c 1,31,-1
 835 557 l 1,32,33
 793 557 793 557 751 599 c 1,34,-1
 751 440 l 2,35,36
 751 319 751 319 787 319 c 2,37,-1
 840 319 l 1,38,-1
 840 269 l 1,39,-1
 524 269 l 1,40,-1
 524 319 l 1,41,-1
 567 319 l 2,42,43
 604 319 604 319 604 440 c 2,44,-1
 604 978 l 2,45,46
 604 1099 604 1099 567 1099 c 2,47,-1
 524 1099 l 1,48,-1
 524 1169 l 1,49,-1
 880 1169 l 2,50,51
 944 1168 944 1168 1005 1127 c 0,52,53
 1065 1086 1065 1086 1097.5 1013 c 128,-1,54
 1130 940 1130 940 1130 861 c 0,55,56
 1130 783 1130 783 1098 710.5 c 128,-1,57
 1066 638 1066 638 984 576 c 1,19,-1
840 1456 m 0,58,59
 985 1456 985 1456 1120 1399.5 c 128,-1,60
 1255 1343 1255 1343 1359 1239 c 0,61,62
 1461 1138 1461 1138 1517.5 1001 c 128,-1,63
 1574 864 1574 864 1574 718 c 0,64,65
 1574 571 1574 571 1517.5 436 c 128,-1,66
 1461 301 1461 301 1355 196 c 0,67,68
 1250 91 1250 91 1116 36.5 c 128,-1,69
 982 -18 982 -18 833 -18 c 0,70,71
 687 -18 687 -18 555 37.5 c 128,-1,72
 423 93 423 93 317 198 c 0,73,74
 211 302 211 302 155.5 435.5 c 128,-1,75
 100 569 100 569 100 718 c 0,76,77
 100 866 100 866 155.5 1001 c 128,-1,78
 211 1136 211 1136 315 1239 c 0,79,80
 417 1343 417 1343 553.5 1399.5 c 128,-1,81
 690 1456 690 1456 840 1456 c 0,58,59
357 1197 m 256,82,83
 262 1101 262 1101 211 977.5 c 128,-1,84
 160 854 160 854 160 718 c 0,85,86
 160 581 160 581 211 459 c 128,-1,87
 262 337 262 337 359 240 c 0,88,89
 457 144 457 144 578 93 c 128,-1,90
 699 42 699 42 834 42 c 0,91,92
 971 42 971 42 1093.5 92.5 c 128,-1,93
 1216 143 1216 143 1313 238 c 0,94,95
 1410 336 1410 336 1462 459.5 c 128,-1,96
 1514 583 1514 583 1514 718 c 0,97,98
 1514 852 1514 852 1462 977.5 c 128,-1,99
 1410 1103 1410 1103 1317 1197 c 0,100,101
 1221 1293 1221 1293 1097 1344.5 c 128,-1,102
 973 1396 973 1396 839 1396 c 0,103,104
 702 1396 702 1396 577 1344.5 c 128,-1,105
 452 1293 452 1293 357 1197 c 256,82,83
EndSplineSet
EndChar

StartChar: degree
Encoding: 176 176 112
Width: 674
Flags: W
LayerCount: 2
Fore
SplineSet
339 1372 m 256,0,1
 253 1372 253 1372 191.5 1311 c 128,-1,2
 130 1250 130 1250 130 1163 c 256,3,4
 130 1076 130 1076 191 1016 c 128,-1,5
 252 956 252 956 339 956 c 256,6,7
 426 956 426 956 486 1016 c 128,-1,8
 546 1076 546 1076 546 1163 c 256,9,10
 546 1250 546 1250 485.5 1311 c 128,-1,11
 425 1372 425 1372 339 1372 c 256,0,1
339 1442 m 0,12,13
 454 1442 454 1442 535 1360.5 c 128,-1,14
 616 1279 616 1279 616 1164 c 0,15,16
 616 1050 616 1050 534 968 c 128,-1,17
 452 886 452 886 337 886 c 0,18,19
 220 886 220 886 140 967 c 128,-1,20
 60 1048 60 1048 60 1164 c 256,21,22
 60 1280 60 1280 141.5 1361 c 128,-1,23
 223 1442 223 1442 339 1442 c 0,12,13
EndSplineSet
EndChar

StartChar: acute
Encoding: 180 180 116
Width: 1024
Flags: W
LayerCount: 2
Fore
SplineSet
607 1375 m 2,0,1
 642 1410 642 1410 662.5 1422 c 128,-1,2
 683 1434 683 1434 703 1434 c 0,3,4
 736 1434 736 1434 756.5 1414 c 128,-1,5
 777 1394 777 1394 777 1363 c 0,6,7
 777 1341 777 1341 761.5 1321 c 128,-1,8
 746 1301 746 1301 715 1281 c 2,9,-1
 385 1078 l 1,10,-1
 316 1078 l 1,11,-1
 607 1375 l 2,0,1
EndSplineSet
EndChar

StartChar: paragraph
Encoding: 182 182 118
Width: 1024
Flags: W
LayerCount: 2
Fore
SplineSet
929 1435 m 1,0,-1
 929 1365 l 1,1,-1
 802 1365 l 1,2,-1
 802 0 l 1,3,-1
 720 0 l 1,4,-1
 720 1365 l 1,5,-1
 554 1365 l 1,6,-1
 554 0 l 1,7,-1
 470 0 l 1,8,-1
 470 738 l 1,9,10
 296 746 296 746 194.5 840.5 c 128,-1,11
 93 935 93 935 93 1086 c 0,12,13
 93 1243 93 1243 200.5 1339 c 128,-1,14
 308 1435 308 1435 486 1435 c 2,15,-1
 929 1435 l 1,0,-1
EndSplineSet
EndChar

StartChar: periodcentered
Encoding: 8729 183 119
AltUni2: 002219.ffffffff.0
Width: 508
Flags: W
LayerCount: 2
Fore
SplineSet
145 740 m 2,0,-1
 227 824 l 2,1,2
 242 838 242 838 256 838 c 0,3,4
 269 838 269 838 287 822 c 2,5,-1
 367 736 l 2,6,7
 379 720 379 720 379 707 c 0,8,9
 379 692 379 692 365 676 c 2,10,-1
 285 588 l 2,11,12
 265 568 265 568 256 568 c 0,13,14
 240 568 240 568 227 582 c 2,15,-1
 139 683 l 2,16,17
 129 696 129 696 129 709 c 0,18,19
 129 724 129 724 145 740 c 2,0,-1
EndSplineSet
EndChar

StartChar: cedilla
Encoding: 184 184 120
Width: 1024
Flags: W
LayerCount: 2
Fore
SplineSet
360 -290 m 1,0,1
 445 -342 445 -342 512 -342 c 0,2,3
 578 -342 578 -342 606.5 -320.5 c 128,-1,4
 635 -299 635 -299 635 -254 c 256,5,6
 635 -209 635 -209 586 -190 c 0,7,8
 546 -174 546 -174 484 -174 c 0,9,10
 468 -174 468 -174 450 -176 c 1,11,-1
 498 0 l 1,12,-1
 561 0 l 1,13,-1
 524 -104 l 1,14,15
 556 -100 556 -100 586 -99 c 0,16,17
 672 -99 672 -99 720 -139.5 c 128,-1,18
 768 -180 768 -180 768 -253 c 0,19,20
 768 -329 768 -329 709.5 -373.5 c 128,-1,21
 651 -418 651 -418 549 -418 c 0,22,23
 440 -418 440 -418 360 -386 c 1,24,-1
 360 -290 l 1,0,1
EndSplineSet
EndChar

StartChar: guillemotright
Encoding: 187 187 123
Width: 944
Flags: W
LayerCount: 2
Fore
SplineSet
115 176 m 1,0,-1
 101 176 l 1,1,-1
 101 213 l 1,2,-1
 306 479 l 1,3,-1
 101 745 l 1,4,-1
 101 782 l 1,5,-1
 115 782 l 1,6,-1
 457 479 l 1,7,-1
 115 176 l 1,0,-1
428 176 m 1,8,-1
 414 176 l 1,9,-1
 414 213 l 1,10,-1
 619 479 l 1,11,-1
 414 745 l 1,12,-1
 414 782 l 1,13,-1
 428 782 l 1,14,-1
 770 479 l 1,15,-1
 428 176 l 1,8,-1
EndSplineSet
EndChar

StartChar: multiply
Encoding: 215 215 151
Width: 1014
Flags: W
LayerCount: 2
Fore
SplineSet
507 618 m 1,0,-1
 260 371 l 1,1,-1
 161 470 l 1,2,-1
 408 717 l 1,3,-1
 161 965 l 1,4,-1
 260 1063 l 1,5,-1
 507 816 l 1,6,-1
 755 1063 l 1,7,-1
 853 964 l 1,8,-1
 606 717 l 1,9,-1
 853 470 l 1,10,-1
 754 371 l 1,11,-1
 507 618 l 1,0,-1
EndSplineSet
EndChar

StartChar: divide
Encoding: 247 247 183
Width: 1014
Flags: W
LayerCount: 2
Fore
SplineSet
87 647 m 1,0,-1
 87 787 l 1,1,-1
 926 787 l 1,2,-1
 927 786 l 1,3,-1
 927 647 l 1,4,-1
 87 647 l 1,0,-1
398 408 m 2,5,-1
 480 492 l 2,6,7
 495 506 495 506 509 506 c 0,8,9
 522 506 522 506 540 490 c 2,10,-1
 620 404 l 2,11,12
 632 388 632 388 632 375 c 0,13,14
 632 360 632 360 618 344 c 2,15,-1
 538 256 l 2,16,17
 518 236 518 236 509 236 c 0,18,19
 493 236 493 236 480 250 c 2,20,-1
 392 351 l 2,21,22
 382 364 382 364 382 377 c 0,23,24
 382 392 382 392 398 408 c 2,5,-1
398 1101 m 2,25,-1
 480 1185 l 2,26,27
 495 1199 495 1199 509 1199 c 0,28,29
 522 1199 522 1199 540 1183 c 2,30,-1
 620 1097 l 2,31,32
 632 1081 632 1081 632 1068 c 0,33,34
 632 1053 632 1053 618 1037 c 2,35,-1
 538 949 l 2,36,37
 518 929 518 929 509 929 c 0,38,39
 493 929 493 929 480 943 c 2,40,-1
 392 1044 l 2,41,42
 382 1057 382 1057 382 1070 c 0,43,44
 382 1085 382 1085 398 1101 c 2,25,-1
EndSplineSet
EndChar

StartChar: dotlessi
Encoding: 305 305 192
Width: 514
Flags: W
LayerCount: 2
Fore
SplineSet
328 223 m 2,0,1
 328 50 328 50 428 50 c 2,2,-1
 474 50 l 1,3,-1
 474 0 l 1,4,-1
 32 0 l 1,5,-1
 32 50 l 1,6,-1
 78 50 l 2,7,8
 178 50 178 50 178 223 c 2,9,-1
 178 655 l 2,10,11
 178 732 178 732 67 732 c 2,12,-1
 19 732 l 1,13,-1
 19 776 l 1,14,15
 241 845 241 845 280 958 c 1,16,-1
 328 958 l 1,17,-1
 328 223 l 2,0,1
EndSplineSet
EndChar

StartChar: circumflex
Encoding: 710 710 193
Width: 1024
Flags: W
LayerCount: 2
Fore
SplineSet
221 1079 m 1,0,-1
 453 1434 l 1,1,-1
 571 1434 l 1,2,-1
 803 1079 l 1,3,-1
 745 1079 l 1,4,-1
 512 1295 l 1,5,-1
 279 1079 l 1,6,-1
 221 1079 l 1,0,-1
EndSplineSet
EndChar

StartChar: caron
Encoding: 711 711 194
Width: 1024
Flags: W
LayerCount: 2
Fore
SplineSet
221 1434 m 1,0,-1
 279 1434 l 1,1,-1
 512 1220 l 1,2,-1
 745 1434 l 1,3,-1
 803 1434 l 1,4,-1
 571 1078 l 1,5,-1
 453 1078 l 1,6,-1
 221 1434 l 1,0,-1
EndSplineSet
EndChar

StartChar: uni02C9
Encoding: 713 713 195
Width: 1024
Flags: W
LayerCount: 2
Fore
SplineSet
254 1195 m 1,0,-1
 254 1320 l 1,1,-1
 770 1320 l 1,2,-1
 770 1195 l 1,3,-1
 254 1195 l 1,0,-1
EndSplineSet
EndChar

StartChar: breve
Encoding: 728 728 196
Width: 1024
Flags: W
LayerCount: 2
Fore
SplineSet
219 1349 m 1,0,-1
 270 1349 l 1,1,2
 287 1276 287 1276 345 1242 c 128,-1,3
 403 1208 403 1208 512 1208 c 256,4,5
 621 1208 621 1208 678 1241.5 c 128,-1,6
 735 1275 735 1275 752 1349 c 1,7,-1
 803 1349 l 1,8,9
 783 1216 783 1216 709 1147.5 c 128,-1,10
 635 1079 635 1079 512 1079 c 0,11,12
 390 1079 390 1079 315 1148 c 128,-1,13
 240 1217 240 1217 219 1349 c 1,0,-1
EndSplineSet
EndChar

StartChar: dotaccent
Encoding: 729 729 197
Width: 1024
Flags: W
LayerCount: 2
Fore
SplineSet
422 1289 m 2,0,-1
 491 1361 l 2,1,2
 497 1367 497 1367 504 1370 c 128,-1,3
 511 1373 511 1373 518 1373 c 0,4,5
 524 1373 524 1373 530.5 1370 c 128,-1,6
 537 1367 537 1367 543 1361 c 2,7,-1
 614 1285 l 2,8,9
 619 1281 619 1281 621 1275 c 128,-1,10
 623 1269 623 1269 623 1261 c 0,11,12
 622 1252 622 1252 620 1246 c 128,-1,13
 618 1240 618 1240 612 1234 c 2,14,-1
 541 1158 l 2,15,16
 529 1147 529 1147 525 1144.5 c 128,-1,17
 521 1142 521 1142 518 1142 c 0,18,19
 508 1142 508 1142 501.5 1144.5 c 128,-1,20
 495 1147 495 1147 491 1153 c 2,21,-1
 416 1240 l 2,22,23
 412 1244 412 1244 410 1249.5 c 128,-1,24
 408 1255 408 1255 408 1263 c 0,25,26
 408 1269 408 1269 411 1275.5 c 128,-1,27
 414 1282 414 1282 422 1289 c 2,0,-1
EndSplineSet
EndChar

StartChar: ring
Encoding: 730 730 198
Width: 1024
Flags: W
LayerCount: 2
Fore
SplineSet
411 1257 m 0,0,1
 411 1215 411 1215 440 1186 c 128,-1,2
 469 1157 469 1157 511 1157 c 256,3,4
 553 1157 553 1157 582 1186 c 128,-1,5
 611 1215 611 1215 611 1257 c 0,6,7
 611 1297 611 1297 581.5 1326.5 c 128,-1,8
 552 1356 552 1356 511 1356 c 256,9,10
 470 1356 470 1356 440.5 1326.5 c 128,-1,11
 411 1297 411 1297 411 1257 c 0,0,1
335 1257 m 256,12,13
 335 1332 335 1332 386 1383 c 128,-1,14
 437 1434 437 1434 511 1434 c 0,15,16
 587 1434 587 1434 638.5 1382.5 c 128,-1,17
 690 1331 690 1331 690 1257 c 0,18,19
 690 1182 690 1182 638.5 1130.5 c 128,-1,20
 587 1079 587 1079 511 1079 c 0,21,22
 437 1079 437 1079 386 1130.5 c 128,-1,23
 335 1182 335 1182 335 1257 c 256,12,13
EndSplineSet
EndChar

StartChar: ogonek
Encoding: 731 731 199
Width: 1024
Flags: W
LayerCount: 2
Fore
SplineSet
640 0 m 1,0,1
 569 -62 569 -62 529.5 -119.5 c 128,-1,2
 490 -177 490 -177 490 -232 c 0,3,4
 490 -279 490 -279 517 -307 c 128,-1,5
 544 -335 544 -335 590 -335 c 0,6,7
 630 -335 630 -335 659.5 -319.5 c 128,-1,8
 689 -304 689 -304 709 -271 c 1,9,-1
 737 -287 l 1,10,11
 701 -350 701 -350 646.5 -384 c 128,-1,12
 592 -418 592 -418 527 -418 c 0,13,14
 457 -418 457 -418 413 -382.5 c 128,-1,15
 369 -347 369 -347 369 -292 c 0,16,17
 369 -216 369 -216 429.5 -135.5 c 128,-1,18
 490 -55 490 -55 591 0 c 1,19,-1
 640 0 l 1,0,1
EndSplineSet
EndChar

StartChar: tilde
Encoding: 732 732 200
Width: 1024
Flags: W
LayerCount: 2
Fore
SplineSet
808 1382 m 1,0,1
 788 1279 788 1279 739.5 1228 c 128,-1,2
 691 1177 691 1177 613 1177 c 2,3,-1
 609 1177 l 2,4,5
 559 1177 559 1177 496 1200 c 0,6,7
 430 1224 430 1224 382 1224 c 0,8,9
 343 1224 343 1224 321.5 1203.5 c 128,-1,10
 300 1183 300 1183 288 1132 c 1,11,-1
 234 1132 l 1,12,13
 253 1238 253 1238 302 1290.5 c 128,-1,14
 351 1343 351 1343 431 1343 c 0,15,16
 477 1342 477 1342 544 1319 c 0,17,18
 608 1296 608 1296 656 1296 c 2,19,-1
 660 1296 l 2,20,21
 696 1296 696 1296 718 1316 c 128,-1,22
 740 1336 740 1336 754 1382 c 1,23,-1
 808 1382 l 1,0,1
EndSplineSet
EndChar

StartChar: hungarumlaut
Encoding: 733 733 201
Width: 1024
Flags: W
LayerCount: 2
Fore
SplineSet
217 1079 m 1,0,-1
 361 1352 l 2,1,2
 385 1396 385 1396 406.5 1415 c 128,-1,3
 428 1434 428 1434 453 1434 c 0,4,5
 481 1434 481 1434 501 1414 c 128,-1,6
 521 1394 521 1394 521 1367 c 0,7,8
 521 1351 521 1351 510.5 1332 c 128,-1,9
 500 1313 500 1313 480 1291 c 2,10,-1
 275 1079 l 1,11,-1
 217 1079 l 1,0,-1
502 1079 m 1,12,-1
 646 1352 l 2,13,14
 670 1396 670 1396 691.5 1415 c 128,-1,15
 713 1434 713 1434 738 1434 c 0,16,17
 766 1434 766 1434 786 1414 c 128,-1,18
 806 1394 806 1394 806 1367 c 0,19,20
 806 1351 806 1351 795.5 1332 c 128,-1,21
 785 1313 785 1313 765 1291 c 2,22,-1
 560 1079 l 1,23,-1
 502 1079 l 1,12,-1
EndSplineSet
EndChar

StartChar: endash
Encoding: 8211 8211 202
Width: 1108
Flags: W
LayerCount: 2
Fore
SplineSet
56 419 m 1,0,-1
 56 539 l 1,1,-1
 1052 539 l 1,2,-1
 1052 419 l 1,3,-1
 56 419 l 1,0,-1
EndSplineSet
EndChar

StartChar: emdash
Encoding: 8212 8212 203
Width: 2048
Flags: W
LayerCount: 2
Fore
SplineSet
0 419 m 1,0,-1
 0 539 l 1,1,-1
 2048 539 l 1,2,-1
 2048 419 l 1,3,-1
 0 419 l 1,0,-1
EndSplineSet
EndChar

StartChar: quoteleft
Encoding: 8216 8216 204
Width: 557
Flags: W
LayerCount: 2
Fore
SplineSet
319 1016 m 1,0,1
 275 1016 275 1016 230.5 1081.5 c 128,-1,2
 186 1147 186 1147 186 1233 c 0,3,4
 186 1342 186 1342 257 1459.5 c 128,-1,5
 328 1577 328 1577 396 1577 c 1,6,-1
 396 1534 l 1,7,8
 323 1491 323 1491 309 1344 c 1,9,10
 309 1225 309 1225 438 1183 c 1,11,-1
 438 1141 l 1,12,-1
 319 1016 l 1,0,1
EndSplineSet
EndChar

StartChar: quoteright
Encoding: 8217 8217 205
Width: 557
Flags: W
LayerCount: 2
Fore
SplineSet
238 1577 m 1,0,1
 282 1577 282 1577 326.5 1511.5 c 128,-1,2
 371 1446 371 1446 371 1360 c 0,3,4
 371 1251 371 1251 300 1133.5 c 128,-1,5
 229 1016 229 1016 161 1016 c 1,6,-1
 161 1059 l 1,7,8
 234 1102 234 1102 248 1249 c 1,9,10
 248 1368 248 1368 119 1410 c 1,11,-1
 119 1452 l 1,12,-1
 238 1577 l 1,0,1
EndSplineSet
EndChar

StartChar: quotesinglbase
Encoding: 8218 8218 206
Width: 557
Flags: W
LayerCount: 2
Fore
SplineSet
238 281 m 1,0,1
 282 281 282 281 326.5 215.5 c 128,-1,2
 371 150 371 150 371 64 c 0,3,4
 371 -45 371 -45 300 -162.5 c 128,-1,5
 229 -280 229 -280 161 -280 c 1,6,-1
 161 -237 l 1,7,8
 234 -194 234 -194 248 -47 c 1,9,10
 248 72 248 72 119 114 c 1,11,-1
 119 156 l 1,12,-1
 238 281 l 1,0,1
EndSplineSet
EndChar

StartChar: quotedblleft
Encoding: 8220 8220 207
Width: 910
Flags: W
LayerCount: 2
Fore
SplineSet
319 1016 m 1,0,1
 275 1016 275 1016 230.5 1081.5 c 128,-1,2
 186 1147 186 1147 186 1233 c 0,3,4
 186 1342 186 1342 257 1459.5 c 128,-1,5
 328 1577 328 1577 396 1577 c 1,6,-1
 396 1534 l 1,7,8
 323 1491 323 1491 309 1344 c 1,9,10
 309 1225 309 1225 438 1183 c 1,11,-1
 438 1141 l 1,12,-1
 319 1016 l 1,0,1
672 1016 m 1,13,14
 628 1016 628 1016 583.5 1081.5 c 128,-1,15
 539 1147 539 1147 539 1233 c 0,16,17
 539 1342 539 1342 610 1459.5 c 128,-1,18
 681 1577 681 1577 749 1577 c 1,19,-1
 749 1534 l 1,20,21
 676 1491 676 1491 662 1344 c 1,22,23
 662 1225 662 1225 791 1183 c 1,24,-1
 791 1141 l 1,25,-1
 672 1016 l 1,13,14
EndSplineSet
EndChar

StartChar: quotedblright
Encoding: 8221 8221 208
Width: 910
Flags: W
LayerCount: 2
Fore
SplineSet
238 1577 m 1,0,1
 282 1577 282 1577 326.5 1511.5 c 128,-1,2
 371 1446 371 1446 371 1360 c 0,3,4
 371 1251 371 1251 300 1133.5 c 128,-1,5
 229 1016 229 1016 161 1016 c 1,6,-1
 161 1059 l 1,7,8
 234 1102 234 1102 248 1249 c 1,9,10
 248 1368 248 1368 119 1410 c 1,11,-1
 119 1452 l 1,12,-1
 238 1577 l 1,0,1
591 1577 m 1,13,14
 635 1577 635 1577 679.5 1511.5 c 128,-1,15
 724 1446 724 1446 724 1360 c 0,16,17
 724 1251 724 1251 653 1133.5 c 128,-1,18
 582 1016 582 1016 514 1016 c 1,19,-1
 514 1059 l 1,20,21
 587 1102 587 1102 601 1249 c 1,22,23
 601 1368 601 1368 472 1410 c 1,24,-1
 472 1452 l 1,25,-1
 591 1577 l 1,13,14
EndSplineSet
EndChar

StartChar: quotedblbase
Encoding: 8222 8222 209
Width: 910
Flags: W
LayerCount: 2
Fore
SplineSet
238 281 m 1,0,1
 282 281 282 281 326.5 215.5 c 128,-1,2
 371 150 371 150 371 64 c 0,3,4
 371 -45 371 -45 300 -162.5 c 128,-1,5
 229 -280 229 -280 161 -280 c 1,6,-1
 161 -237 l 1,7,8
 234 -194 234 -194 248 -47 c 1,9,10
 248 72 248 72 119 114 c 1,11,-1
 119 156 l 1,12,-1
 238 281 l 1,0,1
591 281 m 1,13,14
 635 281 635 281 679.5 215.5 c 128,-1,15
 724 150 724 150 724 64 c 0,16,17
 724 -45 724 -45 653 -162.5 c 128,-1,18
 582 -280 582 -280 514 -280 c 1,19,-1
 514 -237 l 1,20,21
 587 -194 587 -194 601 -47 c 1,22,23
 601 72 601 72 472 114 c 1,24,-1
 472 156 l 1,25,-1
 591 281 l 1,13,14
EndSplineSet
EndChar

StartChar: dagger
Encoding: 8224 8224 210
Width: 1014
Flags: W
LayerCount: 2
Fore
SplineSet
486 1022 m 1,0,1
 478 1119 478 1119 432 1200 c 0,2,3
 375 1301 375 1301 375 1329 c 0,4,5
 375 1378 375 1378 411 1407.5 c 128,-1,6
 447 1437 447 1437 507 1437 c 0,7,8
 564 1437 564 1437 601.5 1409.5 c 128,-1,9
 639 1382 639 1382 639 1338 c 0,10,11
 639 1306 639 1306 584 1201 c 0,12,13
 538 1116 538 1116 529 1022 c 1,14,15
 625 1030 625 1030 706 1076 c 0,16,17
 807 1133 807 1133 835 1133 c 0,18,19
 884 1133 884 1133 914 1097 c 128,-1,20
 944 1061 944 1061 944 1001 c 0,21,22
 944 944 944 944 916.5 906.5 c 128,-1,23
 889 869 889 869 844 869 c 0,24,25
 812 869 812 869 708 924 c 0,26,27
 623 970 623 970 529 981 c 1,28,29
 537 805 537 805 639 704 c 1,30,31
 533 244 533 244 527 -270 c 1,32,-1
 489 -270 l 1,33,34
 483 244 483 244 375 704 c 1,35,36
 477 805 477 805 486 981 c 1,37,38
 390 971 390 971 308 926 c 0,39,40
 207 869 207 869 179 869 c 0,41,42
 130 869 130 869 100.5 905 c 128,-1,43
 71 941 71 941 71 1001 c 0,44,45
 71 1058 71 1058 98.5 1095.5 c 128,-1,46
 126 1133 126 1133 170 1133 c 0,47,48
 202 1133 202 1133 307 1077 c 0,49,50
 392 1031 392 1031 486 1022 c 1,0,1
EndSplineSet
EndChar

StartChar: daggerdbl
Encoding: 8225 8225 211
Width: 1014
Flags: W
LayerCount: 2
Fore
SplineSet
528 186 m 1,0,1
 622 197 622 197 707 243 c 0,2,3
 811 298 811 298 843 298 c 0,4,5
 888 298 888 298 915.5 260.5 c 128,-1,6
 943 223 943 223 943 166 c 0,7,8
 943 106 943 106 913 70 c 128,-1,9
 883 34 883 34 834 34 c 0,10,11
 806 34 806 34 705 91 c 0,12,13
 624 137 624 137 528 145 c 1,14,15
 537 51 537 51 583 -34 c 0,16,17
 638 -139 638 -139 638 -171 c 0,18,19
 638 -215 638 -215 600.5 -242.5 c 128,-1,20
 563 -270 563 -270 506 -270 c 0,21,22
 446 -270 446 -270 410 -240.5 c 128,-1,23
 374 -211 374 -211 374 -162 c 0,24,25
 374 -134 374 -134 431 -33 c 0,26,27
 477 48 477 48 485 145 c 1,28,29
 391 136 391 136 306 90 c 0,30,31
 201 34 201 34 169 34 c 0,32,33
 125 34 125 34 97.5 71.5 c 128,-1,34
 70 109 70 109 70 166 c 0,35,36
 70 226 70 226 99.5 262 c 128,-1,37
 129 298 129 298 178 298 c 0,38,39
 206 298 206 298 307 241 c 0,40,41
 389 196 389 196 485 186 c 1,42,43
 476 412 476 412 374 584 c 1,44,45
 476 755 476 755 485 981 c 1,46,47
 389 971 389 971 307 926 c 0,48,49
 206 869 206 869 178 869 c 0,50,51
 129 869 129 869 99.5 905 c 128,-1,52
 70 941 70 941 70 1001 c 0,53,54
 70 1058 70 1058 97.5 1095.5 c 128,-1,55
 125 1133 125 1133 169 1133 c 0,56,57
 201 1133 201 1133 306 1077 c 0,58,59
 391 1031 391 1031 485 1022 c 1,60,61
 477 1119 477 1119 431 1200 c 0,62,63
 374 1301 374 1301 374 1329 c 0,64,65
 374 1378 374 1378 410 1407.5 c 128,-1,66
 446 1437 446 1437 506 1437 c 0,67,68
 563 1437 563 1437 600.5 1409.5 c 128,-1,69
 638 1382 638 1382 638 1338 c 0,70,71
 638 1306 638 1306 583 1201 c 0,72,73
 537 1116 537 1116 528 1022 c 1,74,75
 624 1030 624 1030 705 1076 c 0,76,77
 806 1133 806 1133 834 1133 c 0,78,79
 883 1133 883 1133 913 1097 c 128,-1,80
 943 1061 943 1061 943 1001 c 0,81,82
 943 944 943 944 915.5 906.5 c 128,-1,83
 888 869 888 869 843 869 c 0,84,85
 811 869 811 869 707 924 c 0,86,87
 622 970 622 970 528 981 c 1,88,89
 536 755 536 755 638 584 c 1,90,91
 536 412 536 412 528 186 c 1,0,1
EndSplineSet
EndChar

StartChar: bullet
Encoding: 8226 8226 212
Width: 1024
Flags: W
LayerCount: 2
Fore
SplineSet
216 718 m 256,0,1
 216 841 216 841 303 927 c 128,-1,2
 390 1013 390 1013 513 1013 c 0,3,4
 635 1013 635 1013 721.5 926.5 c 128,-1,5
 808 840 808 840 808 718 c 256,6,7
 808 596 808 596 720.5 508.5 c 128,-1,8
 633 421 633 421 511 421 c 0,9,10
 388 421 388 421 302 508 c 128,-1,11
 216 595 216 595 216 718 c 256,0,1
EndSplineSet
EndChar

StartChar: ellipsis
Encoding: 8230 8230 213
Width: 2048
Flags: W
LayerCount: 2
Fore
SplineSet
145 167 m 2,0,-1
 227 251 l 2,1,2
 242 265 242 265 256 265 c 0,3,4
 269 265 269 265 287 249 c 2,5,-1
 367 163 l 2,6,7
 379 147 379 147 379 134 c 0,8,9
 379 119 379 119 365 103 c 2,10,-1
 285 15 l 2,11,12
 265 -5 265 -5 256 -5 c 0,13,14
 240 -5 240 -5 227 9 c 2,15,-1
 139 110 l 2,16,17
 129 123 129 123 129 136 c 0,18,19
 129 151 129 151 145 167 c 2,0,-1
828 167 m 2,20,-1
 910 251 l 2,21,22
 925 265 925 265 939 265 c 0,23,24
 952 265 952 265 970 249 c 2,25,-1
 1050 163 l 2,26,27
 1062 147 1062 147 1062 134 c 0,28,29
 1062 119 1062 119 1048 103 c 2,30,-1
 968 15 l 2,31,32
 948 -5 948 -5 939 -5 c 0,33,34
 923 -5 923 -5 910 9 c 2,35,-1
 822 110 l 2,36,37
 812 123 812 123 812 136 c 0,38,39
 812 151 812 151 828 167 c 2,20,-1
1511 167 m 2,40,-1
 1593 251 l 2,41,42
 1608 265 1608 265 1622 265 c 0,43,44
 1635 265 1635 265 1653 249 c 2,45,-1
 1733 163 l 2,46,47
 1745 147 1745 147 1745 134 c 0,48,49
 1745 119 1745 119 1731 103 c 2,50,-1
 1651 15 l 2,51,52
 1631 -5 1631 -5 1622 -5 c 0,53,54
 1606 -5 1606 -5 1593 9 c 2,55,-1
 1505 110 l 2,56,57
 1495 123 1495 123 1495 136 c 0,58,59
 1495 151 1495 151 1511 167 c 2,40,-1
EndSplineSet
EndChar

StartChar: guilsinglleft
Encoding: 8249 8249 214
Width: 631
Flags: W
LayerCount: 2
Fore
SplineSet
174 479 m 1,0,-1
 516 782 l 1,1,-1
 530 782 l 1,2,-1
 530 745 l 1,3,-1
 325 479 l 1,4,-1
 530 213 l 1,5,-1
 530 176 l 1,6,-1
 516 176 l 1,7,-1
 174 479 l 1,0,-1
EndSplineSet
EndChar

StartChar: guilsinglright
Encoding: 8250 8250 215
Width: 631
Flags: W
LayerCount: 2
Fore
SplineSet
115 176 m 1,0,-1
 101 176 l 1,1,-1
 101 213 l 1,2,-1
 306 479 l 1,3,-1
 101 745 l 1,4,-1
 101 782 l 1,5,-1
 115 782 l 1,6,-1
 457 479 l 1,7,-1
 115 176 l 1,0,-1
EndSplineSet
EndChar

StartChar: fraction
Encoding: 8725 8260 216
AltUni2: 002215.ffffffff.0
Width: 342
Flags: W
LayerCount: 2
Fore
SplineSet
-342 -29 m 1,0,-1
 598 1432 l 1,1,-1
 682 1432 l 1,2,-1
 -256 -29 l 1,3,-1
 -342 -29 l 1,0,-1
EndSplineSet
EndChar

StartChar: franc
Encoding: 8355 8355 217
Width: 1014
Flags: W
LayerCount: 2
Fore
SplineSet
247 357 m 1,0,-1
 53 357 l 1,1,-1
 53 417 l 1,2,-1
 247 417 l 1,3,-1
 247 1149 l 2,4,5
 247 1384 247 1384 144 1384 c 2,6,-1
 48 1384 l 1,7,-1
 48 1434 l 1,8,-1
 963 1434 l 1,9,-1
 1066 1203 l 1,10,-1
 1017 1203 l 1,11,12
 958 1385 958 1385 827 1385 c 2,13,-1
 511 1384 l 2,14,15
 409 1384 409 1384 409 1149 c 2,16,-1
 409 797 l 1,17,-1
 770 797 l 2,18,19
 870 797 870 797 870 860 c 2,20,-1
 870 918 l 1,21,-1
 920 918 l 1,22,-1
 920 576 l 1,23,-1
 870 576 l 1,24,-1
 870 636 l 2,25,26
 870 698 870 698 770 698 c 2,27,-1
 409 698 l 1,28,-1
 409 417 l 1,29,-1
 603 417 l 1,30,-1
 603 357 l 1,31,-1
 409 357 l 1,32,-1
 409 285 l 2,33,34
 409 50 409 50 511 50 c 2,35,-1
 608 50 l 1,36,-1
 608 0 l 1,37,-1
 48 0 l 1,38,-1
 48 50 l 1,39,-1
 144 50 l 2,40,41
 247 50 247 50 247 285 c 2,42,-1
 247 357 l 1,0,-1
EndSplineSet
EndChar

StartChar: lira
Encoding: 8356 8356 218
Width: 1014
Flags: W
LayerCount: 2
Fore
SplineSet
748 1347 m 1,0,1
 676 1378 676 1378 588 1378 c 2,2,-1
 586 1378 l 2,3,4
 486 1378 486 1378 396 1277 c 0,5,6
 312 1184 312 1184 312 1036 c 0,7,8
 312 1021 312 1021 313 1006 c 0,9,10
 313 900 313 900 346 793 c 1,11,-1
 726 793 l 1,12,-1
 726 733 l 1,13,-1
 366 733 l 1,14,15
 378 703 378 703 392 673 c 1,16,-1
 744 673 l 1,17,-1
 744 613 l 1,18,-1
 423 613 l 1,19,20
 458 550 458 550 458 475 c 0,21,22
 458 314 458 314 296 100 c 1,23,-1
 698 100 l 2,24,25
 828 100 828 100 887 232 c 1,26,-1
 936 231 l 1,27,-1
 833 0 l 1,28,-1
 114 0 l 1,29,-1
 115 50 l 1,30,31
 302 288 302 288 302 468 c 0,32,33
 302 545 302 545 268 611 c 1,34,-1
 266 613 l 1,35,-1
 94 613 l 1,36,-1
 94 673 l 1,37,-1
 237 673 l 1,38,39
 223 704 223 704 211 733 c 1,40,-1
 76 733 l 1,41,-1
 76 793 l 1,42,-1
 189 793 l 1,43,44
 153 900 153 900 153 986 c 0,45,46
 153 1212 153 1212 276.5 1333 c 128,-1,47
 400 1454 400 1454 587 1454 c 0,48,49
 662 1454 662 1454 772.5 1440 c 128,-1,50
 883 1426 883 1426 883 1406 c 2,51,-1
 883 1245 l 1,52,-1
 825 1245 l 1,53,54
 820 1306 820 1306 748 1347 c 1,0,1
EndSplineSet
EndChar

StartChar: peseta
Encoding: 8359 8359 219
Width: 2028
Flags: W
LayerCount: 2
Fore
SplineSet
409 1384 m 1,0,-1
 409 722 l 2,1,2
 412 713 412 713 416 705 c 0,3,4
 457 603 457 603 524 552 c 0,5,6
 581 508 581 508 640 508 c 0,7,8
 650 508 650 508 659 509 c 0,9,10
 727 517 727 517 786 584 c 128,-1,11
 845 651 845 651 873 761 c 0,12,13
 895 848 895 848 895 940 c 0,14,15
 895 964 895 964 894 987 c 0,16,17
 887 1103 887 1103 844.5 1205.5 c 128,-1,18
 802 1308 802 1308 736 1350 c 0,19,20
 680 1385 680 1385 624 1385 c 0,21,22
 614 1385 614 1385 603 1384 c 2,23,-1
 409 1384 l 1,0,-1
1496 908 m 1,24,-1
 1317 908 l 1,25,-1
 1317 223 l 2,26,27
 1317 142 1317 142 1351 104 c 0,28,29
 1379 73 1379 73 1432 67 c 1,30,-1
 1361 259 l 1,31,-1
 1410 260 l 1,32,33
 1465 130 1465 130 1524 86 c 0,34,35
 1581 42 1581 42 1651 42 c 2,36,-1
 1658 42 l 2,37,38
 1750 42 1750 42 1809 94 c 0,39,40
 1868 147 1868 147 1868 230 c 0,41,42
 1868 332 1868 332 1609 456 c 0,43,44
 1508 508 1508 508 1465 568 c 128,-1,45
 1422 628 1422 628 1422 713 c 0,46,47
 1422 834 1422 834 1495 907 c 2,48,-1
 1496 908 l 1,24,-1
1039 910 m 1,49,50
 1032 809 1032 809 991 716 c 0,51,52
 941 602 941 602 850 538.5 c 128,-1,53
 759 475 759 475 660 475 c 0,54,55
 560 475 560 475 469 539 c 0,56,57
 436 561 436 561 409 590 c 1,58,-1
 409 285 l 2,59,60
 409 50 409 50 511 50 c 2,61,-1
 608 50 l 1,62,-1
 608 0 l 1,63,-1
 48 0 l 1,64,-1
 48 50 l 1,65,-1
 144 50 l 2,66,67
 247 50 247 50 247 285 c 2,68,-1
 247 1149 l 2,69,70
 247 1384 247 1384 144 1384 c 2,71,-1
 48 1384 l 1,72,-1
 48 1434 l 1,73,-1
 666 1434 l 2,74,75
 758 1432 758 1432 847 1372 c 0,76,77
 938 1310 938 1310 990 1195 c 0,78,79
 1040 1082 1040 1082 1041 958 c 1,80,-1
 1051 958 l 2,81,82
 1267 958 1267 958 1267 1313 c 1,83,-1
 1317 1313 l 1,84,-1
 1317 958 l 1,85,-1
 1576 958 l 1,86,87
 1618 977 1618 977 1686 978 c 2,88,-1
 1688 978 l 2,89,90
 1742 978 1742 978 1821.5 964.5 c 128,-1,91
 1901 951 1901 951 1901 931 c 2,92,-1
 1901 772 l 1,93,-1
 1859 772 l 1,94,95
 1855 838 1855 838 1793.5 880 c 128,-1,96
 1732 922 1732 922 1660 922 c 0,97,98
 1596 922 1596 922 1557.5 885.5 c 128,-1,99
 1519 849 1519 849 1519 789 c 0,100,101
 1519 681 1519 681 1754 569 c 0,102,103
 1876 514 1876 514 1921.5 451.5 c 128,-1,104
 1967 389 1967 389 1967 298 c 0,105,106
 1967 158 1967 158 1884 67 c 1,107,108
 1782 -17 1782 -17 1656 -19 c 0,109,110
 1598 -19 1598 -19 1551 -8 c 0,111,112
 1523 -2 1523 -2 1495 -2 c 0,113,114
 1477 -2 1477 -2 1459 -5 c 0,115,116
 1431 -10 1431 -10 1400 -10 c 0,117,118
 1276 -10 1276 -10 1226.5 47 c 128,-1,119
 1177 104 1177 104 1169 223 c 1,120,-1
 1168 223 l 1,121,-1
 1168 910 l 1,122,-1
 1039 910 l 1,49,50
EndSplineSet
EndChar

StartChar: Euro
Encoding: 8364 8364 220
Width: 1014
Flags: W
LayerCount: 2
Fore
SplineSet
140 372 m 0,0,1
 78 507 78 507 64 653 c 1,2,-1
 -44 653 l 1,3,-1
 -27 713 l 1,4,-1
 60 713 l 1,5,-1
 60 742 l 2,6,7
 60 758 60 758 61 773 c 1,8,-1
 -10 773 l 1,9,-1
 7 833 l 1,10,-1
 65 833 l 1,11,12
 79 978 79 978 141 1114 c 0,13,14
 222 1292 222 1292 367 1388 c 128,-1,15
 512 1484 512 1484 665 1484 c 0,16,17
 708 1484 708 1484 752 1476 c 0,18,19
 792 1466 792 1466 834 1447 c 0,20,21
 842 1441 842 1441 850 1441 c 0,22,23
 870 1441 870 1441 884 1486 c 1,24,-1
 925 1486 l 1,25,-1
 1009 1205 l 1,26,-1
 969 1204 l 1,27,28
 920 1338 920 1338 831 1382 c 0,29,30
 788 1404 788 1404 750 1414 c 1,31,-1
 750 1417 l 1,32,33
 700 1433 700 1433 649 1433 c 0,34,35
 632 1433 632 1433 615 1431 c 0,36,37
 495 1419 495 1419 389 1317.5 c 128,-1,38
 283 1216 283 1216 232 1044 c 0,39,40
 200 940 200 940 193 833 c 1,41,-1
 899 833 l 1,42,-1
 882 773 l 1,43,-1
 190 773 l 1,44,45
 190 743 190 743 192 713 c 1,46,-1
 866 713 l 1,47,-1
 849 653 l 1,48,-1
 197 653 l 1,49,50
 214 495 214 495 280 355 c 0,51,52
 354 198 354 198 473 119 c 0,53,54
 575 51 575 51 689 50 c 0,55,56
 875 53 875 53 945 141 c 0,57,58
 1019 232 1019 232 1019 326 c 1,59,-1
 1067 326 l 1,60,-1
 1067 183 l 2,61,62
 1067 113 1067 113 956 56 c 0,63,64
 851 2 851 2 689 0 c 0,65,66
 508 0 508 0 363.5 98 c 128,-1,67
 219 196 219 196 140 372 c 0,0,1
EndSplineSet
EndChar

StartChar: trademark
Encoding: 8482 8482 222
Width: 1497
Flags: W
LayerCount: 2
Fore
SplineSet
1108 1006 m 2,0,-1
 1217 1006 l 2,1,2
 1233 1006 1233 1006 1246 995 c 1,3,4
 1259 1006 1259 1006 1275 1006 c 2,5,-1
 1311 1006 l 2,6,7
 1328 1006 1328 1006 1347 867 c 1,8,-1
 1355 867 l 1,9,10
 1379 1006 1379 1006 1398 1006 c 2,11,-1
 1449 1006 l 1,12,-1
 1449 995 l 1,13,-1
 1434 963 l 1,14,-1
 1434 813 l 1,15,-1
 1449 781 l 1,16,-1
 1449 771 l 1,17,-1
 1391 771 l 1,18,-1
 1398 824 l 1,19,-1
 1398 931 l 1,20,-1
 1391 931 l 1,21,22
 1372 771 1372 771 1347 771 c 0,23,24
 1326 771 1326 771 1304 942 c 1,25,-1
 1297 942 l 1,26,-1
 1297 813 l 1,27,-1
 1311 781 l 1,28,-1
 1311 771 l 1,29,-1
 1253 771 l 1,30,-1
 1253 792 l 1,31,-1
 1268 792 l 1,32,-1
 1268 985 l 1,33,-1
 1246 985 l 1,34,-1
 1246 963 l 1,35,-1
 1239 963 l 1,36,-1
 1217 985 l 1,37,-1
 1188 985 l 1,38,-1
 1188 792 l 1,39,-1
 1202 792 l 1,40,-1
 1202 771 l 1,41,-1
 1137 771 l 1,42,-1
 1145 824 l 1,43,-1
 1145 985 l 1,44,-1
 1130 985 l 1,45,-1
 1094 974 l 1,46,-1
 1094 985 l 2,47,48
 1096 1006 1096 1006 1108 1006 c 2,0,-1
1007 985 m 1,49,-1
 1043 985 l 2,50,51
 1054 985 1054 985 1065 952 c 1,52,-1
 1065 931 l 2,53,54
 1065 916 1065 916 1043 899 c 1,55,-1
 1000 899 l 2,56,57
 983 899 983 899 978 952 c 1,58,-1
 1007 985 l 1,49,-1
43 974 m 2,59,-1
 203 974 l 2,60,61
 319 974 319 974 319 867 c 2,62,-1
 319 845 l 1,63,64
 310 760 310 760 275 760 c 1,65,66
 333 696 333 696 333 642 c 0,67,68
 333 514 333 514 232 514 c 2,69,-1
 43 514 l 2,70,71
 29 514 29 514 29 535 c 2,72,-1
 29 557 l 1,73,-1
 65 599 l 1,74,-1
 65 888 l 1,75,-1
 29 931 l 1,76,-1
 29 952 l 2,77,78
 31 974 31 974 43 974 c 2,59,-1
145 910 m 1,79,-1
 145 771 l 1,80,-1
 181 771 l 2,81,82
 239 771 239 771 239 845 c 0,83,84
 239 910 239 910 167 910 c 2,85,-1
 145 910 l 1,79,-1
478 845 m 2,86,-1
 514 845 l 2,87,88
 601 845 601 845 616 674 c 1,89,-1
 601 664 l 1,90,-1
 442 664 l 1,91,-1
 442 653 l 2,92,93
 442 557 442 557 514 557 c 1,94,95
 558 594 558 594 558 610 c 1,96,-1
 608 589 l 1,97,98
 584 503 584 503 514 503 c 2,99,-1
 478 503 l 2,100,101
 385 503 385 503 369 631 c 1,102,103
 362 650 362 650 362 674 c 0,104,105
 377 845 377 845 478 845 c 2,86,-1
652 835 m 2,106,-1
 732 835 l 2,107,108
 746 835 746 835 746 803 c 1,109,-1
 753 803 l 1,110,111
 781 835 781 835 819 835 c 2,112,-1
 833 835 l 2,113,114
 913 835 913 835 913 706 c 2,115,-1
 913 589 l 1,116,-1
 942 546 l 1,117,-1
 942 535 l 2,118,119
 942 514 942 514 927 514 c 2,120,-1
 819 514 l 2,121,122
 804 514 804 514 804 535 c 2,123,-1
 804 546 l 1,124,-1
 833 589 l 1,125,-1
 833 749 l 1,126,127
 822 749 822 749 804 771 c 1,128,129
 746 771 746 771 746 696 c 2,130,-1
 746 589 l 1,131,-1
 782 546 l 1,132,-1
 782 535 l 2,133,134
 782 514 782 514 768 514 c 2,135,-1
 652 514 l 2,136,137
 637 514 637 514 637 535 c 2,138,-1
 637 546 l 1,139,-1
 674 589 l 1,140,-1
 674 749 l 1,141,-1
 637 792 l 1,142,-1
 637 813 l 2,143,144
 640 835 640 835 652 835 c 2,106,-1
978 835 m 2,145,-1
 1050 835 l 1,146,147
 1065 831 1065 831 1065 813 c 2,148,-1
 1065 589 l 1,149,-1
 1094 546 l 1,150,-1
 1094 535 l 2,151,152
 1094 514 1094 514 1079 514 c 2,153,-1
 978 514 l 2,154,155
 963 514 963 514 963 535 c 2,156,-1
 963 546 l 1,157,-1
 992 589 l 1,158,-1
 992 749 l 1,159,-1
 963 792 l 1,160,-1
 963 813 l 2,161,162
 966 835 966 835 978 835 c 2,145,-1
442 728 m 1,163,-1
 442 706 l 1,164,-1
 543 706 l 1,165,166
 543 792 543 792 485 792 c 1,167,168
 461 783 461 783 442 728 c 1,163,-1
145 717 m 1,169,-1
 145 578 l 1,170,-1
 181 578 l 2,171,172
 246 578 246 578 246 653 c 0,173,174
 246 717 246 717 174 717 c 2,175,-1
 145 717 l 1,169,-1
210 471 m 1,176,177
 227 454 227 454 319 86 c 1,178,179
 348 70 348 70 348 54 c 2,180,-1
 348 32 l 2,181,182
 348 11 348 11 333 11 c 2,183,-1
 217 11 l 2,184,185
 203 11 203 11 203 32 c 2,186,-1
 203 43 l 2,187,188
 203 64 203 64 232 64 c 1,189,-1
 232 75 l 2,190,191
 232 102 232 102 217 171 c 1,192,-1
 123 171 l 2,193,194
 101 171 101 171 101 64 c 1,195,196
 123 64 123 64 123 43 c 2,197,-1
 123 32 l 2,198,199
 123 11 123 11 109 11 c 2,200,-1
 14 11 l 2,201,202
 0 11 0 11 0 32 c 2,203,-1
 0 54 l 1,204,205
 29 63 29 63 130 471 c 1,206,-1
 210 471 l 1,176,177
768 428 m 1,207,-1
 775 407 l 1,208,-1
 768 407 l 1,209,-1
 775 385 l 1,210,-1
 775 375 l 2,211,212
 775 364 775 364 768 364 c 1,213,214
 775 343 775 343 775 332 c 1,215,-1
 819 332 l 1,216,217
 833 328 833 328 833 310 c 2,218,-1
 833 300 l 2,219,220
 833 278 833 278 819 278 c 2,221,-1
 775 278 l 1,222,-1
 775 150 l 2,223,224
 775 139 775 139 768 139 c 1,225,226
 778 64 778 64 790 64 c 1,227,-1
 826 107 l 1,228,-1
 833 86 l 1,229,230
 833 0 833 0 775 0 c 2,231,-1
 753 0 l 2,232,233
 695 0 695 0 695 96 c 2,234,-1
 695 278 l 1,235,236
 659 278 659 278 659 300 c 2,237,-1
 659 310 l 2,238,239
 659 332 659 332 703 332 c 1,240,-1
 703 385 l 1,241,242
 712 428 712 428 768 428 c 1,207,-1
159 385 m 1,243,-1
 123 214 l 1,244,-1
 203 214 l 1,245,-1
 203 225 l 1,246,247
 174 385 174 385 159 385 c 1,243,-1
985 342 m 1,248,-1
 1021 342 l 2,249,250
 1108 342 1108 342 1130 171 c 1,251,252
 1110 0 1110 0 1021 0 c 2,253,-1
 985 0 l 1,254,255
 862 21 862 21 862 171 c 0,256,257
 862 319 862 319 985 342 c 1,248,-1
369 332 m 2,258,-1
 449 332 l 2,259,260
 464 332 464 332 464 300 c 1,261,-1
 471 300 l 1,262,263
 497 332 497 332 522 332 c 2,264,-1
 551 332 l 2,265,266
 630 332 630 332 630 203 c 2,267,-1
 630 64 l 1,268,269
 659 64 659 64 659 43 c 2,270,-1
 659 32 l 2,271,272
 659 11 659 11 645 11 c 2,273,-1
 536 11 l 2,274,275
 522 11 522 11 522 32 c 2,276,-1
 522 43 l 2,277,278
 522 64 522 64 551 64 c 1,279,-1
 551 225 l 2,280,281
 551 241 551 241 522 268 c 1,282,283
 467 255 467 255 464 225 c 2,284,-1
 464 86 l 1,285,-1
 500 43 l 1,286,-1
 500 32 l 2,287,288
 500 11 500 11 485 11 c 2,289,-1
 369 11 l 2,290,291
 355 11 355 11 355 32 c 2,292,-1
 355 43 l 1,293,294
 391 75 391 75 391 118 c 2,295,-1
 391 246 l 1,296,-1
 355 289 l 1,297,-1
 355 310 l 2,298,299
 357 332 357 332 369 332 c 2,258,-1
1166 332 m 2,300,-1
 1246 332 l 2,301,302
 1260 332 1260 332 1260 300 c 1,303,-1
 1268 300 l 1,304,305
 1294 332 1294 332 1318 332 c 2,306,-1
 1347 332 l 2,307,308
 1427 332 1427 332 1427 171 c 2,309,-1
 1427 64 l 1,310,311
 1456 64 1456 64 1456 43 c 2,312,-1
 1456 32 l 2,313,314
 1456 11 1456 11 1442 11 c 2,315,-1
 1333 11 l 2,316,317
 1318 11 1318 11 1318 32 c 2,318,-1
 1318 43 l 2,319,320
 1318 64 1318 64 1347 64 c 1,321,-1
 1347 225 l 1,322,323
 1332 268 1332 268 1311 268 c 1,324,325
 1260 253 1260 253 1260 225 c 2,326,-1
 1260 86 l 1,327,-1
 1297 43 l 1,328,-1
 1297 32 l 2,329,330
 1297 11 1297 11 1282 11 c 2,331,-1
 1166 11 l 2,332,333
 1152 11 1152 11 1152 32 c 2,334,-1
 1152 43 l 1,335,336
 1188 75 1188 75 1188 118 c 2,337,-1
 1188 246 l 1,338,-1
 1152 289 l 1,339,-1
 1152 310 l 2,340,341
 1154 332 1154 332 1166 332 c 2,300,-1
942 171 m 0,342,343
 942 61 942 61 1000 54 c 1,344,345
 1041 54 1041 54 1050 171 c 1,346,347
 1050 255 1050 255 1007 289 c 1,348,349
 942 289 942 289 942 171 c 0,342,343
EndSplineSet
EndChar

StartChar: partialdiff
Encoding: 8706 8706 223
Width: 1014
Flags: W
LayerCount: 2
Fore
SplineSet
232 537 m 0,0,1
 232 496 232 496 237 458 c 0,2,3
 251 336 251 336 298.5 228 c 128,-1,4
 346 120 346 120 417 63 c 0,5,6
 481 10 481 10 545 10 c 0,7,8
 551 10 551 10 558 11 c 0,9,10
 628 16 628 16 685.5 81.5 c 128,-1,11
 743 147 743 147 766 261 c 0,12,13
 782 334 782 334 782 410 c 0,14,15
 782 452 782 452 777 495 c 0,16,17
 763 617 763 617 714.5 726.5 c 128,-1,18
 666 836 666 836 595 892 c 0,19,20
 530 942 530 942 467 942 c 2,21,-1
 456 942 l 1,22,23
 388 937 388 937 330 872.5 c 128,-1,24
 272 808 272 808 248 694 c 0,25,26
 232 610 232 610 232 537 c 0,0,1
937 477 m 0,27,28
 937 345 937 345 880.5 226 c 128,-1,29
 824 107 824 107 721.5 41 c 128,-1,30
 619 -25 619 -25 507 -25 c 256,31,32
 395 -25 395 -25 292.5 41 c 128,-1,33
 190 107 190 107 133.5 226 c 128,-1,34
 77 345 77 345 77 477 c 0,35,36
 77 608 77 608 135 728 c 128,-1,37
 193 848 193 848 296 913 c 128,-1,38
 399 978 399 978 507 978 c 0,39,40
 616 978 616 978 719 913 c 0,41,42
 748 895 748 895 773 872 c 1,43,44
 689 1107 689 1107 539.5 1249 c 128,-1,45
 390 1391 390 1391 213 1404 c 1,46,-1
 213 1459 l 1,47,48
 519 1459 519 1459 728 1174 c 128,-1,49
 937 889 937 889 937 477 c 0,27,28
EndSplineSet
EndChar

StartChar: Delta
Encoding: 8710 8710 224
Width: 1081
Flags: W
LayerCount: 2
Fore
SplineSet
514 1195 m 1,0,-1
 108 123 l 1,1,-1
 909 123 l 1,2,-1
 514 1195 l 1,0,-1
547 1434 m 1,3,-1
 1073 0 l 1,4,-1
 6 0 l 1,5,-1
 547 1434 l 1,3,-1
EndSplineSet
EndChar

StartChar: product
Encoding: 8719 8719 225
Width: 1515
Flags: W
LayerCount: 2
Fore
SplineSet
511 1384 m 2,0,1
 409 1384 409 1384 409 1149 c 2,2,-1
 409 -132 l 2,3,4
 409 -367 409 -367 511 -367 c 2,5,-1
 608 -367 l 1,6,-1
 608 -418 l 1,7,-1
 48 -418 l 1,8,-1
 48 -367 l 1,9,-1
 144 -367 l 2,10,11
 247 -367 247 -367 247 -132 c 2,12,-1
 247 1149 l 2,13,14
 247 1384 247 1384 144 1384 c 2,15,-1
 48 1384 l 1,16,-1
 48 1434 l 1,17,-1
 1467 1434 l 1,18,-1
 1467 1384 l 1,19,-1
 1370 1384 l 2,20,21
 1268 1384 1268 1384 1268 1149 c 2,22,-1
 1268 -132 l 2,23,24
 1268 -367 1268 -367 1370 -367 c 2,25,-1
 1467 -367 l 1,26,-1
 1467 -417 l 1,27,-1
 907 -417 l 1,28,-1
 907 -367 l 1,29,-1
 1003 -367 l 2,30,31
 1106 -367 1106 -367 1106 -132 c 2,32,-1
 1106 1149 l 2,33,34
 1106 1384 1106 1384 1003 1384 c 2,35,-1
 511 1384 l 2,0,1
EndSplineSet
EndChar

StartChar: summation
Encoding: 8721 8721 226
Width: 1206
Flags: W
LayerCount: 2
Fore
SplineSet
1059 548 m 1,0,-1
 271 -366 l 1,1,-1
 906 -366 l 2,2,3
 1036 -366 1036 -366 1095 -184 c 1,4,-1
 1144 -184 l 1,5,-1
 1041 -416 l 1,6,-1
 120 -416 l 1,7,-1
 120 -366 l 1,8,9
 182 -366 182 -366 226 -313 c 2,10,-1
 889 468 l 1,11,-1
 226 1327 l 2,12,13
 182 1384 182 1384 120 1384 c 1,14,-1
 120 1434 l 1,15,-1
 1041 1434 l 1,16,-1
 1144 1202 l 1,17,-1
 1095 1202 l 1,18,19
 1036 1384 1036 1384 906 1384 c 2,20,-1
 421 1384 l 1,21,-1
 1059 548 l 1,0,-1
EndSplineSet
EndChar

StartChar: minus
Encoding: 8722 8722 227
Width: 1014
Flags: W
LayerCount: 2
Fore
SplineSet
87 647 m 1,0,-1
 87 787 l 1,1,-1
 926 787 l 1,2,-1
 927 786 l 1,3,-1
 927 647 l 1,4,-1
 87 647 l 1,0,-1
EndSplineSet
EndChar

StartChar: radical
Encoding: 8730 8730 228
Width: 1014
Flags: W
LayerCount: 2
Fore
SplineSet
181 0 m 1,0,-1
 17 359 l 1,1,-1
 91 394 l 1,2,-1
 176 209 l 1,3,-1
 904 1679 l 1,4,-1
 1054 1679 l 1,5,-1
 1054 1619 l 1,6,-1
 982 1619 l 1,7,-1
 181 0 l 1,0,-1
EndSplineSet
EndChar

StartChar: infinity
Encoding: 8734 8734 229
Width: 1014
Flags: W
LayerCount: 2
Fore
SplineSet
439 755 m 1,0,1
 424 858 424 858 365 888 c 0,2,3
 319 910 319 910 281 910 c 0,4,5
 269 910 269 910 258 908 c 0,6,7
 209 898 209 898 165.5 863.5 c 128,-1,8
 122 829 122 829 100 779 c 0,9,10
 80 733 80 733 80 689 c 2,11,-1
 80 681 l 2,12,13
 82 633 82 633 107.5 592 c 128,-1,14
 133 551 133 551 179 534 c 0,15,16
 208 523 208 523 240 523 c 0,17,18
 256 523 256 523 273 526 c 0,19,20
 320 536 320 536 363.5 569.5 c 128,-1,21
 407 603 407 603 439 755 c 1,0,1
466 687 m 1,22,23
 478 591 478 591 560 534 c 0,24,25
 629 486 629 486 683 486 c 0,26,27
 694 486 694 486 704 488 c 0,28,29
 766 500 766 500 821.5 540 c 128,-1,30
 877 580 877 580 906 641 c 0,31,32
 932 695 932 695 932 749 c 2,33,-1
 932 760 l 2,34,35
 930 820 930 820 896.5 868.5 c 128,-1,36
 863 917 863 917 805 937 c 0,37,38
 768 950 768 950 729 950 c 0,39,40
 707 950 707 950 685 946 c 0,41,42
 618 937 618 937 558 884 c 128,-1,43
 498 831 498 831 466 687 c 1,22,23
450 827 m 1,44,45
 459 862 459 862 471 896 c 0,46,47
 505 984 505 984 566 1033 c 128,-1,48
 627 1082 627 1082 694 1082 c 256,49,50
 761 1082 761 1082 822 1034 c 128,-1,51
 883 986 883 986 917 899 c 128,-1,52
 951 812 951 812 951 717 c 256,53,54
 951 622 951 622 917 535 c 128,-1,55
 883 448 883 448 822 400 c 128,-1,56
 761 352 761 352 694 352 c 256,57,58
 627 352 627 352 566 401 c 128,-1,59
 505 450 505 450 471 537 c 0,60,61
 459 572 459 572 450 607 c 1,62,63
 445 586 445 586 438 566 c 0,64,65
 411 493 411 493 364 453 c 128,-1,66
 317 413 317 413 265 413 c 256,67,68
 213 413 213 413 165 454 c 128,-1,69
 117 495 117 495 91.5 567.5 c 128,-1,70
 66 640 66 640 66 717 c 0,71,72
 66 793 66 793 91.5 866 c 128,-1,73
 117 939 117 939 165 980 c 128,-1,74
 213 1021 213 1021 265 1021 c 256,75,76
 317 1021 317 1021 364 981 c 128,-1,77
 411 941 411 941 438 869 c 0,78,79
 445 848 445 848 450 827 c 1,44,45
EndSplineSet
EndChar

StartChar: integral
Encoding: 8747 8747 230
Width: 665
Flags: W
LayerCount: 2
Fore
SplineSet
-12 -281 m 0,0,1
 -72 -281 -72 -281 -72 -252 c 2,2,-1
 -72 -93 l 1,3,-1
 -36 -93 l 1,4,5
 -35 -136 -35 -136 -1.5 -157.5 c 128,-1,6
 32 -179 32 -179 62 -179 c 2,7,-1
 63 -179 l 2,8,9
 145 -179 145 -179 178 -17 c 0,10,11
 210 145 210 145 218 299 c 1,12,-1
 288 1033 l 1,13,-1
 296 1095 l 2,14,15
 323 1333 323 1333 431 1524.5 c 128,-1,16
 539 1716 539 1716 665 1716 c 0,17,18
 725 1716 725 1716 725 1687 c 2,19,-1
 725 1528 l 1,20,-1
 689 1528 l 1,21,22
 688 1571 688 1571 654 1592.5 c 128,-1,23
 620 1614 620 1614 591 1614 c 0,24,25
 520 1614 520 1614 475 1458.5 c 128,-1,26
 430 1303 430 1303 426 1095 c 1,27,-1
 353 328 l 2,28,29
 333 97 333 97 222.5 -92 c 128,-1,30
 112 -281 112 -281 -12 -281 c 0,0,1
EndSplineSet
EndChar

StartChar: approxequal
Encoding: 8776 8776 231
Width: 1014
Flags: W
LayerCount: 2
Fore
SplineSet
923 1053 m 1,0,-1
 923 897 l 1,1,2
 860 825 860 825 801 799.5 c 128,-1,3
 742 774 742 774 685 774 c 0,4,5
 625 774 625 774 507.5 822.5 c 128,-1,6
 390 871 390 871 331 871 c 0,7,8
 280 871 280 871 223.5 843 c 128,-1,9
 167 815 167 815 94 731 c 1,10,-1
 94 887 l 1,11,12
 158 960 158 960 217 986 c 128,-1,13
 276 1012 276 1012 331 1012 c 0,14,15
 395 1012 395 1012 512.5 962.5 c 128,-1,16
 630 913 630 913 685 913 c 0,17,18
 737 913 737 913 793.5 941 c 128,-1,19
 850 969 850 969 923 1053 c 1,0,-1
923 705 m 1,20,-1
 923 549 l 1,21,22
 860 477 860 477 801 451.5 c 128,-1,23
 742 426 742 426 685 426 c 0,24,25
 625 426 625 426 507.5 474.5 c 128,-1,26
 390 523 390 523 331 523 c 0,27,28
 280 523 280 523 223.5 495 c 128,-1,29
 167 467 167 467 94 383 c 1,30,-1
 94 539 l 1,31,32
 158 612 158 612 217 638 c 128,-1,33
 276 664 276 664 331 664 c 0,34,35
 395 664 395 664 512.5 614.5 c 128,-1,36
 630 565 630 565 685 565 c 0,37,38
 737 565 737 565 793.5 593 c 128,-1,39
 850 621 850 621 923 705 c 1,20,-1
EndSplineSet
EndChar

StartChar: lessequal
Encoding: 8804 8804 232
Width: 1014
Flags: W
LayerCount: 2
Fore
SplineSet
927 1074 m 1,0,-1
 302 715 l 1,1,-1
 927 360 l 1,2,-1
 927 193 l 1,3,-1
 87 674 l 1,4,-1
 87 757 l 1,5,-1
 927 1241 l 1,6,-1
 927 1074 l 1,0,-1
87 1 m 1,7,-1
 87 141 l 1,8,-1
 926 141 l 1,9,-1
 927 140 l 1,10,-1
 927 1 l 1,11,-1
 87 1 l 1,7,-1
EndSplineSet
EndChar

StartChar: greaterequal
Encoding: 8805 8805 233
Width: 1014
Flags: W
LayerCount: 2
Fore
SplineSet
87 1241 m 1,0,-1
 927 757 l 1,1,-1
 927 674 l 1,2,-1
 87 193 l 1,3,-1
 87 360 l 1,4,-1
 712 715 l 1,5,-1
 87 1074 l 1,6,-1
 87 1241 l 1,0,-1
87 2 m 1,7,-1
 87 142 l 1,8,-1
 926 142 l 1,9,-1
 927 141 l 1,10,-1
 927 2 l 1,11,-1
 87 2 l 1,7,-1
EndSplineSet
EndChar

StartChar: uniF001
Encoding: 64257 61441 234
AltUni2: 00fb01.ffffffff.0
Width: 905
Flags: W
LayerCount: 2
Fore
SplineSet
733 1459 m 1,0,-1
 747 1459 l 1,1,2
 793 1411 793 1411 793 1367 c 2,3,-1
 793 1363 l 1,4,5
 785 1332 785 1332 782 1267 c 1,6,7
 771 1260 771 1260 763 1183 c 1,8,9
 757 1183 757 1183 752 1115 c 1,10,11
 743 1115 743 1115 730 1047 c 1,12,13
 720 1047 720 1047 711 959 c 1,14,15
 681 883 681 883 681 875 c 0,16,17
 681 865 681 865 660 815 c 1,18,19
 660 797 660 797 630 731 c 1,20,21
 630 695 630 695 594 655 c 0,22,23
 583 637 583 637 570 579 c 1,24,25
 561 579 561 579 542 507 c 1,26,27
 513 473 513 473 488 379 c 1,28,29
 477 379 477 379 464 299 c 1,30,31
 450 299 450 299 434 219 c 1,32,33
 423 214 423 214 393 83 c 1,34,35
 360 -3 360 -3 346 -5 c 2,36,-1
 325 -5 l 2,37,38
 283 -5 283 -5 265 51 c 0,39,40
 262 51 262 51 262 55 c 2,41,-1
 262 63 l 2,42,43
 262 92 262 92 287 171 c 1,44,45
 300 275 300 275 316 275 c 1,46,47
 327 337 327 337 349 375 c 1,48,49
 349 384 349 384 368 455 c 0,50,51
 376 490 376 490 398 511 c 1,52,53
 398 518 398 518 409 571 c 1,54,55
 401 575 401 575 401 579 c 2,56,-1
 360 563 l 1,57,58
 355 567 355 567 352 567 c 0,59,60
 336 547 336 547 316 547 c 0,61,62
 312 547 312 547 287 555 c 1,63,64
 251 547 251 547 251 543 c 2,65,-1
 238 547 l 1,66,-1
 208 547 l 2,67,68
 198 547 198 547 159 575 c 1,69,70
 129 589 129 589 99 643 c 1,71,72
 82 643 82 643 77 751 c 1,73,-1
 63 771 l 1,74,-1
 63 843 l 1,75,76
 55 881 55 881 55 891 c 2,77,-1
 55 951 l 1,78,-1
 36 1191 l 1,79,80
 36 1313 36 1313 80 1347 c 1,81,-1
 99 1343 l 1,82,-1
 126 1343 l 1,83,84
 164 1304 164 1304 164 1275 c 2,85,-1
 164 1183 l 1,86,-1
 161 1175 l 1,87,88
 175 1164 175 1164 175 1119 c 2,89,-1
 175 979 l 1,90,91
 191 851 191 851 191 831 c 2,92,-1
 191 811 l 1,93,-1
 213 743 l 1,94,95
 238 735 238 735 248 735 c 2,96,-1
 308 735 l 1,97,98
 360 747 360 747 395 763 c 2,99,-1
 485 807 l 1,100,101
 512 838 512 838 529 855 c 1,102,103
 550 887 550 887 591 1039 c 1,104,105
 607 1039 607 1039 624 1167 c 1,106,107
 641 1167 641 1167 660 1355 c 1,108,109
 667 1355 667 1355 679 1431 c 0,110,111
 679 1447 679 1447 733 1459 c 1,0,-1
EndSplineSet
EndChar

StartChar: uniF002
Encoding: 64258 61442 235
AltUni2: 00fb02.ffffffff.0
Width: 905
Flags: W
LayerCount: 2
Fore
SplineSet
733 1459 m 1,0,-1
 747 1459 l 1,1,2
 793 1411 793 1411 793 1367 c 2,3,-1
 793 1363 l 1,4,5
 785 1332 785 1332 782 1267 c 1,6,7
 771 1260 771 1260 763 1183 c 1,8,9
 757 1183 757 1183 752 1115 c 1,10,11
 743 1115 743 1115 730 1047 c 1,12,13
 720 1047 720 1047 711 959 c 1,14,15
 681 883 681 883 681 875 c 0,16,17
 681 865 681 865 660 815 c 1,18,19
 660 797 660 797 630 731 c 1,20,21
 630 695 630 695 594 655 c 0,22,23
 583 637 583 637 570 579 c 1,24,25
 561 579 561 579 542 507 c 1,26,27
 513 473 513 473 488 379 c 1,28,29
 477 379 477 379 464 299 c 1,30,31
 450 299 450 299 434 219 c 1,32,33
 423 214 423 214 393 83 c 1,34,35
 360 -3 360 -3 346 -5 c 2,36,-1
 325 -5 l 2,37,38
 283 -5 283 -5 265 51 c 0,39,40
 262 51 262 51 262 55 c 2,41,-1
 262 63 l 2,42,43
 262 92 262 92 287 171 c 1,44,45
 300 275 300 275 316 275 c 1,46,47
 327 337 327 337 349 375 c 1,48,49
 349 384 349 384 368 455 c 0,50,51
 376 490 376 490 398 511 c 1,52,53
 398 518 398 518 409 571 c 1,54,55
 401 575 401 575 401 579 c 2,56,-1
 360 563 l 1,57,58
 355 567 355 567 352 567 c 0,59,60
 336 547 336 547 316 547 c 0,61,62
 312 547 312 547 287 555 c 1,63,64
 251 547 251 547 251 543 c 2,65,-1
 238 547 l 1,66,-1
 208 547 l 2,67,68
 198 547 198 547 159 575 c 1,69,70
 129 589 129 589 99 643 c 1,71,72
 82 643 82 643 77 751 c 1,73,-1
 63 771 l 1,74,-1
 63 843 l 1,75,76
 55 881 55 881 55 891 c 2,77,-1
 55 951 l 1,78,-1
 36 1191 l 1,79,80
 36 1313 36 1313 80 1347 c 1,81,-1
 99 1343 l 1,82,-1
 126 1343 l 1,83,84
 164 1304 164 1304 164 1275 c 2,85,-1
 164 1183 l 1,86,-1
 161 1175 l 1,87,88
 175 1164 175 1164 175 1119 c 2,89,-1
 175 979 l 1,90,91
 191 851 191 851 191 831 c 2,92,-1
 191 811 l 1,93,-1
 213 743 l 1,94,95
 238 735 238 735 248 735 c 2,96,-1
 308 735 l 1,97,98
 360 747 360 747 395 763 c 2,99,-1
 485 807 l 1,100,101
 512 838 512 838 529 855 c 1,102,103
 550 887 550 887 591 1039 c 1,104,105
 607 1039 607 1039 624 1167 c 1,106,107
 641 1167 641 1167 660 1355 c 1,108,109
 667 1355 667 1355 679 1431 c 0,110,111
 679 1447 679 1447 733 1459 c 1,0,-1
EndSplineSet
EndChar
